%TF.GenerationSoftware,KiCad,Pcbnew,(5.1.12)-1*%
%TF.CreationDate,2021-11-29T19:24:28+10:30*%
%TF.ProjectId,SWR_02,5357525f-3032-42e6-9b69-6361645f7063,2*%
%TF.SameCoordinates,Original*%
%TF.FileFunction,Soldermask,Top*%
%TF.FilePolarity,Negative*%
%FSLAX46Y46*%
G04 Gerber Fmt 4.6, Leading zero omitted, Abs format (unit mm)*
G04 Created by KiCad (PCBNEW (5.1.12)-1) date 2021-11-29 19:24:28*
%MOMM*%
%LPD*%
G01*
G04 APERTURE LIST*
%ADD10R,2.032000X2.159000*%
%ADD11R,2.159000X2.032000*%
%ADD12C,1.500000*%
%ADD13R,4.572000X2.184400*%
%ADD14C,5.000000*%
%ADD15C,2.900000*%
G04 APERTURE END LIST*
D10*
%TO.C,L1A1*%
X63500000Y-30480000D03*
%TD*%
%TO.C,L1A2*%
X105410000Y-53340000D03*
%TD*%
D11*
%TO.C,L2A1*%
X72390000Y-71120000D03*
%TD*%
D10*
%TO.C,L2A2*%
X97790000Y-93980000D03*
%TD*%
D12*
%TO.C,FID1*%
X147320000Y-76200000D03*
%TD*%
D13*
%TO.C,J2*%
X147320000Y-114300000D03*
%TD*%
%TO.C,J1*%
X53340000Y-30480000D03*
%TD*%
D14*
%TO.C,H2*%
X54610000Y-118110000D03*
D15*
X54610000Y-118110000D03*
%TD*%
D14*
%TO.C,H1*%
X146050000Y-29210000D03*
D15*
X146050000Y-29210000D03*
%TD*%
%TO.C,D2*%
G36*
G01*
X130629999Y-115875000D02*
X133530001Y-115875000D01*
G75*
G02*
X133780000Y-116124999I0J-249999D01*
G01*
X133780000Y-116925001D01*
G75*
G02*
X133530001Y-117175000I-249999J0D01*
G01*
X130629999Y-117175000D01*
G75*
G02*
X130380000Y-116925001I0J249999D01*
G01*
X130380000Y-116124999D01*
G75*
G02*
X130629999Y-115875000I249999J0D01*
G01*
G37*
G36*
G01*
X130629999Y-111425000D02*
X133530001Y-111425000D01*
G75*
G02*
X133780000Y-111674999I0J-249999D01*
G01*
X133780000Y-112475001D01*
G75*
G02*
X133530001Y-112725000I-249999J0D01*
G01*
X130629999Y-112725000D01*
G75*
G02*
X130380000Y-112475001I0J249999D01*
G01*
X130380000Y-111674999D01*
G75*
G02*
X130629999Y-111425000I249999J0D01*
G01*
G37*
%TD*%
%TO.C,D1*%
G36*
G01*
X62535000Y-52250001D02*
X62535000Y-49349999D01*
G75*
G02*
X62784999Y-49100000I249999J0D01*
G01*
X63585001Y-49100000D01*
G75*
G02*
X63835000Y-49349999I0J-249999D01*
G01*
X63835000Y-52250001D01*
G75*
G02*
X63585001Y-52500000I-249999J0D01*
G01*
X62784999Y-52500000D01*
G75*
G02*
X62535000Y-52250001I0J249999D01*
G01*
G37*
G36*
G01*
X58085000Y-52250001D02*
X58085000Y-49349999D01*
G75*
G02*
X58334999Y-49100000I249999J0D01*
G01*
X59135001Y-49100000D01*
G75*
G02*
X59385000Y-49349999I0J-249999D01*
G01*
X59385000Y-52250001D01*
G75*
G02*
X59135001Y-52500000I-249999J0D01*
G01*
X58334999Y-52500000D01*
G75*
G02*
X58085000Y-52250001I0J249999D01*
G01*
G37*
%TD*%
%TO.C,C1*%
G36*
G01*
X53159998Y-49610000D02*
X56060002Y-49610000D01*
G75*
G02*
X56310000Y-49859998I0J-249998D01*
G01*
X56310000Y-50935002D01*
G75*
G02*
X56060002Y-51185000I-249998J0D01*
G01*
X53159998Y-51185000D01*
G75*
G02*
X52910000Y-50935002I0J249998D01*
G01*
X52910000Y-49859998D01*
G75*
G02*
X53159998Y-49610000I249998J0D01*
G01*
G37*
G36*
G01*
X53159998Y-45335000D02*
X56060002Y-45335000D01*
G75*
G02*
X56310000Y-45584998I0J-249998D01*
G01*
X56310000Y-46660002D01*
G75*
G02*
X56060002Y-46910000I-249998J0D01*
G01*
X53159998Y-46910000D01*
G75*
G02*
X52910000Y-46660002I0J249998D01*
G01*
X52910000Y-45584998D01*
G75*
G02*
X53159998Y-45335000I249998J0D01*
G01*
G37*
%TD*%
%TO.C,C2*%
G36*
G01*
X135970000Y-108130002D02*
X135970000Y-105229998D01*
G75*
G02*
X136219998Y-104980000I249998J0D01*
G01*
X137295002Y-104980000D01*
G75*
G02*
X137545000Y-105229998I0J-249998D01*
G01*
X137545000Y-108130002D01*
G75*
G02*
X137295002Y-108380000I-249998J0D01*
G01*
X136219998Y-108380000D01*
G75*
G02*
X135970000Y-108130002I0J249998D01*
G01*
G37*
G36*
G01*
X131695000Y-108130002D02*
X131695000Y-105229998D01*
G75*
G02*
X131944998Y-104980000I249998J0D01*
G01*
X133020002Y-104980000D01*
G75*
G02*
X133270000Y-105229998I0J-249998D01*
G01*
X133270000Y-108130002D01*
G75*
G02*
X133020002Y-108380000I-249998J0D01*
G01*
X131944998Y-108380000D01*
G75*
G02*
X131695000Y-108130002I0J249998D01*
G01*
G37*
%TD*%
%TO.C,J4*%
G36*
G01*
X137750000Y-103299999D02*
X137750000Y-99900001D01*
G75*
G02*
X138000001Y-99650000I250001J0D01*
G01*
X141399999Y-99650000D01*
G75*
G02*
X141650000Y-99900001I0J-250001D01*
G01*
X141650000Y-103299999D01*
G75*
G02*
X141399999Y-103550000I-250001J0D01*
G01*
X138000001Y-103550000D01*
G75*
G02*
X137750000Y-103299999I0J250001D01*
G01*
G37*
%TD*%
%TO.C,J3*%
G36*
G01*
X55039999Y-57830000D02*
X51640001Y-57830000D01*
G75*
G02*
X51390000Y-57579999I0J250001D01*
G01*
X51390000Y-54180001D01*
G75*
G02*
X51640001Y-53930000I250001J0D01*
G01*
X55039999Y-53930000D01*
G75*
G02*
X55290000Y-54180001I0J-250001D01*
G01*
X55290000Y-57579999D01*
G75*
G02*
X55039999Y-57830000I-250001J0D01*
G01*
G37*
%TD*%
%TO.C,R1*%
G36*
G01*
X60250000Y-34484999D02*
X60250000Y-36635001D01*
G75*
G02*
X60000001Y-36885000I-249999J0D01*
G01*
X59099999Y-36885000D01*
G75*
G02*
X58850000Y-36635001I0J249999D01*
G01*
X58850000Y-34484999D01*
G75*
G02*
X59099999Y-34235000I249999J0D01*
G01*
X60000001Y-34235000D01*
G75*
G02*
X60250000Y-34484999I0J-249999D01*
G01*
G37*
G36*
G01*
X55450000Y-34484999D02*
X55450000Y-36635001D01*
G75*
G02*
X55200001Y-36885000I-249999J0D01*
G01*
X54299999Y-36885000D01*
G75*
G02*
X54050000Y-36635001I0J249999D01*
G01*
X54050000Y-34484999D01*
G75*
G02*
X54299999Y-34235000I249999J0D01*
G01*
X55200001Y-34235000D01*
G75*
G02*
X55450000Y-34484999I0J-249999D01*
G01*
G37*
%TD*%
%TO.C,R2*%
G36*
G01*
X55450000Y-39564999D02*
X55450000Y-41715001D01*
G75*
G02*
X55200001Y-41965000I-249999J0D01*
G01*
X54299999Y-41965000D01*
G75*
G02*
X54050000Y-41715001I0J249999D01*
G01*
X54050000Y-39564999D01*
G75*
G02*
X54299999Y-39315000I249999J0D01*
G01*
X55200001Y-39315000D01*
G75*
G02*
X55450000Y-39564999I0J-249999D01*
G01*
G37*
G36*
G01*
X60250000Y-39564999D02*
X60250000Y-41715001D01*
G75*
G02*
X60000001Y-41965000I-249999J0D01*
G01*
X59099999Y-41965000D01*
G75*
G02*
X58850000Y-41715001I0J249999D01*
G01*
X58850000Y-39564999D01*
G75*
G02*
X59099999Y-39315000I249999J0D01*
G01*
X60000001Y-39315000D01*
G75*
G02*
X60250000Y-39564999I0J-249999D01*
G01*
G37*
%TD*%
%TO.C,R3*%
G36*
G01*
X138235001Y-112600000D02*
X136084999Y-112600000D01*
G75*
G02*
X135835000Y-112350001I0J249999D01*
G01*
X135835000Y-111449999D01*
G75*
G02*
X136084999Y-111200000I249999J0D01*
G01*
X138235001Y-111200000D01*
G75*
G02*
X138485000Y-111449999I0J-249999D01*
G01*
X138485000Y-112350001D01*
G75*
G02*
X138235001Y-112600000I-249999J0D01*
G01*
G37*
G36*
G01*
X138235001Y-117400000D02*
X136084999Y-117400000D01*
G75*
G02*
X135835000Y-117150001I0J249999D01*
G01*
X135835000Y-116249999D01*
G75*
G02*
X136084999Y-116000000I249999J0D01*
G01*
X138235001Y-116000000D01*
G75*
G02*
X138485000Y-116249999I0J-249999D01*
G01*
X138485000Y-117150001D01*
G75*
G02*
X138235001Y-117400000I-249999J0D01*
G01*
G37*
%TD*%
%TO.C,R4*%
G36*
G01*
X143315001Y-117400000D02*
X141164999Y-117400000D01*
G75*
G02*
X140915000Y-117150001I0J249999D01*
G01*
X140915000Y-116249999D01*
G75*
G02*
X141164999Y-116000000I249999J0D01*
G01*
X143315001Y-116000000D01*
G75*
G02*
X143565000Y-116249999I0J-249999D01*
G01*
X143565000Y-117150001D01*
G75*
G02*
X143315001Y-117400000I-249999J0D01*
G01*
G37*
G36*
G01*
X143315001Y-112600000D02*
X141164999Y-112600000D01*
G75*
G02*
X140915000Y-112350001I0J249999D01*
G01*
X140915000Y-111449999D01*
G75*
G02*
X141164999Y-111200000I249999J0D01*
G01*
X143315001Y-111200000D01*
G75*
G02*
X143565000Y-111449999I0J-249999D01*
G01*
X143565000Y-112350001D01*
G75*
G02*
X143315001Y-112600000I-249999J0D01*
G01*
G37*
%TD*%
M02*
