%FSLAX45Y45*%
G04 Gerber Fmt 4.5, Leading zero omitted, Abs format (unit mm)*
G04 Created by KiCad (PCBNEW (5.1.12)-1) date 2021-11-29 17:29:29*
%MOMM*%
%LPD*%
G01*
G04 APERTURE LIST*
%TA.AperFunction,Profile*%
%ADD10C,0.050000*%
%TD*%
%ADD11C,0.200000*%
%ADD12C,0.300000*%
G04 APERTURE END LIST*
D10*
X14986000Y-12192000D02*
X14986000Y-2540000D01*
X5080000Y-12192000D02*
X14986000Y-12192000D01*
X15036800Y-2540000D02*
X15240000Y-2540000D01*
X15036800Y-2540000D02*
X5080000Y-2540000D01*
X5080000Y-2540000D02*
X5080000Y-12192000D01*
D11*
X5302250Y-3778250D02*
X5365750Y-3841750D01*
X5365750Y-3778250D02*
X5302250Y-3841750D01*
X5302250Y-4286250D02*
X5365750Y-4349750D01*
X5365750Y-4286250D02*
X5302250Y-4349750D01*
X10128250Y-5302250D02*
X10191750Y-5365750D01*
X10191750Y-5302250D02*
X10128250Y-5365750D01*
X10128250Y-9366250D02*
X10191750Y-9429750D01*
X10191750Y-9366250D02*
X10128250Y-9429750D01*
X13952250Y-10904250D02*
X14015750Y-10967750D01*
X14015750Y-10904250D02*
X13952250Y-10967750D01*
X14446250Y-10382250D02*
X14509750Y-10445750D01*
X14509750Y-10382250D02*
X14446250Y-10445750D01*
X5459000Y-5588000D02*
G75*
G03*
X5459000Y-5588000I-125000J0D01*
G01*
X5586000Y-11811000D02*
G75*
G03*
X5586000Y-11811000I-125000J0D01*
G01*
X14095000Y-10160000D02*
G75*
G03*
X14095000Y-10160000I-125000J0D01*
G01*
X14730000Y-2921000D02*
G75*
G03*
X14730000Y-2921000I-125000J0D01*
G01*
D12*
X5363928Y-12660214D02*
X5363928Y-12360214D01*
X5435357Y-12360214D01*
X5478214Y-12374500D01*
X5506786Y-12403071D01*
X5521071Y-12431643D01*
X5535357Y-12488786D01*
X5535357Y-12531643D01*
X5521071Y-12588786D01*
X5506786Y-12617357D01*
X5478214Y-12645929D01*
X5435357Y-12660214D01*
X5363928Y-12660214D01*
X5663928Y-12660214D02*
X5663928Y-12460214D01*
X5663928Y-12517357D02*
X5678214Y-12488786D01*
X5692500Y-12474500D01*
X5721071Y-12460214D01*
X5749643Y-12460214D01*
X5849643Y-12660214D02*
X5849643Y-12460214D01*
X5849643Y-12360214D02*
X5835357Y-12374500D01*
X5849643Y-12388786D01*
X5863928Y-12374500D01*
X5849643Y-12360214D01*
X5849643Y-12388786D01*
X6035357Y-12660214D02*
X6006786Y-12645929D01*
X5992500Y-12617357D01*
X5992500Y-12360214D01*
X6192500Y-12660214D02*
X6163928Y-12645929D01*
X6149643Y-12617357D01*
X6149643Y-12360214D01*
X6535357Y-12660214D02*
X6535357Y-12360214D01*
X6635357Y-12574500D01*
X6735357Y-12360214D01*
X6735357Y-12660214D01*
X7006786Y-12660214D02*
X7006786Y-12503071D01*
X6992500Y-12474500D01*
X6963928Y-12460214D01*
X6906786Y-12460214D01*
X6878214Y-12474500D01*
X7006786Y-12645929D02*
X6978214Y-12660214D01*
X6906786Y-12660214D01*
X6878214Y-12645929D01*
X6863928Y-12617357D01*
X6863928Y-12588786D01*
X6878214Y-12560214D01*
X6906786Y-12545929D01*
X6978214Y-12545929D01*
X7006786Y-12531643D01*
X7149643Y-12460214D02*
X7149643Y-12760214D01*
X7149643Y-12474500D02*
X7178214Y-12460214D01*
X7235357Y-12460214D01*
X7263928Y-12474500D01*
X7278214Y-12488786D01*
X7292500Y-12517357D01*
X7292500Y-12603071D01*
X7278214Y-12631643D01*
X7263928Y-12645929D01*
X7235357Y-12660214D01*
X7178214Y-12660214D01*
X7149643Y-12645929D01*
X7421071Y-12631643D02*
X7435357Y-12645929D01*
X7421071Y-12660214D01*
X7406786Y-12645929D01*
X7421071Y-12631643D01*
X7421071Y-12660214D01*
X7421071Y-12474500D02*
X7435357Y-12488786D01*
X7421071Y-12503071D01*
X7406786Y-12488786D01*
X7421071Y-12474500D01*
X7421071Y-12503071D01*
X5014000Y-13122750D02*
X5077500Y-13186250D01*
X5077500Y-13122750D02*
X5014000Y-13186250D01*
X5421071Y-12990214D02*
X5449643Y-12990214D01*
X5478214Y-13004500D01*
X5492500Y-13018786D01*
X5506786Y-13047357D01*
X5521071Y-13104500D01*
X5521071Y-13175929D01*
X5506786Y-13233071D01*
X5492500Y-13261643D01*
X5478214Y-13275929D01*
X5449643Y-13290214D01*
X5421071Y-13290214D01*
X5392500Y-13275929D01*
X5378214Y-13261643D01*
X5363928Y-13233071D01*
X5349643Y-13175929D01*
X5349643Y-13104500D01*
X5363928Y-13047357D01*
X5378214Y-13018786D01*
X5392500Y-13004500D01*
X5421071Y-12990214D01*
X5649643Y-13261643D02*
X5663928Y-13275929D01*
X5649643Y-13290214D01*
X5635357Y-13275929D01*
X5649643Y-13261643D01*
X5649643Y-13290214D01*
X5921071Y-12990214D02*
X5863928Y-12990214D01*
X5835357Y-13004500D01*
X5821071Y-13018786D01*
X5792500Y-13061643D01*
X5778214Y-13118786D01*
X5778214Y-13233071D01*
X5792500Y-13261643D01*
X5806786Y-13275929D01*
X5835357Y-13290214D01*
X5892500Y-13290214D01*
X5921071Y-13275929D01*
X5935357Y-13261643D01*
X5949643Y-13233071D01*
X5949643Y-13161643D01*
X5935357Y-13133071D01*
X5921071Y-13118786D01*
X5892500Y-13104500D01*
X5835357Y-13104500D01*
X5806786Y-13118786D01*
X5792500Y-13133071D01*
X5778214Y-13161643D01*
X6049643Y-12990214D02*
X6235357Y-12990214D01*
X6135357Y-13104500D01*
X6178214Y-13104500D01*
X6206786Y-13118786D01*
X6221071Y-13133071D01*
X6235357Y-13161643D01*
X6235357Y-13233071D01*
X6221071Y-13261643D01*
X6206786Y-13275929D01*
X6178214Y-13290214D01*
X6092500Y-13290214D01*
X6063928Y-13275929D01*
X6049643Y-13261643D01*
X6506786Y-12990214D02*
X6363928Y-12990214D01*
X6349643Y-13133071D01*
X6363928Y-13118786D01*
X6392500Y-13104500D01*
X6463928Y-13104500D01*
X6492500Y-13118786D01*
X6506786Y-13133071D01*
X6521071Y-13161643D01*
X6521071Y-13233071D01*
X6506786Y-13261643D01*
X6492500Y-13275929D01*
X6463928Y-13290214D01*
X6392500Y-13290214D01*
X6363928Y-13275929D01*
X6349643Y-13261643D01*
X6649643Y-13290214D02*
X6649643Y-13090214D01*
X6649643Y-13118786D02*
X6663928Y-13104500D01*
X6692500Y-13090214D01*
X6735357Y-13090214D01*
X6763928Y-13104500D01*
X6778214Y-13133071D01*
X6778214Y-13290214D01*
X6778214Y-13133071D02*
X6792500Y-13104500D01*
X6821071Y-13090214D01*
X6863928Y-13090214D01*
X6892500Y-13104500D01*
X6906786Y-13133071D01*
X6906786Y-13290214D01*
X7049643Y-13290214D02*
X7049643Y-13090214D01*
X7049643Y-13118786D02*
X7063928Y-13104500D01*
X7092500Y-13090214D01*
X7135357Y-13090214D01*
X7163928Y-13104500D01*
X7178214Y-13133071D01*
X7178214Y-13290214D01*
X7178214Y-13133071D02*
X7192500Y-13104500D01*
X7221071Y-13090214D01*
X7263928Y-13090214D01*
X7292500Y-13104500D01*
X7306786Y-13133071D01*
X7306786Y-13290214D01*
X7892500Y-12975929D02*
X7635357Y-13361643D01*
X8278214Y-12990214D02*
X8306786Y-12990214D01*
X8335357Y-13004500D01*
X8349643Y-13018786D01*
X8363928Y-13047357D01*
X8378214Y-13104500D01*
X8378214Y-13175929D01*
X8363928Y-13233071D01*
X8349643Y-13261643D01*
X8335357Y-13275929D01*
X8306786Y-13290214D01*
X8278214Y-13290214D01*
X8249643Y-13275929D01*
X8235357Y-13261643D01*
X8221071Y-13233071D01*
X8206786Y-13175929D01*
X8206786Y-13104500D01*
X8221071Y-13047357D01*
X8235357Y-13018786D01*
X8249643Y-13004500D01*
X8278214Y-12990214D01*
X8506786Y-13261643D02*
X8521071Y-13275929D01*
X8506786Y-13290214D01*
X8492500Y-13275929D01*
X8506786Y-13261643D01*
X8506786Y-13290214D01*
X8706786Y-12990214D02*
X8735357Y-12990214D01*
X8763928Y-13004500D01*
X8778214Y-13018786D01*
X8792500Y-13047357D01*
X8806786Y-13104500D01*
X8806786Y-13175929D01*
X8792500Y-13233071D01*
X8778214Y-13261643D01*
X8763928Y-13275929D01*
X8735357Y-13290214D01*
X8706786Y-13290214D01*
X8678214Y-13275929D01*
X8663928Y-13261643D01*
X8649643Y-13233071D01*
X8635357Y-13175929D01*
X8635357Y-13104500D01*
X8649643Y-13047357D01*
X8663928Y-13018786D01*
X8678214Y-13004500D01*
X8706786Y-12990214D01*
X8921071Y-13018786D02*
X8935357Y-13004500D01*
X8963928Y-12990214D01*
X9035357Y-12990214D01*
X9063928Y-13004500D01*
X9078214Y-13018786D01*
X9092500Y-13047357D01*
X9092500Y-13075929D01*
X9078214Y-13118786D01*
X8906786Y-13290214D01*
X9092500Y-13290214D01*
X9363928Y-12990214D02*
X9221071Y-12990214D01*
X9206786Y-13133071D01*
X9221071Y-13118786D01*
X9249643Y-13104500D01*
X9321071Y-13104500D01*
X9349643Y-13118786D01*
X9363928Y-13133071D01*
X9378214Y-13161643D01*
X9378214Y-13233071D01*
X9363928Y-13261643D01*
X9349643Y-13275929D01*
X9321071Y-13290214D01*
X9249643Y-13290214D01*
X9221071Y-13275929D01*
X9206786Y-13261643D01*
X9563928Y-12990214D02*
X9592500Y-12990214D01*
X9621071Y-13004500D01*
X9635357Y-13018786D01*
X9649643Y-13047357D01*
X9663928Y-13104500D01*
X9663928Y-13175929D01*
X9649643Y-13233071D01*
X9635357Y-13261643D01*
X9621071Y-13275929D01*
X9592500Y-13290214D01*
X9563928Y-13290214D01*
X9535357Y-13275929D01*
X9521071Y-13261643D01*
X9506786Y-13233071D01*
X9492500Y-13175929D01*
X9492500Y-13104500D01*
X9506786Y-13047357D01*
X9521071Y-13018786D01*
X9535357Y-13004500D01*
X9563928Y-12990214D01*
X9778214Y-12990214D02*
X9778214Y-13047357D01*
X9892500Y-12990214D02*
X9892500Y-13047357D01*
X10335357Y-13404500D02*
X10321071Y-13390214D01*
X10292500Y-13347357D01*
X10278214Y-13318786D01*
X10263928Y-13275929D01*
X10249643Y-13204500D01*
X10249643Y-13147357D01*
X10263928Y-13075929D01*
X10278214Y-13033071D01*
X10292500Y-13004500D01*
X10321071Y-12961643D01*
X10335357Y-12947357D01*
X10578214Y-12990214D02*
X10521071Y-12990214D01*
X10492500Y-13004500D01*
X10478214Y-13018786D01*
X10449643Y-13061643D01*
X10435357Y-13118786D01*
X10435357Y-13233071D01*
X10449643Y-13261643D01*
X10463928Y-13275929D01*
X10492500Y-13290214D01*
X10549643Y-13290214D01*
X10578214Y-13275929D01*
X10592500Y-13261643D01*
X10606786Y-13233071D01*
X10606786Y-13161643D01*
X10592500Y-13133071D01*
X10578214Y-13118786D01*
X10549643Y-13104500D01*
X10492500Y-13104500D01*
X10463928Y-13118786D01*
X10449643Y-13133071D01*
X10435357Y-13161643D01*
X10963928Y-13290214D02*
X10963928Y-12990214D01*
X11092500Y-13290214D02*
X11092500Y-13133071D01*
X11078214Y-13104500D01*
X11049643Y-13090214D01*
X11006786Y-13090214D01*
X10978214Y-13104500D01*
X10963928Y-13118786D01*
X11278214Y-13290214D02*
X11249643Y-13275929D01*
X11235357Y-13261643D01*
X11221071Y-13233071D01*
X11221071Y-13147357D01*
X11235357Y-13118786D01*
X11249643Y-13104500D01*
X11278214Y-13090214D01*
X11321071Y-13090214D01*
X11349643Y-13104500D01*
X11363928Y-13118786D01*
X11378214Y-13147357D01*
X11378214Y-13233071D01*
X11363928Y-13261643D01*
X11349643Y-13275929D01*
X11321071Y-13290214D01*
X11278214Y-13290214D01*
X11549643Y-13290214D02*
X11521071Y-13275929D01*
X11506786Y-13247357D01*
X11506786Y-12990214D01*
X11778214Y-13275929D02*
X11749643Y-13290214D01*
X11692500Y-13290214D01*
X11663928Y-13275929D01*
X11649643Y-13247357D01*
X11649643Y-13133071D01*
X11663928Y-13104500D01*
X11692500Y-13090214D01*
X11749643Y-13090214D01*
X11778214Y-13104500D01*
X11792500Y-13133071D01*
X11792500Y-13161643D01*
X11649643Y-13190214D01*
X11906786Y-13275929D02*
X11935357Y-13290214D01*
X11992500Y-13290214D01*
X12021071Y-13275929D01*
X12035357Y-13247357D01*
X12035357Y-13233071D01*
X12021071Y-13204500D01*
X11992500Y-13190214D01*
X11949643Y-13190214D01*
X11921071Y-13175929D01*
X11906786Y-13147357D01*
X11906786Y-13133071D01*
X11921071Y-13104500D01*
X11949643Y-13090214D01*
X11992500Y-13090214D01*
X12021071Y-13104500D01*
X12135357Y-13404500D02*
X12149643Y-13390214D01*
X12178214Y-13347357D01*
X12192500Y-13318786D01*
X12206786Y-13275929D01*
X12221071Y-13204500D01*
X12221071Y-13147357D01*
X12206786Y-13075929D01*
X12192500Y-13033071D01*
X12178214Y-13004500D01*
X12149643Y-12961643D01*
X12135357Y-12947357D01*
X5077500Y-13550500D02*
G75*
G03*
X5077500Y-13550500I-125000J0D01*
G01*
X5349643Y-13414786D02*
X5363928Y-13400500D01*
X5392500Y-13386214D01*
X5463928Y-13386214D01*
X5492500Y-13400500D01*
X5506786Y-13414786D01*
X5521071Y-13443357D01*
X5521071Y-13471929D01*
X5506786Y-13514786D01*
X5335357Y-13686214D01*
X5521071Y-13686214D01*
X5649643Y-13657643D02*
X5663928Y-13671929D01*
X5649643Y-13686214D01*
X5635357Y-13671929D01*
X5649643Y-13657643D01*
X5649643Y-13686214D01*
X5935357Y-13386214D02*
X5792500Y-13386214D01*
X5778214Y-13529071D01*
X5792500Y-13514786D01*
X5821071Y-13500500D01*
X5892500Y-13500500D01*
X5921071Y-13514786D01*
X5935357Y-13529071D01*
X5949643Y-13557643D01*
X5949643Y-13629071D01*
X5935357Y-13657643D01*
X5921071Y-13671929D01*
X5892500Y-13686214D01*
X5821071Y-13686214D01*
X5792500Y-13671929D01*
X5778214Y-13657643D01*
X6135357Y-13386214D02*
X6163928Y-13386214D01*
X6192500Y-13400500D01*
X6206786Y-13414786D01*
X6221071Y-13443357D01*
X6235357Y-13500500D01*
X6235357Y-13571929D01*
X6221071Y-13629071D01*
X6206786Y-13657643D01*
X6192500Y-13671929D01*
X6163928Y-13686214D01*
X6135357Y-13686214D01*
X6106786Y-13671929D01*
X6092500Y-13657643D01*
X6078214Y-13629071D01*
X6063928Y-13571929D01*
X6063928Y-13500500D01*
X6078214Y-13443357D01*
X6092500Y-13414786D01*
X6106786Y-13400500D01*
X6135357Y-13386214D01*
X6421071Y-13386214D02*
X6449643Y-13386214D01*
X6478214Y-13400500D01*
X6492500Y-13414786D01*
X6506786Y-13443357D01*
X6521071Y-13500500D01*
X6521071Y-13571929D01*
X6506786Y-13629071D01*
X6492500Y-13657643D01*
X6478214Y-13671929D01*
X6449643Y-13686214D01*
X6421071Y-13686214D01*
X6392500Y-13671929D01*
X6378214Y-13657643D01*
X6363928Y-13629071D01*
X6349643Y-13571929D01*
X6349643Y-13500500D01*
X6363928Y-13443357D01*
X6378214Y-13414786D01*
X6392500Y-13400500D01*
X6421071Y-13386214D01*
X6649643Y-13686214D02*
X6649643Y-13486214D01*
X6649643Y-13514786D02*
X6663928Y-13500500D01*
X6692500Y-13486214D01*
X6735357Y-13486214D01*
X6763928Y-13500500D01*
X6778214Y-13529071D01*
X6778214Y-13686214D01*
X6778214Y-13529071D02*
X6792500Y-13500500D01*
X6821071Y-13486214D01*
X6863928Y-13486214D01*
X6892500Y-13500500D01*
X6906786Y-13529071D01*
X6906786Y-13686214D01*
X7049643Y-13686214D02*
X7049643Y-13486214D01*
X7049643Y-13514786D02*
X7063928Y-13500500D01*
X7092500Y-13486214D01*
X7135357Y-13486214D01*
X7163928Y-13500500D01*
X7178214Y-13529071D01*
X7178214Y-13686214D01*
X7178214Y-13529071D02*
X7192500Y-13500500D01*
X7221071Y-13486214D01*
X7263928Y-13486214D01*
X7292500Y-13500500D01*
X7306786Y-13529071D01*
X7306786Y-13686214D01*
X7892500Y-13371929D02*
X7635357Y-13757643D01*
X8278214Y-13386214D02*
X8306786Y-13386214D01*
X8335357Y-13400500D01*
X8349643Y-13414786D01*
X8363928Y-13443357D01*
X8378214Y-13500500D01*
X8378214Y-13571929D01*
X8363928Y-13629071D01*
X8349643Y-13657643D01*
X8335357Y-13671929D01*
X8306786Y-13686214D01*
X8278214Y-13686214D01*
X8249643Y-13671929D01*
X8235357Y-13657643D01*
X8221071Y-13629071D01*
X8206786Y-13571929D01*
X8206786Y-13500500D01*
X8221071Y-13443357D01*
X8235357Y-13414786D01*
X8249643Y-13400500D01*
X8278214Y-13386214D01*
X8506786Y-13657643D02*
X8521071Y-13671929D01*
X8506786Y-13686214D01*
X8492500Y-13671929D01*
X8506786Y-13657643D01*
X8506786Y-13686214D01*
X8706786Y-13386214D02*
X8735357Y-13386214D01*
X8763928Y-13400500D01*
X8778214Y-13414786D01*
X8792500Y-13443357D01*
X8806786Y-13500500D01*
X8806786Y-13571929D01*
X8792500Y-13629071D01*
X8778214Y-13657643D01*
X8763928Y-13671929D01*
X8735357Y-13686214D01*
X8706786Y-13686214D01*
X8678214Y-13671929D01*
X8663928Y-13657643D01*
X8649643Y-13629071D01*
X8635357Y-13571929D01*
X8635357Y-13500500D01*
X8649643Y-13443357D01*
X8663928Y-13414786D01*
X8678214Y-13400500D01*
X8706786Y-13386214D01*
X8949643Y-13686214D02*
X9006786Y-13686214D01*
X9035357Y-13671929D01*
X9049643Y-13657643D01*
X9078214Y-13614786D01*
X9092500Y-13557643D01*
X9092500Y-13443357D01*
X9078214Y-13414786D01*
X9063928Y-13400500D01*
X9035357Y-13386214D01*
X8978214Y-13386214D01*
X8949643Y-13400500D01*
X8935357Y-13414786D01*
X8921071Y-13443357D01*
X8921071Y-13514786D01*
X8935357Y-13543357D01*
X8949643Y-13557643D01*
X8978214Y-13571929D01*
X9035357Y-13571929D01*
X9063928Y-13557643D01*
X9078214Y-13543357D01*
X9092500Y-13514786D01*
X9263928Y-13514786D02*
X9235357Y-13500500D01*
X9221071Y-13486214D01*
X9206786Y-13457643D01*
X9206786Y-13443357D01*
X9221071Y-13414786D01*
X9235357Y-13400500D01*
X9263928Y-13386214D01*
X9321071Y-13386214D01*
X9349643Y-13400500D01*
X9363928Y-13414786D01*
X9378214Y-13443357D01*
X9378214Y-13457643D01*
X9363928Y-13486214D01*
X9349643Y-13500500D01*
X9321071Y-13514786D01*
X9263928Y-13514786D01*
X9235357Y-13529071D01*
X9221071Y-13543357D01*
X9206786Y-13571929D01*
X9206786Y-13629071D01*
X9221071Y-13657643D01*
X9235357Y-13671929D01*
X9263928Y-13686214D01*
X9321071Y-13686214D01*
X9349643Y-13671929D01*
X9363928Y-13657643D01*
X9378214Y-13629071D01*
X9378214Y-13571929D01*
X9363928Y-13543357D01*
X9349643Y-13529071D01*
X9321071Y-13514786D01*
X9635357Y-13486214D02*
X9635357Y-13686214D01*
X9563928Y-13371929D02*
X9492500Y-13586214D01*
X9678214Y-13586214D01*
X9778214Y-13386214D02*
X9778214Y-13443357D01*
X9892500Y-13386214D02*
X9892500Y-13443357D01*
X10335357Y-13800500D02*
X10321071Y-13786214D01*
X10292500Y-13743357D01*
X10278214Y-13714786D01*
X10263928Y-13671929D01*
X10249643Y-13600500D01*
X10249643Y-13543357D01*
X10263928Y-13471929D01*
X10278214Y-13429071D01*
X10292500Y-13400500D01*
X10321071Y-13357643D01*
X10335357Y-13343357D01*
X10578214Y-13486214D02*
X10578214Y-13686214D01*
X10506786Y-13371929D02*
X10435357Y-13586214D01*
X10621071Y-13586214D01*
X10963928Y-13686214D02*
X10963928Y-13386214D01*
X11092500Y-13686214D02*
X11092500Y-13529071D01*
X11078214Y-13500500D01*
X11049643Y-13486214D01*
X11006786Y-13486214D01*
X10978214Y-13500500D01*
X10963928Y-13514786D01*
X11278214Y-13686214D02*
X11249643Y-13671929D01*
X11235357Y-13657643D01*
X11221071Y-13629071D01*
X11221071Y-13543357D01*
X11235357Y-13514786D01*
X11249643Y-13500500D01*
X11278214Y-13486214D01*
X11321071Y-13486214D01*
X11349643Y-13500500D01*
X11363928Y-13514786D01*
X11378214Y-13543357D01*
X11378214Y-13629071D01*
X11363928Y-13657643D01*
X11349643Y-13671929D01*
X11321071Y-13686214D01*
X11278214Y-13686214D01*
X11549643Y-13686214D02*
X11521071Y-13671929D01*
X11506786Y-13643357D01*
X11506786Y-13386214D01*
X11778214Y-13671929D02*
X11749643Y-13686214D01*
X11692500Y-13686214D01*
X11663928Y-13671929D01*
X11649643Y-13643357D01*
X11649643Y-13529071D01*
X11663928Y-13500500D01*
X11692500Y-13486214D01*
X11749643Y-13486214D01*
X11778214Y-13500500D01*
X11792500Y-13529071D01*
X11792500Y-13557643D01*
X11649643Y-13586214D01*
X11906786Y-13671929D02*
X11935357Y-13686214D01*
X11992500Y-13686214D01*
X12021071Y-13671929D01*
X12035357Y-13643357D01*
X12035357Y-13629071D01*
X12021071Y-13600500D01*
X11992500Y-13586214D01*
X11949643Y-13586214D01*
X11921071Y-13571929D01*
X11906786Y-13543357D01*
X11906786Y-13529071D01*
X11921071Y-13500500D01*
X11949643Y-13486214D01*
X11992500Y-13486214D01*
X12021071Y-13500500D01*
X12135357Y-13800500D02*
X12149643Y-13786214D01*
X12178214Y-13743357D01*
X12192500Y-13714786D01*
X12206786Y-13671929D01*
X12221071Y-13600500D01*
X12221071Y-13543357D01*
X12206786Y-13471929D01*
X12192500Y-13429071D01*
X12178214Y-13400500D01*
X12149643Y-13357643D01*
X12135357Y-13343357D01*
M02*
