%TF.GenerationSoftware,KiCad,Pcbnew,(5.1.12)-1*%
%TF.CreationDate,2021-11-29T17:29:34+10:30*%
%TF.ProjectId,SWR_02,5357525f-3032-42e6-9b69-6361645f7063,1*%
%TF.SameCoordinates,Original*%
%TF.FileFunction,Paste,Top*%
%TF.FilePolarity,Positive*%
%FSLAX46Y46*%
G04 Gerber Fmt 4.6, Leading zero omitted, Abs format (unit mm)*
G04 Created by KiCad (PCBNEW (5.1.12)-1) date 2021-11-29 17:29:34*
%MOMM*%
%LPD*%
G01*
G04 APERTURE LIST*
G04 APERTURE END LIST*
%TO.C,D2*%
G36*
G01*
X130630000Y-115875000D02*
X133530000Y-115875000D01*
G75*
G02*
X133780000Y-116125000I0J-250000D01*
G01*
X133780000Y-116925000D01*
G75*
G02*
X133530000Y-117175000I-250000J0D01*
G01*
X130630000Y-117175000D01*
G75*
G02*
X130380000Y-116925000I0J250000D01*
G01*
X130380000Y-116125000D01*
G75*
G02*
X130630000Y-115875000I250000J0D01*
G01*
G37*
G36*
G01*
X130630000Y-111425000D02*
X133530000Y-111425000D01*
G75*
G02*
X133780000Y-111675000I0J-250000D01*
G01*
X133780000Y-112475000D01*
G75*
G02*
X133530000Y-112725000I-250000J0D01*
G01*
X130630000Y-112725000D01*
G75*
G02*
X130380000Y-112475000I0J250000D01*
G01*
X130380000Y-111675000D01*
G75*
G02*
X130630000Y-111425000I250000J0D01*
G01*
G37*
%TD*%
%TO.C,D1*%
G36*
G01*
X62535000Y-52250000D02*
X62535000Y-49350000D01*
G75*
G02*
X62785000Y-49100000I250000J0D01*
G01*
X63585000Y-49100000D01*
G75*
G02*
X63835000Y-49350000I0J-250000D01*
G01*
X63835000Y-52250000D01*
G75*
G02*
X63585000Y-52500000I-250000J0D01*
G01*
X62785000Y-52500000D01*
G75*
G02*
X62535000Y-52250000I0J250000D01*
G01*
G37*
G36*
G01*
X58085000Y-52250000D02*
X58085000Y-49350000D01*
G75*
G02*
X58335000Y-49100000I250000J0D01*
G01*
X59135000Y-49100000D01*
G75*
G02*
X59385000Y-49350000I0J-250000D01*
G01*
X59385000Y-52250000D01*
G75*
G02*
X59135000Y-52500000I-250000J0D01*
G01*
X58335000Y-52500000D01*
G75*
G02*
X58085000Y-52250000I0J250000D01*
G01*
G37*
%TD*%
%TO.C,C1*%
G36*
G01*
X53159999Y-49610000D02*
X56060001Y-49610000D01*
G75*
G02*
X56310000Y-49859999I0J-249999D01*
G01*
X56310000Y-50935001D01*
G75*
G02*
X56060001Y-51185000I-249999J0D01*
G01*
X53159999Y-51185000D01*
G75*
G02*
X52910000Y-50935001I0J249999D01*
G01*
X52910000Y-49859999D01*
G75*
G02*
X53159999Y-49610000I249999J0D01*
G01*
G37*
G36*
G01*
X53159999Y-45335000D02*
X56060001Y-45335000D01*
G75*
G02*
X56310000Y-45584999I0J-249999D01*
G01*
X56310000Y-46660001D01*
G75*
G02*
X56060001Y-46910000I-249999J0D01*
G01*
X53159999Y-46910000D01*
G75*
G02*
X52910000Y-46660001I0J249999D01*
G01*
X52910000Y-45584999D01*
G75*
G02*
X53159999Y-45335000I249999J0D01*
G01*
G37*
%TD*%
%TO.C,C2*%
G36*
G01*
X135970000Y-108130001D02*
X135970000Y-105229999D01*
G75*
G02*
X136219999Y-104980000I249999J0D01*
G01*
X137295001Y-104980000D01*
G75*
G02*
X137545000Y-105229999I0J-249999D01*
G01*
X137545000Y-108130001D01*
G75*
G02*
X137295001Y-108380000I-249999J0D01*
G01*
X136219999Y-108380000D01*
G75*
G02*
X135970000Y-108130001I0J249999D01*
G01*
G37*
G36*
G01*
X131695000Y-108130001D02*
X131695000Y-105229999D01*
G75*
G02*
X131944999Y-104980000I249999J0D01*
G01*
X133020001Y-104980000D01*
G75*
G02*
X133270000Y-105229999I0J-249999D01*
G01*
X133270000Y-108130001D01*
G75*
G02*
X133020001Y-108380000I-249999J0D01*
G01*
X131944999Y-108380000D01*
G75*
G02*
X131695000Y-108130001I0J249999D01*
G01*
G37*
%TD*%
%TO.C,R1*%
G36*
G01*
X60250000Y-34484999D02*
X60250000Y-36635001D01*
G75*
G02*
X60000001Y-36885000I-249999J0D01*
G01*
X59099999Y-36885000D01*
G75*
G02*
X58850000Y-36635001I0J249999D01*
G01*
X58850000Y-34484999D01*
G75*
G02*
X59099999Y-34235000I249999J0D01*
G01*
X60000001Y-34235000D01*
G75*
G02*
X60250000Y-34484999I0J-249999D01*
G01*
G37*
G36*
G01*
X55450000Y-34484999D02*
X55450000Y-36635001D01*
G75*
G02*
X55200001Y-36885000I-249999J0D01*
G01*
X54299999Y-36885000D01*
G75*
G02*
X54050000Y-36635001I0J249999D01*
G01*
X54050000Y-34484999D01*
G75*
G02*
X54299999Y-34235000I249999J0D01*
G01*
X55200001Y-34235000D01*
G75*
G02*
X55450000Y-34484999I0J-249999D01*
G01*
G37*
%TD*%
%TO.C,R2*%
G36*
G01*
X55450000Y-39564999D02*
X55450000Y-41715001D01*
G75*
G02*
X55200001Y-41965000I-249999J0D01*
G01*
X54299999Y-41965000D01*
G75*
G02*
X54050000Y-41715001I0J249999D01*
G01*
X54050000Y-39564999D01*
G75*
G02*
X54299999Y-39315000I249999J0D01*
G01*
X55200001Y-39315000D01*
G75*
G02*
X55450000Y-39564999I0J-249999D01*
G01*
G37*
G36*
G01*
X60250000Y-39564999D02*
X60250000Y-41715001D01*
G75*
G02*
X60000001Y-41965000I-249999J0D01*
G01*
X59099999Y-41965000D01*
G75*
G02*
X58850000Y-41715001I0J249999D01*
G01*
X58850000Y-39564999D01*
G75*
G02*
X59099999Y-39315000I249999J0D01*
G01*
X60000001Y-39315000D01*
G75*
G02*
X60250000Y-39564999I0J-249999D01*
G01*
G37*
%TD*%
%TO.C,R3*%
G36*
G01*
X138235001Y-112600000D02*
X136084999Y-112600000D01*
G75*
G02*
X135835000Y-112350001I0J249999D01*
G01*
X135835000Y-111449999D01*
G75*
G02*
X136084999Y-111200000I249999J0D01*
G01*
X138235001Y-111200000D01*
G75*
G02*
X138485000Y-111449999I0J-249999D01*
G01*
X138485000Y-112350001D01*
G75*
G02*
X138235001Y-112600000I-249999J0D01*
G01*
G37*
G36*
G01*
X138235001Y-117400000D02*
X136084999Y-117400000D01*
G75*
G02*
X135835000Y-117150001I0J249999D01*
G01*
X135835000Y-116249999D01*
G75*
G02*
X136084999Y-116000000I249999J0D01*
G01*
X138235001Y-116000000D01*
G75*
G02*
X138485000Y-116249999I0J-249999D01*
G01*
X138485000Y-117150001D01*
G75*
G02*
X138235001Y-117400000I-249999J0D01*
G01*
G37*
%TD*%
%TO.C,R4*%
G36*
G01*
X143315001Y-117400000D02*
X141164999Y-117400000D01*
G75*
G02*
X140915000Y-117150001I0J249999D01*
G01*
X140915000Y-116249999D01*
G75*
G02*
X141164999Y-116000000I249999J0D01*
G01*
X143315001Y-116000000D01*
G75*
G02*
X143565000Y-116249999I0J-249999D01*
G01*
X143565000Y-117150001D01*
G75*
G02*
X143315001Y-117400000I-249999J0D01*
G01*
G37*
G36*
G01*
X143315001Y-112600000D02*
X141164999Y-112600000D01*
G75*
G02*
X140915000Y-112350001I0J249999D01*
G01*
X140915000Y-111449999D01*
G75*
G02*
X141164999Y-111200000I249999J0D01*
G01*
X143315001Y-111200000D01*
G75*
G02*
X143565000Y-111449999I0J-249999D01*
G01*
X143565000Y-112350001D01*
G75*
G02*
X143315001Y-112600000I-249999J0D01*
G01*
G37*
%TD*%
M02*
