%TF.GenerationSoftware,KiCad,Pcbnew,(5.1.12)-1*%
%TF.CreationDate,2021-11-29T19:24:28+10:30*%
%TF.ProjectId,SWR_02,5357525f-3032-42e6-9b69-6361645f7063,2*%
%TF.SameCoordinates,Original*%
%TF.FileFunction,Copper,L2,Bot*%
%TF.FilePolarity,Positive*%
%FSLAX46Y46*%
G04 Gerber Fmt 4.6, Leading zero omitted, Abs format (unit mm)*
G04 Created by KiCad (PCBNEW (5.1.12)-1) date 2021-11-29 19:24:28*
%MOMM*%
%LPD*%
G01*
G04 APERTURE LIST*
%TA.AperFunction,ConnectorPad*%
%ADD10C,5.000000*%
%TD*%
%TA.AperFunction,ComponentPad*%
%ADD11C,2.900000*%
%TD*%
%TA.AperFunction,ViaPad*%
%ADD12C,1.905000*%
%TD*%
%TA.AperFunction,Conductor*%
%ADD13C,0.250000*%
%TD*%
%TA.AperFunction,Conductor*%
%ADD14C,1.092200*%
%TD*%
%TA.AperFunction,Conductor*%
%ADD15C,0.254000*%
%TD*%
%TA.AperFunction,Conductor*%
%ADD16C,0.100000*%
%TD*%
G04 APERTURE END LIST*
%TO.P,J2,2*%
%TO.N,GND*%
%TA.AperFunction,ConnectorPad*%
G36*
G01*
X145986500Y-107315000D02*
X148653500Y-107315000D01*
G75*
G02*
X149606000Y-108267500I0J-952500D01*
G01*
X149606000Y-110172500D01*
G75*
G02*
X148653500Y-111125000I-952500J0D01*
G01*
X145986500Y-111125000D01*
G75*
G02*
X145034000Y-110172500I0J952500D01*
G01*
X145034000Y-108267500D01*
G75*
G02*
X145986500Y-107315000I952500J0D01*
G01*
G37*
%TD.AperFunction*%
%TD*%
%TO.P,J1,2*%
%TO.N,GND*%
%TA.AperFunction,ConnectorPad*%
G36*
G01*
X54673500Y-37465000D02*
X52006500Y-37465000D01*
G75*
G02*
X51054000Y-36512500I0J952500D01*
G01*
X51054000Y-34607500D01*
G75*
G02*
X52006500Y-33655000I952500J0D01*
G01*
X54673500Y-33655000D01*
G75*
G02*
X55626000Y-34607500I0J-952500D01*
G01*
X55626000Y-36512500D01*
G75*
G02*
X54673500Y-37465000I-952500J0D01*
G01*
G37*
%TD.AperFunction*%
%TD*%
D10*
%TO.P,H2,1*%
%TO.N,N/C*%
X54610000Y-118110000D03*
D11*
X54610000Y-118110000D03*
%TD*%
D10*
%TO.P,H1,1*%
%TO.N,N/C*%
X146050000Y-29210000D03*
D11*
X146050000Y-29210000D03*
%TD*%
%TO.P,J4,1*%
%TO.N,/Refl_Out*%
%TA.AperFunction,ComponentPad*%
G36*
G01*
X137750000Y-103299999D02*
X137750000Y-99900001D01*
G75*
G02*
X138000001Y-99650000I250001J0D01*
G01*
X141399999Y-99650000D01*
G75*
G02*
X141650000Y-99900001I0J-250001D01*
G01*
X141650000Y-103299999D01*
G75*
G02*
X141399999Y-103550000I-250001J0D01*
G01*
X138000001Y-103550000D01*
G75*
G02*
X137750000Y-103299999I0J250001D01*
G01*
G37*
%TD.AperFunction*%
%TD*%
%TO.P,J3,1*%
%TO.N,/Fwd_Out*%
%TA.AperFunction,ComponentPad*%
G36*
G01*
X55039999Y-57830000D02*
X51640001Y-57830000D01*
G75*
G02*
X51390000Y-57579999I0J250001D01*
G01*
X51390000Y-54180001D01*
G75*
G02*
X51640001Y-53930000I250001J0D01*
G01*
X55039999Y-53930000D01*
G75*
G02*
X55290000Y-54180001I0J-250001D01*
G01*
X55290000Y-57579999D01*
G75*
G02*
X55039999Y-57830000I-250001J0D01*
G01*
G37*
%TD.AperFunction*%
%TD*%
D12*
%TO.N,GND*%
X53340000Y-38100000D03*
X53340000Y-43180000D03*
X101600000Y-53340000D03*
X139840000Y-109360000D03*
X101600000Y-93980000D03*
X144780000Y-104140000D03*
%TD*%
D13*
%TO.N,GND*%
X131422812Y-105156000D02*
X79098812Y-52832000D01*
X146304000Y-105156000D02*
X131422812Y-105156000D01*
X64516000Y-52832000D02*
X51816000Y-52832000D01*
X79098812Y-52832000D02*
X64516000Y-52832000D01*
D14*
X101600000Y-53340000D02*
X82550000Y-53340000D01*
X82550000Y-53340000D02*
X64770000Y-35560000D01*
X64770000Y-35560000D02*
X53340000Y-35560000D01*
X101600000Y-93980000D02*
X143510000Y-93980000D01*
X143510000Y-93980000D02*
X147320000Y-97790000D01*
X147320000Y-97790000D02*
X147320000Y-109220000D01*
%TD*%
D15*
%TO.N,GND*%
X149200000Y-106677552D02*
X147605750Y-106680000D01*
X147447000Y-106838750D01*
X147447000Y-109093000D01*
X147467000Y-109093000D01*
X147467000Y-109347000D01*
X147447000Y-109347000D01*
X147447000Y-111601250D01*
X147605750Y-111760000D01*
X149200000Y-111762448D01*
X149200000Y-121260000D01*
X51460000Y-121260000D01*
X51460000Y-117801229D01*
X51475000Y-117801229D01*
X51475000Y-118418771D01*
X51595476Y-119024446D01*
X51831799Y-119594979D01*
X52174886Y-120108446D01*
X52611554Y-120545114D01*
X53125021Y-120888201D01*
X53695554Y-121124524D01*
X54301229Y-121245000D01*
X54918771Y-121245000D01*
X55524446Y-121124524D01*
X56094979Y-120888201D01*
X56608446Y-120545114D01*
X57045114Y-120108446D01*
X57388201Y-119594979D01*
X57624524Y-119024446D01*
X57745000Y-118418771D01*
X57745000Y-117801229D01*
X57624524Y-117195554D01*
X57388201Y-116625021D01*
X57045114Y-116111554D01*
X56608446Y-115674886D01*
X56094979Y-115331799D01*
X55524446Y-115095476D01*
X54918771Y-114975000D01*
X54301229Y-114975000D01*
X53695554Y-115095476D01*
X53125021Y-115331799D01*
X52611554Y-115674886D01*
X52174886Y-116111554D01*
X51831799Y-116625021D01*
X51595476Y-117195554D01*
X51475000Y-117801229D01*
X51460000Y-117801229D01*
X51460000Y-111125000D01*
X144395928Y-111125000D01*
X144408188Y-111249482D01*
X144444498Y-111369180D01*
X144503463Y-111479494D01*
X144582815Y-111576185D01*
X144679506Y-111655537D01*
X144789820Y-111714502D01*
X144909518Y-111750812D01*
X145034000Y-111763072D01*
X147034250Y-111760000D01*
X147193000Y-111601250D01*
X147193000Y-109347000D01*
X144557750Y-109347000D01*
X144399000Y-109505750D01*
X144395928Y-111125000D01*
X51460000Y-111125000D01*
X51460000Y-107315000D01*
X144395928Y-107315000D01*
X144399000Y-108934250D01*
X144557750Y-109093000D01*
X147193000Y-109093000D01*
X147193000Y-106838750D01*
X147034250Y-106680000D01*
X145034000Y-106676928D01*
X144909518Y-106689188D01*
X144789820Y-106725498D01*
X144679506Y-106784463D01*
X144582815Y-106863815D01*
X144503463Y-106960506D01*
X144444498Y-107070820D01*
X144408188Y-107190518D01*
X144395928Y-107315000D01*
X51460000Y-107315000D01*
X51460000Y-99900001D01*
X137111928Y-99900001D01*
X137111928Y-103299999D01*
X137128992Y-103473253D01*
X137179529Y-103639850D01*
X137261595Y-103793386D01*
X137372039Y-103927961D01*
X137506614Y-104038405D01*
X137660150Y-104120471D01*
X137826747Y-104171008D01*
X138000001Y-104188072D01*
X141399999Y-104188072D01*
X141573253Y-104171008D01*
X141739850Y-104120471D01*
X141893386Y-104038405D01*
X142027961Y-103927961D01*
X142138405Y-103793386D01*
X142220471Y-103639850D01*
X142271008Y-103473253D01*
X142288072Y-103299999D01*
X142288072Y-99900001D01*
X142271008Y-99726747D01*
X142220471Y-99560150D01*
X142138405Y-99406614D01*
X142027961Y-99272039D01*
X141893386Y-99161595D01*
X141739850Y-99079529D01*
X141573253Y-99028992D01*
X141399999Y-99011928D01*
X138000001Y-99011928D01*
X137826747Y-99028992D01*
X137660150Y-99079529D01*
X137506614Y-99161595D01*
X137372039Y-99272039D01*
X137261595Y-99406614D01*
X137179529Y-99560150D01*
X137128992Y-99726747D01*
X137111928Y-99900001D01*
X51460000Y-99900001D01*
X51460000Y-58448961D01*
X51466747Y-58451008D01*
X51640001Y-58468072D01*
X55039999Y-58468072D01*
X55213253Y-58451008D01*
X55379850Y-58400471D01*
X55533386Y-58318405D01*
X55667961Y-58207961D01*
X55778405Y-58073386D01*
X55860471Y-57919850D01*
X55911008Y-57753253D01*
X55928072Y-57579999D01*
X55928072Y-54180001D01*
X55911008Y-54006747D01*
X55860471Y-53840150D01*
X55778405Y-53686614D01*
X55667961Y-53552039D01*
X55533386Y-53441595D01*
X55379850Y-53359529D01*
X55213253Y-53308992D01*
X55039999Y-53291928D01*
X51640001Y-53291928D01*
X51466747Y-53308992D01*
X51460000Y-53311039D01*
X51460000Y-38102448D01*
X53054250Y-38100000D01*
X53213000Y-37941250D01*
X53213000Y-35687000D01*
X53467000Y-35687000D01*
X53467000Y-37941250D01*
X53625750Y-38100000D01*
X55626000Y-38103072D01*
X55750482Y-38090812D01*
X55870180Y-38054502D01*
X55980494Y-37995537D01*
X56077185Y-37916185D01*
X56156537Y-37819494D01*
X56215502Y-37709180D01*
X56251812Y-37589482D01*
X56264072Y-37465000D01*
X56261000Y-35845750D01*
X56102250Y-35687000D01*
X53467000Y-35687000D01*
X53213000Y-35687000D01*
X53193000Y-35687000D01*
X53193000Y-35433000D01*
X53213000Y-35433000D01*
X53213000Y-33178750D01*
X53467000Y-33178750D01*
X53467000Y-35433000D01*
X56102250Y-35433000D01*
X56261000Y-35274250D01*
X56264072Y-33655000D01*
X56251812Y-33530518D01*
X56215502Y-33410820D01*
X56156537Y-33300506D01*
X56077185Y-33203815D01*
X55980494Y-33124463D01*
X55870180Y-33065498D01*
X55750482Y-33029188D01*
X55626000Y-33016928D01*
X53625750Y-33020000D01*
X53467000Y-33178750D01*
X53213000Y-33178750D01*
X53054250Y-33020000D01*
X51460000Y-33017552D01*
X51460000Y-28901229D01*
X142915000Y-28901229D01*
X142915000Y-29518771D01*
X143035476Y-30124446D01*
X143271799Y-30694979D01*
X143614886Y-31208446D01*
X144051554Y-31645114D01*
X144565021Y-31988201D01*
X145135554Y-32224524D01*
X145741229Y-32345000D01*
X146358771Y-32345000D01*
X146964446Y-32224524D01*
X147534979Y-31988201D01*
X148048446Y-31645114D01*
X148485114Y-31208446D01*
X148828201Y-30694979D01*
X149064524Y-30124446D01*
X149185000Y-29518771D01*
X149185000Y-28901229D01*
X149064524Y-28295554D01*
X148828201Y-27725021D01*
X148485114Y-27211554D01*
X148048446Y-26774886D01*
X147534979Y-26431799D01*
X146964446Y-26195476D01*
X146358771Y-26075000D01*
X145741229Y-26075000D01*
X145135554Y-26195476D01*
X144565021Y-26431799D01*
X144051554Y-26774886D01*
X143614886Y-27211554D01*
X143271799Y-27725021D01*
X143035476Y-28295554D01*
X142915000Y-28901229D01*
X51460000Y-28901229D01*
X51460000Y-26060000D01*
X149200001Y-26060000D01*
X149200000Y-106677552D01*
%TA.AperFunction,Conductor*%
D16*
G36*
X149200000Y-106677552D02*
G01*
X147605750Y-106680000D01*
X147447000Y-106838750D01*
X147447000Y-109093000D01*
X147467000Y-109093000D01*
X147467000Y-109347000D01*
X147447000Y-109347000D01*
X147447000Y-111601250D01*
X147605750Y-111760000D01*
X149200000Y-111762448D01*
X149200000Y-121260000D01*
X51460000Y-121260000D01*
X51460000Y-117801229D01*
X51475000Y-117801229D01*
X51475000Y-118418771D01*
X51595476Y-119024446D01*
X51831799Y-119594979D01*
X52174886Y-120108446D01*
X52611554Y-120545114D01*
X53125021Y-120888201D01*
X53695554Y-121124524D01*
X54301229Y-121245000D01*
X54918771Y-121245000D01*
X55524446Y-121124524D01*
X56094979Y-120888201D01*
X56608446Y-120545114D01*
X57045114Y-120108446D01*
X57388201Y-119594979D01*
X57624524Y-119024446D01*
X57745000Y-118418771D01*
X57745000Y-117801229D01*
X57624524Y-117195554D01*
X57388201Y-116625021D01*
X57045114Y-116111554D01*
X56608446Y-115674886D01*
X56094979Y-115331799D01*
X55524446Y-115095476D01*
X54918771Y-114975000D01*
X54301229Y-114975000D01*
X53695554Y-115095476D01*
X53125021Y-115331799D01*
X52611554Y-115674886D01*
X52174886Y-116111554D01*
X51831799Y-116625021D01*
X51595476Y-117195554D01*
X51475000Y-117801229D01*
X51460000Y-117801229D01*
X51460000Y-111125000D01*
X144395928Y-111125000D01*
X144408188Y-111249482D01*
X144444498Y-111369180D01*
X144503463Y-111479494D01*
X144582815Y-111576185D01*
X144679506Y-111655537D01*
X144789820Y-111714502D01*
X144909518Y-111750812D01*
X145034000Y-111763072D01*
X147034250Y-111760000D01*
X147193000Y-111601250D01*
X147193000Y-109347000D01*
X144557750Y-109347000D01*
X144399000Y-109505750D01*
X144395928Y-111125000D01*
X51460000Y-111125000D01*
X51460000Y-107315000D01*
X144395928Y-107315000D01*
X144399000Y-108934250D01*
X144557750Y-109093000D01*
X147193000Y-109093000D01*
X147193000Y-106838750D01*
X147034250Y-106680000D01*
X145034000Y-106676928D01*
X144909518Y-106689188D01*
X144789820Y-106725498D01*
X144679506Y-106784463D01*
X144582815Y-106863815D01*
X144503463Y-106960506D01*
X144444498Y-107070820D01*
X144408188Y-107190518D01*
X144395928Y-107315000D01*
X51460000Y-107315000D01*
X51460000Y-99900001D01*
X137111928Y-99900001D01*
X137111928Y-103299999D01*
X137128992Y-103473253D01*
X137179529Y-103639850D01*
X137261595Y-103793386D01*
X137372039Y-103927961D01*
X137506614Y-104038405D01*
X137660150Y-104120471D01*
X137826747Y-104171008D01*
X138000001Y-104188072D01*
X141399999Y-104188072D01*
X141573253Y-104171008D01*
X141739850Y-104120471D01*
X141893386Y-104038405D01*
X142027961Y-103927961D01*
X142138405Y-103793386D01*
X142220471Y-103639850D01*
X142271008Y-103473253D01*
X142288072Y-103299999D01*
X142288072Y-99900001D01*
X142271008Y-99726747D01*
X142220471Y-99560150D01*
X142138405Y-99406614D01*
X142027961Y-99272039D01*
X141893386Y-99161595D01*
X141739850Y-99079529D01*
X141573253Y-99028992D01*
X141399999Y-99011928D01*
X138000001Y-99011928D01*
X137826747Y-99028992D01*
X137660150Y-99079529D01*
X137506614Y-99161595D01*
X137372039Y-99272039D01*
X137261595Y-99406614D01*
X137179529Y-99560150D01*
X137128992Y-99726747D01*
X137111928Y-99900001D01*
X51460000Y-99900001D01*
X51460000Y-58448961D01*
X51466747Y-58451008D01*
X51640001Y-58468072D01*
X55039999Y-58468072D01*
X55213253Y-58451008D01*
X55379850Y-58400471D01*
X55533386Y-58318405D01*
X55667961Y-58207961D01*
X55778405Y-58073386D01*
X55860471Y-57919850D01*
X55911008Y-57753253D01*
X55928072Y-57579999D01*
X55928072Y-54180001D01*
X55911008Y-54006747D01*
X55860471Y-53840150D01*
X55778405Y-53686614D01*
X55667961Y-53552039D01*
X55533386Y-53441595D01*
X55379850Y-53359529D01*
X55213253Y-53308992D01*
X55039999Y-53291928D01*
X51640001Y-53291928D01*
X51466747Y-53308992D01*
X51460000Y-53311039D01*
X51460000Y-38102448D01*
X53054250Y-38100000D01*
X53213000Y-37941250D01*
X53213000Y-35687000D01*
X53467000Y-35687000D01*
X53467000Y-37941250D01*
X53625750Y-38100000D01*
X55626000Y-38103072D01*
X55750482Y-38090812D01*
X55870180Y-38054502D01*
X55980494Y-37995537D01*
X56077185Y-37916185D01*
X56156537Y-37819494D01*
X56215502Y-37709180D01*
X56251812Y-37589482D01*
X56264072Y-37465000D01*
X56261000Y-35845750D01*
X56102250Y-35687000D01*
X53467000Y-35687000D01*
X53213000Y-35687000D01*
X53193000Y-35687000D01*
X53193000Y-35433000D01*
X53213000Y-35433000D01*
X53213000Y-33178750D01*
X53467000Y-33178750D01*
X53467000Y-35433000D01*
X56102250Y-35433000D01*
X56261000Y-35274250D01*
X56264072Y-33655000D01*
X56251812Y-33530518D01*
X56215502Y-33410820D01*
X56156537Y-33300506D01*
X56077185Y-33203815D01*
X55980494Y-33124463D01*
X55870180Y-33065498D01*
X55750482Y-33029188D01*
X55626000Y-33016928D01*
X53625750Y-33020000D01*
X53467000Y-33178750D01*
X53213000Y-33178750D01*
X53054250Y-33020000D01*
X51460000Y-33017552D01*
X51460000Y-28901229D01*
X142915000Y-28901229D01*
X142915000Y-29518771D01*
X143035476Y-30124446D01*
X143271799Y-30694979D01*
X143614886Y-31208446D01*
X144051554Y-31645114D01*
X144565021Y-31988201D01*
X145135554Y-32224524D01*
X145741229Y-32345000D01*
X146358771Y-32345000D01*
X146964446Y-32224524D01*
X147534979Y-31988201D01*
X148048446Y-31645114D01*
X148485114Y-31208446D01*
X148828201Y-30694979D01*
X149064524Y-30124446D01*
X149185000Y-29518771D01*
X149185000Y-28901229D01*
X149064524Y-28295554D01*
X148828201Y-27725021D01*
X148485114Y-27211554D01*
X148048446Y-26774886D01*
X147534979Y-26431799D01*
X146964446Y-26195476D01*
X146358771Y-26075000D01*
X145741229Y-26075000D01*
X145135554Y-26195476D01*
X144565021Y-26431799D01*
X144051554Y-26774886D01*
X143614886Y-27211554D01*
X143271799Y-27725021D01*
X143035476Y-28295554D01*
X142915000Y-28901229D01*
X51460000Y-28901229D01*
X51460000Y-26060000D01*
X149200001Y-26060000D01*
X149200000Y-106677552D01*
G37*
%TD.AperFunction*%
%TD*%
M02*
