%TF.GenerationSoftware,KiCad,Pcbnew,(5.1.12)-1*%
%TF.CreationDate,2021-12-02T17:45:38+10:30*%
%TF.ProjectId,SWR_02,5357525f-3032-42e6-9b69-6361645f7063,2*%
%TF.SameCoordinates,Original*%
%TF.FileFunction,Copper,L2,Bot*%
%TF.FilePolarity,Positive*%
%FSLAX46Y46*%
G04 Gerber Fmt 4.6, Leading zero omitted, Abs format (unit mm)*
G04 Created by KiCad (PCBNEW (5.1.12)-1) date 2021-12-02 17:45:38*
%MOMM*%
%LPD*%
G01*
G04 APERTURE LIST*
%TA.AperFunction,ConnectorPad*%
%ADD10C,5.000000*%
%TD*%
%TA.AperFunction,ComponentPad*%
%ADD11C,2.900000*%
%TD*%
%TA.AperFunction,ViaPad*%
%ADD12C,1.905000*%
%TD*%
%TA.AperFunction,Conductor*%
%ADD13C,0.250000*%
%TD*%
%TA.AperFunction,Conductor*%
%ADD14C,1.092200*%
%TD*%
%TA.AperFunction,Conductor*%
%ADD15C,1.016000*%
%TD*%
%TA.AperFunction,Conductor*%
%ADD16C,0.254000*%
%TD*%
%TA.AperFunction,Conductor*%
%ADD17C,0.100000*%
%TD*%
G04 APERTURE END LIST*
%TO.P,J2,2*%
%TO.N,GND*%
%TA.AperFunction,ConnectorPad*%
G36*
G01*
X145986500Y-69215000D02*
X148653500Y-69215000D01*
G75*
G02*
X149606000Y-70167500I0J-952500D01*
G01*
X149606000Y-72072500D01*
G75*
G02*
X148653500Y-73025000I-952500J0D01*
G01*
X145986500Y-73025000D01*
G75*
G02*
X145034000Y-72072500I0J952500D01*
G01*
X145034000Y-70167500D01*
G75*
G02*
X145986500Y-69215000I952500J0D01*
G01*
G37*
%TD.AperFunction*%
%TD*%
%TO.P,J1,2*%
%TO.N,GND*%
%TA.AperFunction,ConnectorPad*%
G36*
G01*
X54673500Y-37465000D02*
X52006500Y-37465000D01*
G75*
G02*
X51054000Y-36512500I0J952500D01*
G01*
X51054000Y-34607500D01*
G75*
G02*
X52006500Y-33655000I952500J0D01*
G01*
X54673500Y-33655000D01*
G75*
G02*
X55626000Y-34607500I0J-952500D01*
G01*
X55626000Y-36512500D01*
G75*
G02*
X54673500Y-37465000I-952500J0D01*
G01*
G37*
%TD.AperFunction*%
%TD*%
D10*
%TO.P,H2,1*%
%TO.N,N/C*%
X54610000Y-111760000D03*
D11*
X54610000Y-111760000D03*
%TD*%
D10*
%TO.P,H1,1*%
%TO.N,N/C*%
X146050000Y-29210000D03*
D11*
X146050000Y-29210000D03*
%TD*%
%TO.P,J3,1*%
%TO.N,/Fwd_Out*%
%TA.AperFunction,ComponentPad*%
G36*
G01*
X53335000Y-59445001D02*
X53335000Y-57394999D01*
G75*
G02*
X53584999Y-57145000I249999J0D01*
G01*
X55635001Y-57145000D01*
G75*
G02*
X55885000Y-57394999I0J-249999D01*
G01*
X55885000Y-59445001D01*
G75*
G02*
X55635001Y-59695000I-249999J0D01*
G01*
X53584999Y-59695000D01*
G75*
G02*
X53335000Y-59445001I0J249999D01*
G01*
G37*
%TD.AperFunction*%
%TD*%
%TO.P,J4,1*%
%TO.N,/Refl_Out*%
%TA.AperFunction,ComponentPad*%
G36*
G01*
X135885000Y-110245001D02*
X135885000Y-108194999D01*
G75*
G02*
X136134999Y-107945000I249999J0D01*
G01*
X138185001Y-107945000D01*
G75*
G02*
X138435000Y-108194999I0J-249999D01*
G01*
X138435000Y-110245001D01*
G75*
G02*
X138185001Y-110495000I-249999J0D01*
G01*
X136134999Y-110495000D01*
G75*
G02*
X135885000Y-110245001I0J249999D01*
G01*
G37*
%TD.AperFunction*%
%TD*%
%TO.P,H3,1*%
%TO.N,N/C*%
X146050000Y-111760000D03*
D10*
X146050000Y-111760000D03*
%TD*%
D12*
%TO.N,GND*%
X53340000Y-38735000D03*
X53340000Y-45720000D03*
X116840000Y-43180000D03*
X147320000Y-97790000D03*
X101600000Y-86360000D03*
X140335000Y-88265000D03*
%TD*%
D13*
%TO.N,GND*%
X131422812Y-105156000D02*
X79098812Y-52832000D01*
X146304000Y-105156000D02*
X131422812Y-105156000D01*
X64516000Y-52832000D02*
X51816000Y-52832000D01*
X79098812Y-52832000D02*
X64516000Y-52832000D01*
D14*
X101600000Y-53340000D02*
X82550000Y-53340000D01*
X82550000Y-53340000D02*
X64770000Y-35560000D01*
X64770000Y-35560000D02*
X53340000Y-35560000D01*
X143510000Y-93980000D02*
X147320000Y-97790000D01*
X147320000Y-97790000D02*
X147320000Y-109220000D01*
D15*
X99060000Y-104140000D02*
X88900000Y-93980000D01*
X144780000Y-104140000D02*
X99060000Y-104140000D01*
%TD*%
D16*
%TO.N,GND*%
X149200001Y-68577552D02*
X147605750Y-68580000D01*
X147447000Y-68738750D01*
X147447000Y-70993000D01*
X147467000Y-70993000D01*
X147467000Y-71247000D01*
X147447000Y-71247000D01*
X147447000Y-73501250D01*
X147605750Y-73660000D01*
X149200000Y-73662448D01*
X149200000Y-114910000D01*
X51460000Y-114910000D01*
X51460000Y-111451229D01*
X51475000Y-111451229D01*
X51475000Y-112068771D01*
X51595476Y-112674446D01*
X51831799Y-113244979D01*
X52174886Y-113758446D01*
X52611554Y-114195114D01*
X53125021Y-114538201D01*
X53695554Y-114774524D01*
X54301229Y-114895000D01*
X54918771Y-114895000D01*
X55524446Y-114774524D01*
X56094979Y-114538201D01*
X56608446Y-114195114D01*
X57045114Y-113758446D01*
X57388201Y-113244979D01*
X57624524Y-112674446D01*
X57745000Y-112068771D01*
X57745000Y-111451229D01*
X142915000Y-111451229D01*
X142915000Y-112068771D01*
X143035476Y-112674446D01*
X143271799Y-113244979D01*
X143614886Y-113758446D01*
X144051554Y-114195114D01*
X144565021Y-114538201D01*
X145135554Y-114774524D01*
X145741229Y-114895000D01*
X146358771Y-114895000D01*
X146964446Y-114774524D01*
X147534979Y-114538201D01*
X148048446Y-114195114D01*
X148485114Y-113758446D01*
X148828201Y-113244979D01*
X149064524Y-112674446D01*
X149185000Y-112068771D01*
X149185000Y-111451229D01*
X149064524Y-110845554D01*
X148828201Y-110275021D01*
X148485114Y-109761554D01*
X148048446Y-109324886D01*
X147534979Y-108981799D01*
X146964446Y-108745476D01*
X146358771Y-108625000D01*
X145741229Y-108625000D01*
X145135554Y-108745476D01*
X144565021Y-108981799D01*
X144051554Y-109324886D01*
X143614886Y-109761554D01*
X143271799Y-110275021D01*
X143035476Y-110845554D01*
X142915000Y-111451229D01*
X57745000Y-111451229D01*
X57624524Y-110845554D01*
X57388201Y-110275021D01*
X57045114Y-109761554D01*
X56608446Y-109324886D01*
X56094979Y-108981799D01*
X55524446Y-108745476D01*
X54918771Y-108625000D01*
X54301229Y-108625000D01*
X53695554Y-108745476D01*
X53125021Y-108981799D01*
X52611554Y-109324886D01*
X52174886Y-109761554D01*
X51831799Y-110275021D01*
X51595476Y-110845554D01*
X51475000Y-111451229D01*
X51460000Y-111451229D01*
X51460000Y-108194999D01*
X135246928Y-108194999D01*
X135246928Y-110245001D01*
X135263992Y-110418255D01*
X135314528Y-110584851D01*
X135396595Y-110738387D01*
X135507038Y-110872962D01*
X135641613Y-110983405D01*
X135795149Y-111065472D01*
X135961745Y-111116008D01*
X136134999Y-111133072D01*
X138185001Y-111133072D01*
X138358255Y-111116008D01*
X138524851Y-111065472D01*
X138678387Y-110983405D01*
X138812962Y-110872962D01*
X138923405Y-110738387D01*
X139005472Y-110584851D01*
X139056008Y-110418255D01*
X139073072Y-110245001D01*
X139073072Y-108194999D01*
X139056008Y-108021745D01*
X139005472Y-107855149D01*
X138923405Y-107701613D01*
X138812962Y-107567038D01*
X138678387Y-107456595D01*
X138524851Y-107374528D01*
X138358255Y-107323992D01*
X138185001Y-107306928D01*
X136134999Y-107306928D01*
X135961745Y-107323992D01*
X135795149Y-107374528D01*
X135641613Y-107456595D01*
X135507038Y-107567038D01*
X135396595Y-107701613D01*
X135314528Y-107855149D01*
X135263992Y-108021745D01*
X135246928Y-108194999D01*
X51460000Y-108194999D01*
X51460000Y-73025000D01*
X144395928Y-73025000D01*
X144408188Y-73149482D01*
X144444498Y-73269180D01*
X144503463Y-73379494D01*
X144582815Y-73476185D01*
X144679506Y-73555537D01*
X144789820Y-73614502D01*
X144909518Y-73650812D01*
X145034000Y-73663072D01*
X147034250Y-73660000D01*
X147193000Y-73501250D01*
X147193000Y-71247000D01*
X144557750Y-71247000D01*
X144399000Y-71405750D01*
X144395928Y-73025000D01*
X51460000Y-73025000D01*
X51460000Y-69215000D01*
X144395928Y-69215000D01*
X144399000Y-70834250D01*
X144557750Y-70993000D01*
X147193000Y-70993000D01*
X147193000Y-68738750D01*
X147034250Y-68580000D01*
X145034000Y-68576928D01*
X144909518Y-68589188D01*
X144789820Y-68625498D01*
X144679506Y-68684463D01*
X144582815Y-68763815D01*
X144503463Y-68860506D01*
X144444498Y-68970820D01*
X144408188Y-69090518D01*
X144395928Y-69215000D01*
X51460000Y-69215000D01*
X51460000Y-57394999D01*
X52696928Y-57394999D01*
X52696928Y-59445001D01*
X52713992Y-59618255D01*
X52764528Y-59784851D01*
X52846595Y-59938387D01*
X52957038Y-60072962D01*
X53091613Y-60183405D01*
X53245149Y-60265472D01*
X53411745Y-60316008D01*
X53584999Y-60333072D01*
X55635001Y-60333072D01*
X55808255Y-60316008D01*
X55974851Y-60265472D01*
X56128387Y-60183405D01*
X56262962Y-60072962D01*
X56373405Y-59938387D01*
X56455472Y-59784851D01*
X56506008Y-59618255D01*
X56523072Y-59445001D01*
X56523072Y-57394999D01*
X56506008Y-57221745D01*
X56455472Y-57055149D01*
X56373405Y-56901613D01*
X56262962Y-56767038D01*
X56128387Y-56656595D01*
X55974851Y-56574528D01*
X55808255Y-56523992D01*
X55635001Y-56506928D01*
X53584999Y-56506928D01*
X53411745Y-56523992D01*
X53245149Y-56574528D01*
X53091613Y-56656595D01*
X52957038Y-56767038D01*
X52846595Y-56901613D01*
X52764528Y-57055149D01*
X52713992Y-57221745D01*
X52696928Y-57394999D01*
X51460000Y-57394999D01*
X51460000Y-38102448D01*
X53054250Y-38100000D01*
X53213000Y-37941250D01*
X53213000Y-35687000D01*
X53467000Y-35687000D01*
X53467000Y-37941250D01*
X53625750Y-38100000D01*
X55626000Y-38103072D01*
X55750482Y-38090812D01*
X55870180Y-38054502D01*
X55980494Y-37995537D01*
X56077185Y-37916185D01*
X56156537Y-37819494D01*
X56215502Y-37709180D01*
X56251812Y-37589482D01*
X56264072Y-37465000D01*
X56261000Y-35845750D01*
X56102250Y-35687000D01*
X53467000Y-35687000D01*
X53213000Y-35687000D01*
X53193000Y-35687000D01*
X53193000Y-35433000D01*
X53213000Y-35433000D01*
X53213000Y-33178750D01*
X53467000Y-33178750D01*
X53467000Y-35433000D01*
X56102250Y-35433000D01*
X56261000Y-35274250D01*
X56264072Y-33655000D01*
X56251812Y-33530518D01*
X56215502Y-33410820D01*
X56156537Y-33300506D01*
X56077185Y-33203815D01*
X55980494Y-33124463D01*
X55870180Y-33065498D01*
X55750482Y-33029188D01*
X55626000Y-33016928D01*
X53625750Y-33020000D01*
X53467000Y-33178750D01*
X53213000Y-33178750D01*
X53054250Y-33020000D01*
X51460000Y-33017552D01*
X51460000Y-28901229D01*
X142915000Y-28901229D01*
X142915000Y-29518771D01*
X143035476Y-30124446D01*
X143271799Y-30694979D01*
X143614886Y-31208446D01*
X144051554Y-31645114D01*
X144565021Y-31988201D01*
X145135554Y-32224524D01*
X145741229Y-32345000D01*
X146358771Y-32345000D01*
X146964446Y-32224524D01*
X147534979Y-31988201D01*
X148048446Y-31645114D01*
X148485114Y-31208446D01*
X148828201Y-30694979D01*
X149064524Y-30124446D01*
X149185000Y-29518771D01*
X149185000Y-28901229D01*
X149064524Y-28295554D01*
X148828201Y-27725021D01*
X148485114Y-27211554D01*
X148048446Y-26774886D01*
X147534979Y-26431799D01*
X146964446Y-26195476D01*
X146358771Y-26075000D01*
X145741229Y-26075000D01*
X145135554Y-26195476D01*
X144565021Y-26431799D01*
X144051554Y-26774886D01*
X143614886Y-27211554D01*
X143271799Y-27725021D01*
X143035476Y-28295554D01*
X142915000Y-28901229D01*
X51460000Y-28901229D01*
X51460000Y-26060000D01*
X149200001Y-26060000D01*
X149200001Y-68577552D01*
%TA.AperFunction,Conductor*%
D17*
G36*
X149200001Y-68577552D02*
G01*
X147605750Y-68580000D01*
X147447000Y-68738750D01*
X147447000Y-70993000D01*
X147467000Y-70993000D01*
X147467000Y-71247000D01*
X147447000Y-71247000D01*
X147447000Y-73501250D01*
X147605750Y-73660000D01*
X149200000Y-73662448D01*
X149200000Y-114910000D01*
X51460000Y-114910000D01*
X51460000Y-111451229D01*
X51475000Y-111451229D01*
X51475000Y-112068771D01*
X51595476Y-112674446D01*
X51831799Y-113244979D01*
X52174886Y-113758446D01*
X52611554Y-114195114D01*
X53125021Y-114538201D01*
X53695554Y-114774524D01*
X54301229Y-114895000D01*
X54918771Y-114895000D01*
X55524446Y-114774524D01*
X56094979Y-114538201D01*
X56608446Y-114195114D01*
X57045114Y-113758446D01*
X57388201Y-113244979D01*
X57624524Y-112674446D01*
X57745000Y-112068771D01*
X57745000Y-111451229D01*
X142915000Y-111451229D01*
X142915000Y-112068771D01*
X143035476Y-112674446D01*
X143271799Y-113244979D01*
X143614886Y-113758446D01*
X144051554Y-114195114D01*
X144565021Y-114538201D01*
X145135554Y-114774524D01*
X145741229Y-114895000D01*
X146358771Y-114895000D01*
X146964446Y-114774524D01*
X147534979Y-114538201D01*
X148048446Y-114195114D01*
X148485114Y-113758446D01*
X148828201Y-113244979D01*
X149064524Y-112674446D01*
X149185000Y-112068771D01*
X149185000Y-111451229D01*
X149064524Y-110845554D01*
X148828201Y-110275021D01*
X148485114Y-109761554D01*
X148048446Y-109324886D01*
X147534979Y-108981799D01*
X146964446Y-108745476D01*
X146358771Y-108625000D01*
X145741229Y-108625000D01*
X145135554Y-108745476D01*
X144565021Y-108981799D01*
X144051554Y-109324886D01*
X143614886Y-109761554D01*
X143271799Y-110275021D01*
X143035476Y-110845554D01*
X142915000Y-111451229D01*
X57745000Y-111451229D01*
X57624524Y-110845554D01*
X57388201Y-110275021D01*
X57045114Y-109761554D01*
X56608446Y-109324886D01*
X56094979Y-108981799D01*
X55524446Y-108745476D01*
X54918771Y-108625000D01*
X54301229Y-108625000D01*
X53695554Y-108745476D01*
X53125021Y-108981799D01*
X52611554Y-109324886D01*
X52174886Y-109761554D01*
X51831799Y-110275021D01*
X51595476Y-110845554D01*
X51475000Y-111451229D01*
X51460000Y-111451229D01*
X51460000Y-108194999D01*
X135246928Y-108194999D01*
X135246928Y-110245001D01*
X135263992Y-110418255D01*
X135314528Y-110584851D01*
X135396595Y-110738387D01*
X135507038Y-110872962D01*
X135641613Y-110983405D01*
X135795149Y-111065472D01*
X135961745Y-111116008D01*
X136134999Y-111133072D01*
X138185001Y-111133072D01*
X138358255Y-111116008D01*
X138524851Y-111065472D01*
X138678387Y-110983405D01*
X138812962Y-110872962D01*
X138923405Y-110738387D01*
X139005472Y-110584851D01*
X139056008Y-110418255D01*
X139073072Y-110245001D01*
X139073072Y-108194999D01*
X139056008Y-108021745D01*
X139005472Y-107855149D01*
X138923405Y-107701613D01*
X138812962Y-107567038D01*
X138678387Y-107456595D01*
X138524851Y-107374528D01*
X138358255Y-107323992D01*
X138185001Y-107306928D01*
X136134999Y-107306928D01*
X135961745Y-107323992D01*
X135795149Y-107374528D01*
X135641613Y-107456595D01*
X135507038Y-107567038D01*
X135396595Y-107701613D01*
X135314528Y-107855149D01*
X135263992Y-108021745D01*
X135246928Y-108194999D01*
X51460000Y-108194999D01*
X51460000Y-73025000D01*
X144395928Y-73025000D01*
X144408188Y-73149482D01*
X144444498Y-73269180D01*
X144503463Y-73379494D01*
X144582815Y-73476185D01*
X144679506Y-73555537D01*
X144789820Y-73614502D01*
X144909518Y-73650812D01*
X145034000Y-73663072D01*
X147034250Y-73660000D01*
X147193000Y-73501250D01*
X147193000Y-71247000D01*
X144557750Y-71247000D01*
X144399000Y-71405750D01*
X144395928Y-73025000D01*
X51460000Y-73025000D01*
X51460000Y-69215000D01*
X144395928Y-69215000D01*
X144399000Y-70834250D01*
X144557750Y-70993000D01*
X147193000Y-70993000D01*
X147193000Y-68738750D01*
X147034250Y-68580000D01*
X145034000Y-68576928D01*
X144909518Y-68589188D01*
X144789820Y-68625498D01*
X144679506Y-68684463D01*
X144582815Y-68763815D01*
X144503463Y-68860506D01*
X144444498Y-68970820D01*
X144408188Y-69090518D01*
X144395928Y-69215000D01*
X51460000Y-69215000D01*
X51460000Y-57394999D01*
X52696928Y-57394999D01*
X52696928Y-59445001D01*
X52713992Y-59618255D01*
X52764528Y-59784851D01*
X52846595Y-59938387D01*
X52957038Y-60072962D01*
X53091613Y-60183405D01*
X53245149Y-60265472D01*
X53411745Y-60316008D01*
X53584999Y-60333072D01*
X55635001Y-60333072D01*
X55808255Y-60316008D01*
X55974851Y-60265472D01*
X56128387Y-60183405D01*
X56262962Y-60072962D01*
X56373405Y-59938387D01*
X56455472Y-59784851D01*
X56506008Y-59618255D01*
X56523072Y-59445001D01*
X56523072Y-57394999D01*
X56506008Y-57221745D01*
X56455472Y-57055149D01*
X56373405Y-56901613D01*
X56262962Y-56767038D01*
X56128387Y-56656595D01*
X55974851Y-56574528D01*
X55808255Y-56523992D01*
X55635001Y-56506928D01*
X53584999Y-56506928D01*
X53411745Y-56523992D01*
X53245149Y-56574528D01*
X53091613Y-56656595D01*
X52957038Y-56767038D01*
X52846595Y-56901613D01*
X52764528Y-57055149D01*
X52713992Y-57221745D01*
X52696928Y-57394999D01*
X51460000Y-57394999D01*
X51460000Y-38102448D01*
X53054250Y-38100000D01*
X53213000Y-37941250D01*
X53213000Y-35687000D01*
X53467000Y-35687000D01*
X53467000Y-37941250D01*
X53625750Y-38100000D01*
X55626000Y-38103072D01*
X55750482Y-38090812D01*
X55870180Y-38054502D01*
X55980494Y-37995537D01*
X56077185Y-37916185D01*
X56156537Y-37819494D01*
X56215502Y-37709180D01*
X56251812Y-37589482D01*
X56264072Y-37465000D01*
X56261000Y-35845750D01*
X56102250Y-35687000D01*
X53467000Y-35687000D01*
X53213000Y-35687000D01*
X53193000Y-35687000D01*
X53193000Y-35433000D01*
X53213000Y-35433000D01*
X53213000Y-33178750D01*
X53467000Y-33178750D01*
X53467000Y-35433000D01*
X56102250Y-35433000D01*
X56261000Y-35274250D01*
X56264072Y-33655000D01*
X56251812Y-33530518D01*
X56215502Y-33410820D01*
X56156537Y-33300506D01*
X56077185Y-33203815D01*
X55980494Y-33124463D01*
X55870180Y-33065498D01*
X55750482Y-33029188D01*
X55626000Y-33016928D01*
X53625750Y-33020000D01*
X53467000Y-33178750D01*
X53213000Y-33178750D01*
X53054250Y-33020000D01*
X51460000Y-33017552D01*
X51460000Y-28901229D01*
X142915000Y-28901229D01*
X142915000Y-29518771D01*
X143035476Y-30124446D01*
X143271799Y-30694979D01*
X143614886Y-31208446D01*
X144051554Y-31645114D01*
X144565021Y-31988201D01*
X145135554Y-32224524D01*
X145741229Y-32345000D01*
X146358771Y-32345000D01*
X146964446Y-32224524D01*
X147534979Y-31988201D01*
X148048446Y-31645114D01*
X148485114Y-31208446D01*
X148828201Y-30694979D01*
X149064524Y-30124446D01*
X149185000Y-29518771D01*
X149185000Y-28901229D01*
X149064524Y-28295554D01*
X148828201Y-27725021D01*
X148485114Y-27211554D01*
X148048446Y-26774886D01*
X147534979Y-26431799D01*
X146964446Y-26195476D01*
X146358771Y-26075000D01*
X145741229Y-26075000D01*
X145135554Y-26195476D01*
X144565021Y-26431799D01*
X144051554Y-26774886D01*
X143614886Y-27211554D01*
X143271799Y-27725021D01*
X143035476Y-28295554D01*
X142915000Y-28901229D01*
X51460000Y-28901229D01*
X51460000Y-26060000D01*
X149200001Y-26060000D01*
X149200001Y-68577552D01*
G37*
%TD.AperFunction*%
%TD*%
M02*
