%TF.GenerationSoftware,KiCad,Pcbnew,(5.1.12)-1*%
%TF.CreationDate,2021-11-29T19:24:28+10:30*%
%TF.ProjectId,SWR_02,5357525f-3032-42e6-9b69-6361645f7063,2*%
%TF.SameCoordinates,Original*%
%TF.FileFunction,Copper,L1,Top*%
%TF.FilePolarity,Positive*%
%FSLAX46Y46*%
G04 Gerber Fmt 4.6, Leading zero omitted, Abs format (unit mm)*
G04 Created by KiCad (PCBNEW (5.1.12)-1) date 2021-11-29 19:24:28*
%MOMM*%
%LPD*%
G01*
G04 APERTURE LIST*
%TA.AperFunction,EtchedComponent*%
%ADD10C,2.159000*%
%TD*%
%TA.AperFunction,SMDPad,CuDef*%
%ADD11R,2.032000X2.159000*%
%TD*%
%TA.AperFunction,SMDPad,CuDef*%
%ADD12R,2.159000X2.032000*%
%TD*%
%TA.AperFunction,SMDPad,CuDef*%
%ADD13C,0.750000*%
%TD*%
%TA.AperFunction,ConnectorPad*%
%ADD14R,4.572000X2.184400*%
%TD*%
%TA.AperFunction,ConnectorPad*%
%ADD15C,5.000000*%
%TD*%
%TA.AperFunction,ComponentPad*%
%ADD16C,2.900000*%
%TD*%
%TA.AperFunction,ViaPad*%
%ADD17C,1.905000*%
%TD*%
%TA.AperFunction,Conductor*%
%ADD18C,2.184400*%
%TD*%
%TA.AperFunction,Conductor*%
%ADD19C,1.092200*%
%TD*%
%TA.AperFunction,Conductor*%
%ADD20C,0.254000*%
%TD*%
%TA.AperFunction,Conductor*%
%ADD21C,0.100000*%
%TD*%
G04 APERTURE END LIST*
D10*
%TO.C,L1A1*%
X63500000Y-30480000D02*
X60960000Y-30480000D01*
%TO.C,L1A2*%
X105410000Y-53340000D02*
X107950000Y-53340000D01*
%TO.C,L2A1*%
X72390000Y-71120000D02*
X72390000Y-68580000D01*
%TO.C,L2A2*%
X97790000Y-93980000D02*
X95250000Y-93980000D01*
%TD*%
D11*
%TO.P,L1A1,2*%
%TO.N,/Signal_Out*%
X63500000Y-30480000D03*
%TO.P,L1A1,1*%
%TO.N,/Signal_In*%
X60960000Y-30480000D03*
%TD*%
%TO.P,L1A2,2*%
%TO.N,GND*%
X105410000Y-53340000D03*
%TO.P,L1A2,1*%
%TO.N,/Fwd*%
X107950000Y-53340000D03*
%TD*%
D12*
%TO.P,L2A1,2*%
%TO.N,/Refl*%
X72390000Y-71120000D03*
%TO.P,L2A1,1*%
%TO.N,/Fwd*%
X72390000Y-68580000D03*
%TD*%
D11*
%TO.P,L2A2,2*%
%TO.N,GND*%
X97790000Y-93980000D03*
%TO.P,L2A2,1*%
%TO.N,/Signal_Out*%
X95250000Y-93980000D03*
%TD*%
D13*
%TO.P,FID1,*%
%TO.N,*%
X147320000Y-76200000D03*
%TD*%
D14*
%TO.P,J2,1*%
%TO.N,/Signal_Out*%
X147320000Y-114300000D03*
%TD*%
%TO.P,J1,1*%
%TO.N,/Signal_In*%
X53340000Y-30480000D03*
%TD*%
D15*
%TO.P,H2,1*%
%TO.N,N/C*%
X54610000Y-118110000D03*
D16*
X54610000Y-118110000D03*
%TD*%
D15*
%TO.P,H1,1*%
%TO.N,N/C*%
X146050000Y-29210000D03*
D16*
X146050000Y-29210000D03*
%TD*%
%TO.P,D2,2*%
%TO.N,/Refl*%
%TA.AperFunction,SMDPad,CuDef*%
G36*
G01*
X130629999Y-115875000D02*
X133530001Y-115875000D01*
G75*
G02*
X133780000Y-116124999I0J-249999D01*
G01*
X133780000Y-116925001D01*
G75*
G02*
X133530001Y-117175000I-249999J0D01*
G01*
X130629999Y-117175000D01*
G75*
G02*
X130380000Y-116925001I0J249999D01*
G01*
X130380000Y-116124999D01*
G75*
G02*
X130629999Y-115875000I249999J0D01*
G01*
G37*
%TD.AperFunction*%
%TO.P,D2,1*%
%TO.N,/Refl_Out*%
%TA.AperFunction,SMDPad,CuDef*%
G36*
G01*
X130629999Y-111425000D02*
X133530001Y-111425000D01*
G75*
G02*
X133780000Y-111674999I0J-249999D01*
G01*
X133780000Y-112475001D01*
G75*
G02*
X133530001Y-112725000I-249999J0D01*
G01*
X130629999Y-112725000D01*
G75*
G02*
X130380000Y-112475001I0J249999D01*
G01*
X130380000Y-111674999D01*
G75*
G02*
X130629999Y-111425000I249999J0D01*
G01*
G37*
%TD.AperFunction*%
%TD*%
%TO.P,D1,2*%
%TO.N,/Fwd*%
%TA.AperFunction,SMDPad,CuDef*%
G36*
G01*
X62535000Y-52250001D02*
X62535000Y-49349999D01*
G75*
G02*
X62784999Y-49100000I249999J0D01*
G01*
X63585001Y-49100000D01*
G75*
G02*
X63835000Y-49349999I0J-249999D01*
G01*
X63835000Y-52250001D01*
G75*
G02*
X63585001Y-52500000I-249999J0D01*
G01*
X62784999Y-52500000D01*
G75*
G02*
X62535000Y-52250001I0J249999D01*
G01*
G37*
%TD.AperFunction*%
%TO.P,D1,1*%
%TO.N,/Fwd_Out*%
%TA.AperFunction,SMDPad,CuDef*%
G36*
G01*
X58085000Y-52250001D02*
X58085000Y-49349999D01*
G75*
G02*
X58334999Y-49100000I249999J0D01*
G01*
X59135001Y-49100000D01*
G75*
G02*
X59385000Y-49349999I0J-249999D01*
G01*
X59385000Y-52250001D01*
G75*
G02*
X59135001Y-52500000I-249999J0D01*
G01*
X58334999Y-52500000D01*
G75*
G02*
X58085000Y-52250001I0J249999D01*
G01*
G37*
%TD.AperFunction*%
%TD*%
%TO.P,C1,2*%
%TO.N,/Fwd_Out*%
%TA.AperFunction,SMDPad,CuDef*%
G36*
G01*
X53159998Y-49610000D02*
X56060002Y-49610000D01*
G75*
G02*
X56310000Y-49859998I0J-249998D01*
G01*
X56310000Y-50935002D01*
G75*
G02*
X56060002Y-51185000I-249998J0D01*
G01*
X53159998Y-51185000D01*
G75*
G02*
X52910000Y-50935002I0J249998D01*
G01*
X52910000Y-49859998D01*
G75*
G02*
X53159998Y-49610000I249998J0D01*
G01*
G37*
%TD.AperFunction*%
%TO.P,C1,1*%
%TO.N,GND*%
%TA.AperFunction,SMDPad,CuDef*%
G36*
G01*
X53159998Y-45335000D02*
X56060002Y-45335000D01*
G75*
G02*
X56310000Y-45584998I0J-249998D01*
G01*
X56310000Y-46660002D01*
G75*
G02*
X56060002Y-46910000I-249998J0D01*
G01*
X53159998Y-46910000D01*
G75*
G02*
X52910000Y-46660002I0J249998D01*
G01*
X52910000Y-45584998D01*
G75*
G02*
X53159998Y-45335000I249998J0D01*
G01*
G37*
%TD.AperFunction*%
%TD*%
%TO.P,C2,2*%
%TO.N,GND*%
%TA.AperFunction,SMDPad,CuDef*%
G36*
G01*
X135970000Y-108130002D02*
X135970000Y-105229998D01*
G75*
G02*
X136219998Y-104980000I249998J0D01*
G01*
X137295002Y-104980000D01*
G75*
G02*
X137545000Y-105229998I0J-249998D01*
G01*
X137545000Y-108130002D01*
G75*
G02*
X137295002Y-108380000I-249998J0D01*
G01*
X136219998Y-108380000D01*
G75*
G02*
X135970000Y-108130002I0J249998D01*
G01*
G37*
%TD.AperFunction*%
%TO.P,C2,1*%
%TO.N,/Refl_Out*%
%TA.AperFunction,SMDPad,CuDef*%
G36*
G01*
X131695000Y-108130002D02*
X131695000Y-105229998D01*
G75*
G02*
X131944998Y-104980000I249998J0D01*
G01*
X133020002Y-104980000D01*
G75*
G02*
X133270000Y-105229998I0J-249998D01*
G01*
X133270000Y-108130002D01*
G75*
G02*
X133020002Y-108380000I-249998J0D01*
G01*
X131944998Y-108380000D01*
G75*
G02*
X131695000Y-108130002I0J249998D01*
G01*
G37*
%TD.AperFunction*%
%TD*%
%TO.P,J4,1*%
%TO.N,/Refl_Out*%
%TA.AperFunction,ComponentPad*%
G36*
G01*
X137750000Y-103299999D02*
X137750000Y-99900001D01*
G75*
G02*
X138000001Y-99650000I250001J0D01*
G01*
X141399999Y-99650000D01*
G75*
G02*
X141650000Y-99900001I0J-250001D01*
G01*
X141650000Y-103299999D01*
G75*
G02*
X141399999Y-103550000I-250001J0D01*
G01*
X138000001Y-103550000D01*
G75*
G02*
X137750000Y-103299999I0J250001D01*
G01*
G37*
%TD.AperFunction*%
%TD*%
%TO.P,J3,1*%
%TO.N,/Fwd_Out*%
%TA.AperFunction,ComponentPad*%
G36*
G01*
X55039999Y-57830000D02*
X51640001Y-57830000D01*
G75*
G02*
X51390000Y-57579999I0J250001D01*
G01*
X51390000Y-54180001D01*
G75*
G02*
X51640001Y-53930000I250001J0D01*
G01*
X55039999Y-53930000D01*
G75*
G02*
X55290000Y-54180001I0J-250001D01*
G01*
X55290000Y-57579999D01*
G75*
G02*
X55039999Y-57830000I-250001J0D01*
G01*
G37*
%TD.AperFunction*%
%TD*%
%TO.P,R1,1*%
%TO.N,/Fwd*%
%TA.AperFunction,SMDPad,CuDef*%
G36*
G01*
X60250000Y-34484999D02*
X60250000Y-36635001D01*
G75*
G02*
X60000001Y-36885000I-249999J0D01*
G01*
X59099999Y-36885000D01*
G75*
G02*
X58850000Y-36635001I0J249999D01*
G01*
X58850000Y-34484999D01*
G75*
G02*
X59099999Y-34235000I249999J0D01*
G01*
X60000001Y-34235000D01*
G75*
G02*
X60250000Y-34484999I0J-249999D01*
G01*
G37*
%TD.AperFunction*%
%TO.P,R1,2*%
%TO.N,GND*%
%TA.AperFunction,SMDPad,CuDef*%
G36*
G01*
X55450000Y-34484999D02*
X55450000Y-36635001D01*
G75*
G02*
X55200001Y-36885000I-249999J0D01*
G01*
X54299999Y-36885000D01*
G75*
G02*
X54050000Y-36635001I0J249999D01*
G01*
X54050000Y-34484999D01*
G75*
G02*
X54299999Y-34235000I249999J0D01*
G01*
X55200001Y-34235000D01*
G75*
G02*
X55450000Y-34484999I0J-249999D01*
G01*
G37*
%TD.AperFunction*%
%TD*%
%TO.P,R2,2*%
%TO.N,GND*%
%TA.AperFunction,SMDPad,CuDef*%
G36*
G01*
X55450000Y-39564999D02*
X55450000Y-41715001D01*
G75*
G02*
X55200001Y-41965000I-249999J0D01*
G01*
X54299999Y-41965000D01*
G75*
G02*
X54050000Y-41715001I0J249999D01*
G01*
X54050000Y-39564999D01*
G75*
G02*
X54299999Y-39315000I249999J0D01*
G01*
X55200001Y-39315000D01*
G75*
G02*
X55450000Y-39564999I0J-249999D01*
G01*
G37*
%TD.AperFunction*%
%TO.P,R2,1*%
%TO.N,/Fwd*%
%TA.AperFunction,SMDPad,CuDef*%
G36*
G01*
X60250000Y-39564999D02*
X60250000Y-41715001D01*
G75*
G02*
X60000001Y-41965000I-249999J0D01*
G01*
X59099999Y-41965000D01*
G75*
G02*
X58850000Y-41715001I0J249999D01*
G01*
X58850000Y-39564999D01*
G75*
G02*
X59099999Y-39315000I249999J0D01*
G01*
X60000001Y-39315000D01*
G75*
G02*
X60250000Y-39564999I0J-249999D01*
G01*
G37*
%TD.AperFunction*%
%TD*%
%TO.P,R3,2*%
%TO.N,GND*%
%TA.AperFunction,SMDPad,CuDef*%
G36*
G01*
X138235001Y-112600000D02*
X136084999Y-112600000D01*
G75*
G02*
X135835000Y-112350001I0J249999D01*
G01*
X135835000Y-111449999D01*
G75*
G02*
X136084999Y-111200000I249999J0D01*
G01*
X138235001Y-111200000D01*
G75*
G02*
X138485000Y-111449999I0J-249999D01*
G01*
X138485000Y-112350001D01*
G75*
G02*
X138235001Y-112600000I-249999J0D01*
G01*
G37*
%TD.AperFunction*%
%TO.P,R3,1*%
%TO.N,/Refl*%
%TA.AperFunction,SMDPad,CuDef*%
G36*
G01*
X138235001Y-117400000D02*
X136084999Y-117400000D01*
G75*
G02*
X135835000Y-117150001I0J249999D01*
G01*
X135835000Y-116249999D01*
G75*
G02*
X136084999Y-116000000I249999J0D01*
G01*
X138235001Y-116000000D01*
G75*
G02*
X138485000Y-116249999I0J-249999D01*
G01*
X138485000Y-117150001D01*
G75*
G02*
X138235001Y-117400000I-249999J0D01*
G01*
G37*
%TD.AperFunction*%
%TD*%
%TO.P,R4,1*%
%TO.N,/Refl*%
%TA.AperFunction,SMDPad,CuDef*%
G36*
G01*
X143315001Y-117400000D02*
X141164999Y-117400000D01*
G75*
G02*
X140915000Y-117150001I0J249999D01*
G01*
X140915000Y-116249999D01*
G75*
G02*
X141164999Y-116000000I249999J0D01*
G01*
X143315001Y-116000000D01*
G75*
G02*
X143565000Y-116249999I0J-249999D01*
G01*
X143565000Y-117150001D01*
G75*
G02*
X143315001Y-117400000I-249999J0D01*
G01*
G37*
%TD.AperFunction*%
%TO.P,R4,2*%
%TO.N,GND*%
%TA.AperFunction,SMDPad,CuDef*%
G36*
G01*
X143315001Y-112600000D02*
X141164999Y-112600000D01*
G75*
G02*
X140915000Y-112350001I0J249999D01*
G01*
X140915000Y-111449999D01*
G75*
G02*
X141164999Y-111200000I249999J0D01*
G01*
X143315001Y-111200000D01*
G75*
G02*
X143565000Y-111449999I0J-249999D01*
G01*
X143565000Y-112350001D01*
G75*
G02*
X143315001Y-112600000I-249999J0D01*
G01*
G37*
%TD.AperFunction*%
%TD*%
D17*
%TO.N,GND*%
X53340000Y-38100000D03*
X53340000Y-43180000D03*
X101600000Y-53340000D03*
X139840000Y-109360000D03*
X101600000Y-93980000D03*
X144780000Y-104140000D03*
%TD*%
D18*
%TO.N,GND*%
X101600000Y-53340000D02*
X104140000Y-53340000D01*
D19*
X139840000Y-109360000D02*
X139700000Y-109360000D01*
D18*
X97790000Y-93980000D02*
X101600000Y-93980000D01*
D19*
X139840000Y-109080000D02*
X144780000Y-104140000D01*
X139840000Y-109360000D02*
X139840000Y-109080000D01*
%TO.N,/Fwd_Out*%
X58735000Y-50800000D02*
X54610000Y-50800000D01*
X54610000Y-50397500D02*
X54610000Y-54610000D01*
X54610000Y-54610000D02*
X53340000Y-55880000D01*
%TO.N,/Refl_Out*%
X132080000Y-112075000D02*
X132080000Y-106680000D01*
X132080000Y-106680000D02*
X132080000Y-104140000D01*
X132080000Y-104140000D02*
X134620000Y-101600000D01*
X134620000Y-101600000D02*
X139700000Y-101600000D01*
%TO.N,/Fwd*%
X59550000Y-40640000D02*
X59550000Y-35700000D01*
X59550000Y-35700000D02*
X59690000Y-35560000D01*
X59550000Y-35560000D02*
X60960000Y-35560000D01*
X60960000Y-35560000D02*
X63500000Y-33020000D01*
X63185000Y-50800000D02*
X68580000Y-50800000D01*
D18*
X63500000Y-33020000D02*
X68580000Y-33020000D01*
D19*
X72390000Y-36830000D02*
X76200000Y-33020000D01*
D18*
X76200000Y-33020000D02*
X68580000Y-33020000D01*
D19*
X68580000Y-40640000D02*
X72390000Y-40640000D01*
X59550000Y-40640000D02*
X68580000Y-40640000D01*
X72390000Y-40640000D02*
X72390000Y-36830000D01*
X68580000Y-50800000D02*
X72390000Y-50800000D01*
X72390000Y-50800000D02*
X72390000Y-40640000D01*
D18*
X121920000Y-48260000D02*
X121920000Y-53340000D01*
X119380000Y-45720000D02*
X121920000Y-48260000D01*
X136837052Y-60717135D02*
X136589096Y-61410125D01*
X137123885Y-59275128D02*
X137015889Y-60003177D01*
X137160000Y-58540000D02*
X137123885Y-59275128D01*
X136837052Y-43422864D02*
X137015889Y-44136822D01*
X136589096Y-42729874D02*
X136837052Y-43422864D01*
X136274409Y-42064524D02*
X136589096Y-42729874D01*
X134963300Y-40296699D02*
X135457578Y-40842050D01*
X133826776Y-39363977D02*
X134417949Y-39802421D01*
X132530125Y-38670903D02*
X133195475Y-38985590D01*
X131123177Y-38244110D02*
X131837135Y-38422947D01*
X130395128Y-38136114D02*
X131123177Y-38244110D01*
X78764076Y-64070085D02*
X78740000Y-63580000D01*
X78955298Y-65031423D02*
X78836073Y-64555451D01*
X79330393Y-65936983D02*
X79120602Y-65493417D01*
X79582651Y-66357851D02*
X79330393Y-65936983D01*
X79874947Y-66751966D02*
X79582651Y-66357851D01*
X80204466Y-67115533D02*
X79874947Y-66751966D01*
X80568033Y-67445052D02*
X80204466Y-67115533D01*
X86384076Y-56450085D02*
X86360000Y-55960000D01*
X130680171Y-35608152D02*
X131650903Y-35752147D01*
X80962148Y-67737348D02*
X80568033Y-67445052D01*
X81383016Y-67989606D02*
X80962148Y-67737348D01*
X82288576Y-68364701D02*
X81826582Y-68199397D01*
X82764548Y-68483926D02*
X82288576Y-68364701D01*
X83249914Y-68555923D02*
X82764548Y-68483926D01*
X134413967Y-67399212D02*
X133526834Y-67818795D01*
X135457578Y-40842050D02*
X135896022Y-41433223D01*
X129660000Y-38100000D02*
X130395128Y-38136114D01*
X136043932Y-66310104D02*
X135255702Y-66894696D01*
X140764014Y-39627541D02*
X141288493Y-40736457D01*
X137015889Y-44136822D02*
X137123885Y-44864871D01*
X129700000Y-68580000D02*
X83740000Y-68580000D01*
X129700000Y-35560000D02*
X130680171Y-35608152D01*
X83844076Y-58990085D02*
X83820000Y-58500000D01*
X136589096Y-61410125D02*
X136274409Y-62075475D01*
X137160000Y-45600000D02*
X137160000Y-58540000D01*
X131123177Y-65895889D02*
X130395128Y-66003885D01*
X139700000Y-58580000D02*
X139651847Y-59560171D01*
X130067725Y-43228036D02*
X130305711Y-43287649D01*
X139700000Y-45560000D02*
X139700000Y-58580000D01*
X133195475Y-38985590D02*
X133826776Y-39363977D01*
X79120602Y-65493417D02*
X78955298Y-65031423D01*
X83740000Y-68580000D02*
X83249914Y-68555923D01*
X131658674Y-59848925D02*
X131512526Y-60045983D01*
X139507852Y-43609096D02*
X139651847Y-44579828D01*
X129660000Y-66040000D02*
X86280000Y-66040000D01*
X131650903Y-68387852D02*
X130680171Y-68531847D01*
X135457578Y-63297949D02*
X134963300Y-63843300D01*
X84366582Y-65659397D02*
X83923016Y-65449606D01*
X142179808Y-44294785D02*
X142240000Y-45520000D01*
X81826582Y-68199397D02*
X81383016Y-67989606D01*
X138014696Y-64135702D02*
X137430104Y-64923932D01*
X142179809Y-59845214D02*
X141999816Y-61058629D01*
X85789914Y-66015923D02*
X85304548Y-65943926D01*
X137015889Y-60003177D02*
X136837052Y-60717135D01*
X139507852Y-60530903D02*
X139269403Y-61482846D01*
X88820000Y-63500000D02*
X88329914Y-63475923D01*
X78836073Y-64555451D02*
X78764076Y-64070085D01*
X142240000Y-58620000D02*
X142179809Y-59845214D01*
X131533417Y-63119397D02*
X131071423Y-63284701D01*
X83923016Y-65449606D02*
X83502148Y-65197348D01*
X133368558Y-33558246D02*
X134523542Y-33971506D01*
X134417949Y-39802421D02*
X134963300Y-40296699D01*
X135896022Y-41433223D02*
X136274409Y-42064524D01*
X138519212Y-40846032D02*
X138938795Y-41733165D01*
X130110085Y-63475923D02*
X129620000Y-63500000D01*
X137669916Y-68282630D02*
X136684627Y-69013370D01*
X88188033Y-59825052D02*
X87824466Y-59495533D01*
X82414947Y-64211966D02*
X82122651Y-63817851D01*
X132031963Y-45192274D02*
X132067961Y-45434957D01*
X76580602Y-68033417D02*
X76415298Y-67571423D01*
X81870393Y-63396983D02*
X81660602Y-62953417D01*
X132067961Y-45434957D02*
X132080000Y-45680000D01*
X130965214Y-33080191D02*
X132178628Y-33260184D01*
X131972350Y-59185711D02*
X131889698Y-59416708D01*
X133526834Y-67818795D02*
X132602846Y-68149403D01*
X130965214Y-71059809D02*
X129740000Y-71120000D01*
X89908576Y-60744701D02*
X89446582Y-60579397D01*
X82744466Y-64575533D02*
X82414947Y-64211966D01*
X84828576Y-65824701D02*
X84366582Y-65659397D01*
X134620000Y-45640000D02*
X134620000Y-58500000D01*
X141999815Y-43081371D02*
X142179808Y-44294785D01*
X141701754Y-62248558D02*
X141288494Y-63403542D01*
X135896022Y-62706776D02*
X135457578Y-63297949D01*
X130680171Y-68531847D02*
X129700000Y-68580000D01*
X131650903Y-35752147D02*
X132602846Y-35990596D01*
X86463016Y-62909606D02*
X86042148Y-62657348D01*
X139269403Y-61482846D02*
X138938795Y-62406834D01*
X138938795Y-62406834D02*
X138519212Y-63293967D01*
X84410393Y-60856983D02*
X84200602Y-60413417D01*
X86456073Y-56935451D02*
X86384076Y-56450085D01*
X78422148Y-70277348D02*
X78028033Y-69985052D01*
X83502148Y-65197348D02*
X83108033Y-64905052D01*
X130305711Y-43287649D02*
X130536708Y-43370301D01*
X141999816Y-61058629D02*
X141701754Y-62248558D01*
X137123885Y-44864871D02*
X137160000Y-45600000D01*
X121920000Y-53340000D02*
X109220000Y-53340000D01*
X78028033Y-69985052D02*
X77664466Y-69655533D01*
X82122651Y-63817851D02*
X81870393Y-63396983D01*
X132397851Y-62657348D02*
X131976983Y-62909606D01*
X132178629Y-70879816D02*
X130965214Y-71059809D01*
X134417949Y-64337578D02*
X133826776Y-64776022D01*
X131071423Y-63284701D02*
X130595451Y-63403926D01*
X81200000Y-71120000D02*
X80709914Y-71095923D01*
X134239397Y-60413417D02*
X134029606Y-60856983D01*
X134963300Y-63843300D02*
X134417949Y-64337578D01*
X139651847Y-59560171D02*
X139507852Y-60530903D01*
X131071423Y-40855298D02*
X131533417Y-41020602D01*
X78843016Y-70529606D02*
X78422148Y-70277348D01*
X132530125Y-65469096D02*
X131837135Y-65717052D01*
X131837135Y-38422947D02*
X132530125Y-38670903D01*
X140133370Y-65564627D02*
X139402630Y-66549916D01*
X129825042Y-43192038D02*
X130067725Y-43228036D01*
X132791966Y-62365052D02*
X132397851Y-62657348D01*
X77042651Y-68897851D02*
X76790393Y-68476983D01*
X133195475Y-65154409D02*
X132530125Y-65469096D01*
X132602846Y-68149403D02*
X131650903Y-68387852D01*
X137430104Y-39216067D02*
X138014696Y-40004297D01*
X141701753Y-41891441D02*
X141999815Y-43081371D01*
X81660602Y-62953417D02*
X81495298Y-62491423D01*
X136274409Y-62075475D02*
X135896022Y-62706776D01*
X133826776Y-64776022D02*
X133195475Y-65154409D01*
X131837135Y-65717052D02*
X131123177Y-65895889D01*
X130395128Y-66003885D02*
X129660000Y-66040000D01*
X86280000Y-66040000D02*
X85789914Y-66015923D01*
X85304548Y-65943926D02*
X84828576Y-65824701D01*
X83108033Y-64905052D02*
X82744466Y-64575533D01*
X81495298Y-62491423D02*
X81376073Y-62015451D01*
X81376073Y-62015451D02*
X81304076Y-61530085D01*
X81304076Y-61530085D02*
X81280000Y-61040000D01*
X136771067Y-38488932D02*
X137430104Y-39216067D01*
X79286582Y-70739397D02*
X78843016Y-70529606D01*
X129620000Y-40640000D02*
X130110085Y-40664076D01*
X130110085Y-40664076D02*
X130595451Y-40736073D01*
X130595451Y-40736073D02*
X131071423Y-40855298D01*
X131533417Y-41020602D02*
X131976983Y-41230393D01*
X131976983Y-41230393D02*
X132397851Y-41482651D01*
X132397851Y-41482651D02*
X132791966Y-41774947D01*
X79748576Y-70904701D02*
X79286582Y-70739397D01*
X132791966Y-41774947D02*
X133155533Y-42104466D01*
X133155533Y-42104466D02*
X133485052Y-42468033D01*
X133526834Y-36321204D02*
X134413967Y-36740787D01*
X133485052Y-42468033D02*
X133777348Y-42862148D01*
X133777348Y-42862148D02*
X134029606Y-43283016D01*
X134029606Y-43283016D02*
X134239397Y-43726582D01*
X76415298Y-67571423D02*
X76296073Y-67095451D01*
X136771067Y-65651067D02*
X136043932Y-66310104D01*
X134239397Y-43726582D02*
X134404701Y-44188576D01*
X134404701Y-44188576D02*
X134523926Y-44664548D01*
X138014696Y-40004297D02*
X138519212Y-40846032D01*
X134523926Y-44664548D02*
X134595923Y-45149914D01*
X77664466Y-69655533D02*
X77334947Y-69291966D01*
X134595923Y-45149914D02*
X134620000Y-45640000D01*
X134620000Y-58500000D02*
X134595923Y-58990085D01*
X135255702Y-37245303D02*
X136043932Y-37829895D01*
X134595923Y-58990085D02*
X134523926Y-59475451D01*
X134523926Y-59475451D02*
X134404701Y-59951423D01*
X134404701Y-59951423D02*
X134239397Y-60413417D01*
X136043932Y-37829895D02*
X136771067Y-38488932D01*
X134029606Y-60856983D02*
X133777348Y-61277851D01*
X133777348Y-61277851D02*
X133485052Y-61671966D01*
X133485052Y-61671966D02*
X133155533Y-62035533D01*
X134413967Y-36740787D02*
X135255702Y-37245303D01*
X133155533Y-62035533D02*
X132791966Y-62365052D01*
X80224548Y-71023926D02*
X79748576Y-70904701D01*
X137430104Y-64923932D02*
X136771067Y-65651067D01*
X131976983Y-62909606D02*
X131533417Y-63119397D01*
X130595451Y-63403926D02*
X130110085Y-63475923D01*
X132602846Y-35990596D02*
X133526834Y-36321204D01*
X129620000Y-63500000D02*
X88820000Y-63500000D01*
X88329914Y-63475923D02*
X87844548Y-63403926D01*
X87844548Y-63403926D02*
X87368576Y-63284701D01*
X87368576Y-63284701D02*
X86906582Y-63119397D01*
X86906582Y-63119397D02*
X86463016Y-62909606D01*
X86042148Y-62657348D02*
X85648033Y-62365052D01*
X85648033Y-62365052D02*
X85284466Y-62035533D01*
X140764015Y-64512459D02*
X140133370Y-65564627D01*
X85284466Y-62035533D02*
X84954947Y-61671966D01*
X138938795Y-41733165D02*
X139269403Y-42657153D01*
X84954947Y-61671966D02*
X84662651Y-61277851D01*
X141288494Y-63403542D02*
X140764015Y-64512459D01*
X84662651Y-61277851D02*
X84410393Y-60856983D01*
X139402630Y-66549916D02*
X138578834Y-67458834D01*
X84200602Y-60413417D02*
X84035298Y-59951423D01*
X84035298Y-59951423D02*
X83916073Y-59475451D01*
X139269403Y-42657153D02*
X139507852Y-43609096D01*
X83916073Y-59475451D02*
X83844076Y-58990085D01*
X139651847Y-44579828D02*
X139700000Y-45560000D01*
X129580000Y-43180000D02*
X129825042Y-43192038D01*
X130536708Y-43370301D02*
X130758491Y-43475196D01*
X130758491Y-43475196D02*
X130968925Y-43601325D01*
X135632459Y-69644015D02*
X134523542Y-70168494D01*
X130968925Y-43601325D02*
X131165983Y-43747473D01*
X129740000Y-33020000D02*
X130965214Y-33080191D01*
X131165983Y-43747473D02*
X131347766Y-43912233D01*
X131347766Y-43912233D02*
X131512526Y-44094016D01*
X133368558Y-70581754D02*
X132178629Y-70879816D01*
X131512526Y-44094016D02*
X131658674Y-44291074D01*
X142240000Y-45520000D02*
X142240000Y-58620000D01*
X131658674Y-44291074D02*
X131784803Y-44501508D01*
X131784803Y-44501508D02*
X131889698Y-44723291D01*
X138578834Y-36681165D02*
X139402629Y-37590084D01*
X131889698Y-44723291D02*
X131972350Y-44954288D01*
X135632458Y-34495984D02*
X136684627Y-35126630D01*
X131972350Y-44954288D02*
X132031963Y-45192274D01*
X77334947Y-69291966D02*
X77042651Y-68897851D01*
X132080000Y-45680000D02*
X132080000Y-58460000D01*
X141288493Y-40736457D02*
X141701753Y-41891441D01*
X132080000Y-58460000D02*
X132067961Y-58705042D01*
X132067961Y-58705042D02*
X132031963Y-58947725D01*
X132178628Y-33260184D02*
X133368558Y-33558246D01*
X132031963Y-58947725D02*
X131972350Y-59185711D01*
X129740000Y-71120000D02*
X81200000Y-71120000D01*
X131889698Y-59416708D02*
X131784803Y-59638491D01*
X135255702Y-66894696D02*
X134413967Y-67399212D01*
X131784803Y-59638491D02*
X131658674Y-59848925D01*
X137669915Y-35857369D02*
X138578834Y-36681165D01*
X131512526Y-60045983D02*
X131347766Y-60227766D01*
X131347766Y-60227766D02*
X131165983Y-60392526D01*
X131165983Y-60392526D02*
X130968925Y-60538674D01*
X138578834Y-67458834D02*
X137669916Y-68282630D01*
X130968925Y-60538674D02*
X130758491Y-60664803D01*
X139402629Y-37590084D02*
X140133369Y-38575372D01*
X130758491Y-60664803D02*
X130536708Y-60769698D01*
X130536708Y-60769698D02*
X130305711Y-60852350D01*
X80709914Y-71095923D02*
X80224548Y-71023926D01*
X130305711Y-60852350D02*
X130067725Y-60911963D01*
X130067725Y-60911963D02*
X129825042Y-60947961D01*
X76296073Y-67095451D02*
X76224076Y-66610085D01*
X129825042Y-60947961D02*
X129580000Y-60960000D01*
X136684627Y-69013370D02*
X135632459Y-69644015D01*
X138519212Y-63293967D02*
X138014696Y-64135702D01*
X129580000Y-60960000D02*
X91360000Y-60960000D01*
X134523542Y-70168494D02*
X133368558Y-70581754D01*
X91360000Y-60960000D02*
X90869914Y-60935923D01*
X136684627Y-35126630D02*
X137669915Y-35857369D01*
X90869914Y-60935923D02*
X90384548Y-60863926D01*
X76790393Y-68476983D02*
X76580602Y-68033417D01*
X90384548Y-60863926D02*
X89908576Y-60744701D01*
X89446582Y-60579397D02*
X89003016Y-60369606D01*
X76200000Y-33020000D02*
X129740000Y-33020000D01*
X89003016Y-60369606D02*
X88582148Y-60117348D01*
X140133369Y-38575372D02*
X140764014Y-39627541D01*
X88582148Y-60117348D02*
X88188033Y-59825052D01*
X87824466Y-59495533D02*
X87494947Y-59131966D01*
X76224076Y-66610085D02*
X76200000Y-66120000D01*
X87494947Y-59131966D02*
X87202651Y-58737851D01*
X87202651Y-58737851D02*
X86950393Y-58316983D01*
X86950393Y-58316983D02*
X86740602Y-57873417D01*
X134523542Y-33971506D02*
X135632458Y-34495984D01*
X86740602Y-57873417D02*
X86575298Y-57411423D01*
X86575298Y-57411423D02*
X86456073Y-56935451D01*
X91360000Y-45720000D02*
X119380000Y-45720000D01*
X91360000Y-45720000D02*
X90869914Y-45744076D01*
X90869914Y-45744076D02*
X90384548Y-45816073D01*
X90384548Y-45816073D02*
X89908576Y-45935298D01*
X89908576Y-45935298D02*
X89446582Y-46100602D01*
X89446582Y-46100602D02*
X89003016Y-46310393D01*
X89003016Y-46310393D02*
X88582148Y-46562651D01*
X88582148Y-46562651D02*
X88188033Y-46854947D01*
X88188033Y-46854947D02*
X87824466Y-47184466D01*
X87824466Y-47184466D02*
X87494947Y-47548033D01*
X87494947Y-47548033D02*
X87202651Y-47942148D01*
X87202651Y-47942148D02*
X86950393Y-48363016D01*
X86950393Y-48363016D02*
X86740602Y-48806582D01*
X86740602Y-48806582D02*
X86575298Y-49268576D01*
X86575298Y-49268576D02*
X86456073Y-49744548D01*
X86456073Y-49744548D02*
X86384076Y-50229914D01*
X86384076Y-50229914D02*
X86360000Y-50720000D01*
X86360000Y-50720000D02*
X86360000Y-55960000D01*
X88820000Y-43180000D02*
X129580000Y-43180000D01*
X88820000Y-43180000D02*
X88329914Y-43204076D01*
X88329914Y-43204076D02*
X87844548Y-43276073D01*
X87844548Y-43276073D02*
X87368576Y-43395298D01*
X87368576Y-43395298D02*
X86906582Y-43560602D01*
X86906582Y-43560602D02*
X86463016Y-43770393D01*
X86463016Y-43770393D02*
X86042148Y-44022651D01*
X86042148Y-44022651D02*
X85648033Y-44314947D01*
X85648033Y-44314947D02*
X85284466Y-44644466D01*
X85284466Y-44644466D02*
X84954947Y-45008033D01*
X84954947Y-45008033D02*
X84662651Y-45402148D01*
X84662651Y-45402148D02*
X84410393Y-45823016D01*
X84410393Y-45823016D02*
X84200602Y-46266582D01*
X84200602Y-46266582D02*
X84035298Y-46728576D01*
X84035298Y-46728576D02*
X83916073Y-47204548D01*
X83916073Y-47204548D02*
X83844076Y-47689914D01*
X83844076Y-47689914D02*
X83820000Y-48180000D01*
X83820000Y-48180000D02*
X83820000Y-58500000D01*
X81280000Y-45640000D02*
X81280000Y-61040000D01*
X81280000Y-45640000D02*
X81304076Y-45149914D01*
X81304076Y-45149914D02*
X81376073Y-44664548D01*
X81376073Y-44664548D02*
X81495298Y-44188576D01*
X81495298Y-44188576D02*
X81660602Y-43726582D01*
X81660602Y-43726582D02*
X81870393Y-43283016D01*
X81870393Y-43283016D02*
X82122651Y-42862148D01*
X82122651Y-42862148D02*
X82414947Y-42468033D01*
X82414947Y-42468033D02*
X82744466Y-42104466D01*
X82744466Y-42104466D02*
X83108033Y-41774947D01*
X83108033Y-41774947D02*
X83502148Y-41482651D01*
X83502148Y-41482651D02*
X83923016Y-41230393D01*
X83923016Y-41230393D02*
X84366582Y-41020602D01*
X84366582Y-41020602D02*
X84828576Y-40855298D01*
X84828576Y-40855298D02*
X85304548Y-40736073D01*
X85304548Y-40736073D02*
X85789914Y-40664076D01*
X85789914Y-40664076D02*
X86280000Y-40640000D01*
X86280000Y-40640000D02*
X129620000Y-40640000D01*
X83740000Y-38100000D02*
X129660000Y-38100000D01*
X83740000Y-38100000D02*
X83249914Y-38124076D01*
X83249914Y-38124076D02*
X82764548Y-38196073D01*
X82764548Y-38196073D02*
X82288576Y-38315298D01*
X82288576Y-38315298D02*
X81826582Y-38480602D01*
X81826582Y-38480602D02*
X81383016Y-38690393D01*
X81383016Y-38690393D02*
X80962148Y-38942651D01*
X80962148Y-38942651D02*
X80568033Y-39234947D01*
X80568033Y-39234947D02*
X80204466Y-39564466D01*
X80204466Y-39564466D02*
X79874947Y-39928033D01*
X79874947Y-39928033D02*
X79582651Y-40322148D01*
X79582651Y-40322148D02*
X79330393Y-40743016D01*
X79330393Y-40743016D02*
X79120602Y-41186582D01*
X79120602Y-41186582D02*
X78955298Y-41648576D01*
X78955298Y-41648576D02*
X78836073Y-42124548D01*
X78836073Y-42124548D02*
X78764076Y-42609914D01*
X78764076Y-42609914D02*
X78740000Y-43100000D01*
X78740000Y-43100000D02*
X78740000Y-63580000D01*
X76200000Y-40560000D02*
X76200000Y-66120000D01*
X76200000Y-40560000D02*
X76224076Y-40069914D01*
X76224076Y-40069914D02*
X76296073Y-39584548D01*
X76296073Y-39584548D02*
X76415298Y-39108576D01*
X76415298Y-39108576D02*
X76580602Y-38646582D01*
X76580602Y-38646582D02*
X76790393Y-38203016D01*
X76790393Y-38203016D02*
X77042651Y-37782148D01*
X77042651Y-37782148D02*
X77334947Y-37388033D01*
X77334947Y-37388033D02*
X77664466Y-37024466D01*
X77664466Y-37024466D02*
X78028033Y-36694947D01*
X78028033Y-36694947D02*
X78422148Y-36402651D01*
X78422148Y-36402651D02*
X78843016Y-36150393D01*
X78843016Y-36150393D02*
X79286582Y-35940602D01*
X79286582Y-35940602D02*
X79748576Y-35775298D01*
X79748576Y-35775298D02*
X80224548Y-35656073D01*
X80224548Y-35656073D02*
X80709914Y-35584076D01*
X80709914Y-35584076D02*
X81200000Y-35560000D01*
X81200000Y-35560000D02*
X129700000Y-35560000D01*
D19*
X72390000Y-50800000D02*
X72390000Y-68580000D01*
%TO.N,/Refl*%
X142240000Y-116700000D02*
X137300000Y-116700000D01*
X137300000Y-116700000D02*
X137160000Y-116840000D01*
X137160000Y-116700000D02*
X132220000Y-116700000D01*
X129855000Y-116525000D02*
X129540000Y-116840000D01*
X132080000Y-116525000D02*
X129855000Y-116525000D01*
D18*
X56168220Y-104766354D02*
X55952229Y-103310257D01*
X56525894Y-106194270D02*
X56168220Y-104766354D01*
X57021807Y-107580251D02*
X56525894Y-106194270D01*
X129540000Y-116840000D02*
X70880000Y-116840000D01*
X59284843Y-111355899D02*
X58407955Y-110173553D01*
X70880000Y-116840000D02*
X69409742Y-116767770D01*
X69409742Y-116767770D02*
X67953645Y-116551779D01*
X60273398Y-112446601D02*
X59284843Y-111355899D01*
X67953645Y-116551779D02*
X66525729Y-116194105D01*
X66525729Y-116194105D02*
X65139748Y-115698192D01*
X55952229Y-103310257D02*
X55880000Y-101840000D01*
X57651181Y-108910951D02*
X57021807Y-107580251D01*
X65139748Y-115698192D02*
X63809048Y-115068818D01*
X62546446Y-114312044D02*
X61364100Y-113435156D01*
X63809048Y-115068818D02*
X62546446Y-114312044D01*
X61364100Y-113435156D02*
X60273398Y-112446601D01*
X58407955Y-110173553D02*
X57651181Y-108910951D01*
X70880000Y-71120000D02*
X71120000Y-71120000D01*
X70880000Y-71120000D02*
X69409742Y-71192229D01*
X69409742Y-71192229D02*
X67953645Y-71408220D01*
X67953645Y-71408220D02*
X66525729Y-71765894D01*
X66525729Y-71765894D02*
X65139748Y-72261807D01*
X65139748Y-72261807D02*
X63809048Y-72891181D01*
X63809048Y-72891181D02*
X62546446Y-73647955D01*
X62546446Y-73647955D02*
X61364100Y-74524843D01*
X61364100Y-74524843D02*
X60273398Y-75513398D01*
X60273398Y-75513398D02*
X59284843Y-76604100D01*
X59284843Y-76604100D02*
X58407955Y-77786446D01*
X58407955Y-77786446D02*
X57651181Y-79049048D01*
X57651181Y-79049048D02*
X57021807Y-80379748D01*
X57021807Y-80379748D02*
X56525894Y-81765729D01*
X56525894Y-81765729D02*
X56168220Y-83193645D01*
X56168220Y-83193645D02*
X55952229Y-84649742D01*
X55952229Y-84649742D02*
X55880000Y-86120000D01*
X55880000Y-86120000D02*
X55880000Y-101840000D01*
%TO.N,/Signal_In*%
X53340000Y-30480000D02*
X60937799Y-30480000D01*
D19*
%TO.N,/Signal_Out*%
X124460000Y-86360000D02*
X124460000Y-73660000D01*
D18*
X144707770Y-60130257D02*
X144780000Y-58660000D01*
X144134105Y-63014270D02*
X144491779Y-61586354D01*
X124460000Y-73660000D02*
X129780000Y-73660000D01*
X141375156Y-68175899D02*
X142252044Y-66993553D01*
X129780000Y-73660000D02*
X131250257Y-73587770D01*
X140386601Y-69266601D02*
X141375156Y-68175899D01*
X131250257Y-73587770D02*
X132706354Y-73371779D01*
X132706354Y-73371779D02*
X134134270Y-73014105D01*
X134134270Y-73014105D02*
X135520251Y-72518192D01*
X142252044Y-66993553D02*
X143008818Y-65730951D01*
X135520251Y-72518192D02*
X136850951Y-71888818D01*
X143638192Y-64400251D02*
X144134105Y-63014270D01*
X136850951Y-71888818D02*
X138113553Y-71132044D01*
X144491779Y-61586354D02*
X144707770Y-60130257D01*
X138113553Y-71132044D02*
X139295899Y-70255156D01*
X139295899Y-70255156D02*
X140386601Y-69266601D01*
X143008818Y-65730951D02*
X143638192Y-64400251D01*
X144780000Y-45480000D02*
X144780000Y-58660000D01*
X144780000Y-45480000D02*
X144707770Y-44009742D01*
X144707770Y-44009742D02*
X144491779Y-42553645D01*
X144491779Y-42553645D02*
X144134105Y-41125729D01*
X144134105Y-41125729D02*
X143638192Y-39739748D01*
X143638192Y-39739748D02*
X143008818Y-38409048D01*
X143008818Y-38409048D02*
X142252044Y-37146446D01*
X142252044Y-37146446D02*
X141375156Y-35964100D01*
X141375156Y-35964100D02*
X140386601Y-34873398D01*
X140386601Y-34873398D02*
X139295899Y-33884843D01*
X139295899Y-33884843D02*
X138113553Y-33007955D01*
X138113553Y-33007955D02*
X136850951Y-32251181D01*
X136850951Y-32251181D02*
X135520251Y-31621807D01*
X135520251Y-31621807D02*
X134134270Y-31125894D01*
X134134270Y-31125894D02*
X132706354Y-30768220D01*
X132706354Y-30768220D02*
X131250257Y-30552229D01*
X131250257Y-30552229D02*
X129780000Y-30480000D01*
X129780000Y-30480000D02*
X63500000Y-30480000D01*
X91440000Y-93980000D02*
X95773899Y-93980000D01*
X88900000Y-96520000D02*
X91440000Y-93980000D01*
X88900000Y-99060000D02*
X88900000Y-96520000D01*
X91440000Y-101600000D02*
X88900000Y-99060000D01*
X109300000Y-101600000D02*
X91440000Y-101600000D01*
X109790085Y-101575923D02*
X109300000Y-101600000D01*
X110275451Y-101503926D02*
X109790085Y-101575923D01*
X110751423Y-101384701D02*
X110275451Y-101503926D01*
X111656983Y-101009606D02*
X111213417Y-101219397D01*
X112077851Y-100757348D02*
X111656983Y-101009606D01*
X112471966Y-100465052D02*
X112077851Y-100757348D01*
X112835533Y-100135533D02*
X112471966Y-100465052D01*
X113165052Y-99771966D02*
X112835533Y-100135533D01*
X113457348Y-99377851D02*
X113165052Y-99771966D01*
X113709606Y-98956983D02*
X113457348Y-99377851D01*
X114084701Y-98051423D02*
X113919397Y-98513417D01*
X114203926Y-97575451D02*
X114084701Y-98051423D01*
X114275923Y-97090085D02*
X114203926Y-97575451D01*
X114300000Y-96600000D02*
X114275923Y-97090085D01*
X114300000Y-83820000D02*
X114300000Y-96600000D01*
X68592038Y-101885042D02*
X68580000Y-101640000D01*
X68628036Y-102127725D02*
X68592038Y-101885042D01*
X68687649Y-102365711D02*
X68628036Y-102127725D01*
X68770301Y-102596708D02*
X68687649Y-102365711D01*
X68875196Y-102818491D02*
X68770301Y-102596708D01*
X69001325Y-103028925D02*
X68875196Y-102818491D01*
X69147473Y-103225983D02*
X69001325Y-103028925D01*
X69312233Y-103407766D02*
X69147473Y-103225983D01*
X69494016Y-103572526D02*
X69312233Y-103407766D01*
X69691074Y-103718674D02*
X69494016Y-103572526D01*
X69901508Y-103844803D02*
X69691074Y-103718674D01*
X70123291Y-103949698D02*
X69901508Y-103844803D01*
X70354288Y-104032350D02*
X70123291Y-103949698D01*
X70592274Y-104091963D02*
X70354288Y-104032350D01*
X70834957Y-104127961D02*
X70592274Y-104091963D01*
X69536822Y-109075889D02*
X68822864Y-108897052D01*
X70264871Y-109183885D02*
X69536822Y-109075889D01*
X71000000Y-109220000D02*
X70264871Y-109183885D01*
X118537348Y-104457851D02*
X118245052Y-104851966D01*
X115355451Y-106583926D02*
X114870085Y-106655923D01*
X117895451Y-109123926D02*
X117410085Y-109195923D01*
X116293417Y-106299397D02*
X115831423Y-106464701D01*
X118833417Y-108839397D02*
X118371423Y-109004701D01*
X120091966Y-108085052D02*
X119697851Y-108377348D01*
X116920000Y-109220000D02*
X71000000Y-109220000D01*
X66255298Y-103131423D02*
X66136073Y-102655451D01*
X121329606Y-106576983D02*
X121077348Y-106997851D01*
X114196983Y-103549606D02*
X113753417Y-103759397D01*
X121539397Y-106133417D02*
X121329606Y-106576983D01*
X121704701Y-105671423D02*
X121539397Y-106133417D01*
X121920000Y-104220000D02*
X121895923Y-104710085D01*
X118371423Y-109004701D02*
X117895451Y-109123926D01*
X116815923Y-99630085D02*
X116743926Y-100115451D01*
X61008152Y-102740171D02*
X60960000Y-101760000D01*
X115831423Y-106464701D02*
X115355451Y-106583926D01*
X61152147Y-103710903D02*
X61008152Y-102740171D01*
X61390596Y-104662846D02*
X61152147Y-103710903D01*
X121895923Y-104710085D02*
X121823926Y-105195451D01*
X67504466Y-105215533D02*
X67174947Y-104851966D01*
X61721204Y-105586834D02*
X61390596Y-104662846D01*
X62140787Y-106473967D02*
X61721204Y-105586834D01*
X122631966Y-110625052D02*
X122237851Y-110917348D01*
X124244701Y-108211423D02*
X124079397Y-108673417D01*
X123617348Y-109537851D02*
X123325052Y-109931966D01*
X115375533Y-102675533D02*
X115011966Y-103005052D01*
X120435451Y-111663926D02*
X119950085Y-111735923D01*
X122995533Y-110295533D02*
X122631966Y-110625052D01*
X120455533Y-107755533D02*
X120091966Y-108085052D01*
X67174947Y-104851966D02*
X66882651Y-104457851D01*
X123869606Y-109116983D02*
X123617348Y-109537851D01*
X116624701Y-100591423D02*
X116459397Y-101053417D01*
X112330085Y-104115923D02*
X111840000Y-104140000D01*
X63229895Y-108103932D02*
X62645303Y-107315702D01*
X121816983Y-111169606D02*
X121373417Y-111379397D01*
X63888932Y-108831067D02*
X63229895Y-108103932D01*
X71080000Y-104140000D02*
X70834957Y-104127961D01*
X122237851Y-110917348D02*
X121816983Y-111169606D01*
X68057153Y-111329403D02*
X67133165Y-110998795D01*
X124363926Y-107735451D02*
X124244701Y-108211423D01*
X112815451Y-104043926D02*
X112330085Y-104115923D01*
X123325052Y-109931966D02*
X122995533Y-110295533D01*
X68822864Y-108897052D02*
X68129874Y-108649096D01*
X124435923Y-107250085D02*
X124363926Y-107735451D01*
X117915533Y-105215533D02*
X117551966Y-105545052D01*
X124079397Y-108673417D02*
X123869606Y-109116983D01*
X68129874Y-108649096D02*
X67464524Y-108334409D01*
X121373417Y-111379397D02*
X120911423Y-111544701D01*
X121077348Y-106997851D02*
X120785052Y-107391966D01*
X67868033Y-105545052D02*
X67504466Y-105215533D01*
X120911423Y-111544701D02*
X120435451Y-111663926D01*
X119950085Y-111735923D02*
X119460000Y-111760000D01*
X119460000Y-111760000D02*
X70960000Y-111760000D01*
X70960000Y-111760000D02*
X69979828Y-111711847D01*
X119697851Y-108377348D02*
X119276983Y-108629606D01*
X118789606Y-104036983D02*
X118537348Y-104457851D01*
X69979828Y-111711847D02*
X69009096Y-111567852D01*
X69009096Y-111567852D02*
X68057153Y-111329403D01*
X67133165Y-110998795D02*
X66246032Y-110579212D01*
X124460000Y-86360000D02*
X124460000Y-106760000D01*
X66246032Y-110579212D02*
X65404297Y-110074696D01*
X65404297Y-110074696D02*
X64616067Y-109490104D01*
X64616067Y-109490104D02*
X63888932Y-108831067D01*
X115997348Y-101917851D02*
X115705052Y-102311966D01*
X62645303Y-107315702D02*
X62140787Y-106473967D01*
X67464524Y-108334409D02*
X66833223Y-107956022D01*
X118999397Y-103593417D02*
X118789606Y-104036983D01*
X66833223Y-107956022D02*
X66242050Y-107517578D01*
X111840000Y-104140000D02*
X71080000Y-104140000D01*
X66242050Y-107517578D02*
X65696699Y-107023300D01*
X118245052Y-104851966D02*
X117915533Y-105215533D01*
X70064548Y-106583926D02*
X69588576Y-106464701D01*
X65696699Y-107023300D02*
X65202421Y-106477949D01*
X65202421Y-106477949D02*
X64763977Y-105886776D01*
X64763977Y-105886776D02*
X64385590Y-105255475D01*
X116249606Y-101496983D02*
X115997348Y-101917851D01*
X64385590Y-105255475D02*
X64070903Y-104590125D01*
X115011966Y-103005052D02*
X114617851Y-103297348D01*
X117551966Y-105545052D02*
X117157851Y-105837348D01*
X63822947Y-103897135D02*
X63644110Y-103183177D01*
X70549914Y-106655923D02*
X70064548Y-106583926D01*
X113291423Y-103924701D02*
X112815451Y-104043926D01*
X63644110Y-103183177D02*
X63536114Y-102455128D01*
X117157851Y-105837348D02*
X116736983Y-106089606D01*
X63536114Y-102455128D02*
X63500000Y-101720000D01*
X114617851Y-103297348D02*
X114196983Y-103549606D01*
X69126582Y-106299397D02*
X68683016Y-106089606D01*
X119380000Y-78740000D02*
X119380000Y-101680000D01*
X119380000Y-101680000D02*
X119355923Y-102170085D01*
X119355923Y-102170085D02*
X119283926Y-102655451D01*
X119283926Y-102655451D02*
X119164701Y-103131423D01*
X119164701Y-103131423D02*
X118999397Y-103593417D01*
X113753417Y-103759397D02*
X113291423Y-103924701D01*
X116840000Y-99140000D02*
X116815923Y-99630085D01*
X116736983Y-106089606D02*
X116293417Y-106299397D01*
X114870085Y-106655923D02*
X114380000Y-106680000D01*
X114380000Y-106680000D02*
X71040000Y-106680000D01*
X66136073Y-102655451D02*
X66064076Y-102170085D01*
X71040000Y-106680000D02*
X70549914Y-106655923D01*
X121823926Y-105195451D02*
X121704701Y-105671423D01*
X69588576Y-106464701D02*
X69126582Y-106299397D01*
X117410085Y-109195923D02*
X116920000Y-109220000D01*
X68683016Y-106089606D02*
X68262148Y-105837348D01*
X64070903Y-104590125D02*
X63822947Y-103897135D01*
X68262148Y-105837348D02*
X67868033Y-105545052D01*
X119276983Y-108629606D02*
X118833417Y-108839397D01*
X66882651Y-104457851D02*
X66630393Y-104036983D01*
X66630393Y-104036983D02*
X66420602Y-103593417D01*
X124460000Y-106760000D02*
X124435923Y-107250085D01*
X66420602Y-103593417D02*
X66255298Y-103131423D01*
X66064076Y-102170085D02*
X66040000Y-101680000D01*
X111213417Y-101219397D02*
X110751423Y-101384701D01*
X121920000Y-76200000D02*
X121920000Y-104220000D01*
X116459397Y-101053417D02*
X116249606Y-101496983D01*
X113919397Y-98513417D02*
X113709606Y-98956983D01*
X116840000Y-81280000D02*
X116840000Y-99140000D01*
X120785052Y-107391966D02*
X120455533Y-107755533D01*
X116743926Y-100115451D02*
X116624701Y-100591423D01*
X115705052Y-102311966D02*
X115375533Y-102675533D01*
X58480190Y-103025214D02*
X58420000Y-101800000D01*
X58660183Y-104238629D02*
X58480190Y-103025214D01*
X58958245Y-105428558D02*
X58660183Y-104238629D01*
X59371505Y-106583542D02*
X58958245Y-105428558D01*
X147320000Y-114300000D02*
X70920000Y-114300000D01*
X61257369Y-109729916D02*
X60526629Y-108744627D01*
X70920000Y-114300000D02*
X69694785Y-114239809D01*
X69694785Y-114239809D02*
X68481370Y-114059816D01*
X68481370Y-114059816D02*
X67291441Y-113761754D01*
X67291441Y-113761754D02*
X66136457Y-113348494D01*
X66136457Y-113348494D02*
X65027540Y-112824015D01*
X63975372Y-112193370D02*
X62990083Y-111462630D01*
X62990083Y-111462630D02*
X62081165Y-110638834D01*
X65027540Y-112824015D02*
X63975372Y-112193370D01*
X62081165Y-110638834D02*
X61257369Y-109729916D01*
X59895984Y-107692459D02*
X59371505Y-106583542D01*
X60526629Y-108744627D02*
X59895984Y-107692459D01*
X71080000Y-83820000D02*
X114300000Y-83820000D01*
X71080000Y-83820000D02*
X70834957Y-83832038D01*
X70834957Y-83832038D02*
X70592274Y-83868036D01*
X70592274Y-83868036D02*
X70354288Y-83927649D01*
X70354288Y-83927649D02*
X70123291Y-84010301D01*
X70123291Y-84010301D02*
X69901508Y-84115196D01*
X69901508Y-84115196D02*
X69691074Y-84241325D01*
X69691074Y-84241325D02*
X69494016Y-84387473D01*
X69494016Y-84387473D02*
X69312233Y-84552233D01*
X69312233Y-84552233D02*
X69147473Y-84734016D01*
X69147473Y-84734016D02*
X69001325Y-84931074D01*
X69001325Y-84931074D02*
X68875196Y-85141508D01*
X68875196Y-85141508D02*
X68770301Y-85363291D01*
X68770301Y-85363291D02*
X68687649Y-85594288D01*
X68687649Y-85594288D02*
X68628036Y-85832274D01*
X68628036Y-85832274D02*
X68592038Y-86074957D01*
X68592038Y-86074957D02*
X68580000Y-86320000D01*
X68580000Y-86320000D02*
X68580000Y-101640000D01*
X66040000Y-86280000D02*
X66040000Y-101680000D01*
X66040000Y-86280000D02*
X66064076Y-85789914D01*
X66064076Y-85789914D02*
X66136073Y-85304548D01*
X66136073Y-85304548D02*
X66255298Y-84828576D01*
X66255298Y-84828576D02*
X66420602Y-84366582D01*
X66420602Y-84366582D02*
X66630393Y-83923016D01*
X66630393Y-83923016D02*
X66882651Y-83502148D01*
X66882651Y-83502148D02*
X67174947Y-83108033D01*
X67174947Y-83108033D02*
X67504466Y-82744466D01*
X67504466Y-82744466D02*
X67868033Y-82414947D01*
X67868033Y-82414947D02*
X68262148Y-82122651D01*
X68262148Y-82122651D02*
X68683016Y-81870393D01*
X68683016Y-81870393D02*
X69126582Y-81660602D01*
X69126582Y-81660602D02*
X69588576Y-81495298D01*
X69588576Y-81495298D02*
X70064548Y-81376073D01*
X70064548Y-81376073D02*
X70549914Y-81304076D01*
X70549914Y-81304076D02*
X71040000Y-81280000D01*
X71040000Y-81280000D02*
X116840000Y-81280000D01*
X63500000Y-86240000D02*
X63500000Y-101720000D01*
X63500000Y-86240000D02*
X63536114Y-85504871D01*
X63536114Y-85504871D02*
X63644110Y-84776822D01*
X63644110Y-84776822D02*
X63822947Y-84062864D01*
X63822947Y-84062864D02*
X64070903Y-83369874D01*
X64070903Y-83369874D02*
X64385590Y-82704524D01*
X64385590Y-82704524D02*
X64763977Y-82073223D01*
X64763977Y-82073223D02*
X65202421Y-81482050D01*
X65202421Y-81482050D02*
X65696699Y-80936699D01*
X65696699Y-80936699D02*
X66242050Y-80442421D01*
X66242050Y-80442421D02*
X66833223Y-80003977D01*
X66833223Y-80003977D02*
X67464524Y-79625590D01*
X67464524Y-79625590D02*
X68129874Y-79310903D01*
X68129874Y-79310903D02*
X68822864Y-79062947D01*
X68822864Y-79062947D02*
X69536822Y-78884110D01*
X69536822Y-78884110D02*
X70264871Y-78776114D01*
X70264871Y-78776114D02*
X71000000Y-78740000D01*
X71000000Y-78740000D02*
X119380000Y-78740000D01*
X70960000Y-76200000D02*
X121920000Y-76200000D01*
X70960000Y-76200000D02*
X69979828Y-76248152D01*
X69979828Y-76248152D02*
X69009096Y-76392147D01*
X69009096Y-76392147D02*
X68057153Y-76630596D01*
X68057153Y-76630596D02*
X67133165Y-76961204D01*
X67133165Y-76961204D02*
X66246032Y-77380787D01*
X66246032Y-77380787D02*
X65404297Y-77885303D01*
X65404297Y-77885303D02*
X64616067Y-78469895D01*
X64616067Y-78469895D02*
X63888932Y-79128932D01*
X63888932Y-79128932D02*
X63229895Y-79856067D01*
X63229895Y-79856067D02*
X62645303Y-80644297D01*
X62645303Y-80644297D02*
X62140787Y-81486032D01*
X62140787Y-81486032D02*
X61721204Y-82373165D01*
X61721204Y-82373165D02*
X61390596Y-83297153D01*
X61390596Y-83297153D02*
X61152147Y-84249096D01*
X61152147Y-84249096D02*
X61008152Y-85219828D01*
X61008152Y-85219828D02*
X60960000Y-86200000D01*
X60960000Y-86200000D02*
X60960000Y-101760000D01*
X58420000Y-86160000D02*
X58420000Y-101800000D01*
X58420000Y-86160000D02*
X58480190Y-84934785D01*
X58480190Y-84934785D02*
X58660183Y-83721370D01*
X58660183Y-83721370D02*
X58958245Y-82531441D01*
X58958245Y-82531441D02*
X59371505Y-81376457D01*
X59371505Y-81376457D02*
X59895984Y-80267540D01*
X59895984Y-80267540D02*
X60526629Y-79215372D01*
X60526629Y-79215372D02*
X61257369Y-78230083D01*
X61257369Y-78230083D02*
X62081165Y-77321165D01*
X62081165Y-77321165D02*
X62990083Y-76497369D01*
X62990083Y-76497369D02*
X63975372Y-75766629D01*
X63975372Y-75766629D02*
X65027540Y-75135984D01*
X65027540Y-75135984D02*
X66136457Y-74611505D01*
X66136457Y-74611505D02*
X67291441Y-74198245D01*
X67291441Y-74198245D02*
X68481370Y-73900183D01*
X68481370Y-73900183D02*
X69694785Y-73720190D01*
X69694785Y-73720190D02*
X70920000Y-73660000D01*
X70920000Y-73660000D02*
X124460000Y-73660000D01*
%TD*%
D20*
%TO.N,GND*%
X57023000Y-46863000D02*
X56947784Y-46863000D01*
X56945000Y-46408250D01*
X56786250Y-46249500D01*
X54737000Y-46249500D01*
X54737000Y-46269500D01*
X54483000Y-46269500D01*
X54483000Y-46249500D01*
X52433750Y-46249500D01*
X52275000Y-46408250D01*
X52272216Y-46863000D01*
X52222000Y-46863000D01*
X52222000Y-45335000D01*
X52271928Y-45335000D01*
X52275000Y-45836750D01*
X52433750Y-45995500D01*
X54483000Y-45995500D01*
X54483000Y-44858750D01*
X54737000Y-44858750D01*
X54737000Y-45995500D01*
X56786250Y-45995500D01*
X56945000Y-45836750D01*
X56948072Y-45335000D01*
X56935812Y-45210518D01*
X56899502Y-45090820D01*
X56840537Y-44980506D01*
X56761185Y-44883815D01*
X56664494Y-44804463D01*
X56554180Y-44745498D01*
X56434482Y-44709188D01*
X56310000Y-44696928D01*
X54895750Y-44700000D01*
X54737000Y-44858750D01*
X54483000Y-44858750D01*
X54324250Y-44700000D01*
X52910000Y-44696928D01*
X52785518Y-44709188D01*
X52665820Y-44745498D01*
X52555506Y-44804463D01*
X52458815Y-44883815D01*
X52379463Y-44980506D01*
X52320498Y-45090820D01*
X52284188Y-45210518D01*
X52271928Y-45335000D01*
X52222000Y-45335000D01*
X52222000Y-41965000D01*
X53411928Y-41965000D01*
X53424188Y-42089482D01*
X53460498Y-42209180D01*
X53519463Y-42319494D01*
X53598815Y-42416185D01*
X53695506Y-42495537D01*
X53805820Y-42554502D01*
X53925518Y-42590812D01*
X54050000Y-42603072D01*
X54464250Y-42600000D01*
X54623000Y-42441250D01*
X54623000Y-40767000D01*
X54877000Y-40767000D01*
X54877000Y-42441250D01*
X55035750Y-42600000D01*
X55450000Y-42603072D01*
X55574482Y-42590812D01*
X55694180Y-42554502D01*
X55804494Y-42495537D01*
X55901185Y-42416185D01*
X55980537Y-42319494D01*
X56039502Y-42209180D01*
X56075812Y-42089482D01*
X56088072Y-41965000D01*
X56085000Y-40925750D01*
X55926250Y-40767000D01*
X54877000Y-40767000D01*
X54623000Y-40767000D01*
X53573750Y-40767000D01*
X53415000Y-40925750D01*
X53411928Y-41965000D01*
X52222000Y-41965000D01*
X52222000Y-39315000D01*
X53411928Y-39315000D01*
X53415000Y-40354250D01*
X53573750Y-40513000D01*
X54623000Y-40513000D01*
X54623000Y-38838750D01*
X54877000Y-38838750D01*
X54877000Y-40513000D01*
X55926250Y-40513000D01*
X56085000Y-40354250D01*
X56088072Y-39315000D01*
X56075812Y-39190518D01*
X56039502Y-39070820D01*
X55980537Y-38960506D01*
X55901185Y-38863815D01*
X55804494Y-38784463D01*
X55694180Y-38725498D01*
X55574482Y-38689188D01*
X55450000Y-38676928D01*
X55035750Y-38680000D01*
X54877000Y-38838750D01*
X54623000Y-38838750D01*
X54464250Y-38680000D01*
X54050000Y-38676928D01*
X53925518Y-38689188D01*
X53805820Y-38725498D01*
X53695506Y-38784463D01*
X53598815Y-38863815D01*
X53519463Y-38960506D01*
X53460498Y-39070820D01*
X53424188Y-39190518D01*
X53411928Y-39315000D01*
X52222000Y-39315000D01*
X52222000Y-36885000D01*
X53411928Y-36885000D01*
X53424188Y-37009482D01*
X53460498Y-37129180D01*
X53519463Y-37239494D01*
X53598815Y-37336185D01*
X53695506Y-37415537D01*
X53805820Y-37474502D01*
X53925518Y-37510812D01*
X54050000Y-37523072D01*
X54464250Y-37520000D01*
X54623000Y-37361250D01*
X54623000Y-35687000D01*
X54877000Y-35687000D01*
X54877000Y-37361250D01*
X55035750Y-37520000D01*
X55450000Y-37523072D01*
X55574482Y-37510812D01*
X55694180Y-37474502D01*
X55804494Y-37415537D01*
X55901185Y-37336185D01*
X55980537Y-37239494D01*
X56039502Y-37129180D01*
X56075812Y-37009482D01*
X56088072Y-36885000D01*
X56085000Y-35845750D01*
X55926250Y-35687000D01*
X54877000Y-35687000D01*
X54623000Y-35687000D01*
X53573750Y-35687000D01*
X53415000Y-35845750D01*
X53411928Y-36885000D01*
X52222000Y-36885000D01*
X52222000Y-34235000D01*
X53411928Y-34235000D01*
X53415000Y-35274250D01*
X53573750Y-35433000D01*
X54623000Y-35433000D01*
X54623000Y-33758750D01*
X54877000Y-33758750D01*
X54877000Y-35433000D01*
X55926250Y-35433000D01*
X56085000Y-35274250D01*
X56088072Y-34235000D01*
X56075812Y-34110518D01*
X56039502Y-33990820D01*
X55980537Y-33880506D01*
X55901185Y-33783815D01*
X55804494Y-33704463D01*
X55694180Y-33645498D01*
X55574482Y-33609188D01*
X55450000Y-33596928D01*
X55035750Y-33600000D01*
X54877000Y-33758750D01*
X54623000Y-33758750D01*
X54464250Y-33600000D01*
X54050000Y-33596928D01*
X53925518Y-33609188D01*
X53805820Y-33645498D01*
X53695506Y-33704463D01*
X53598815Y-33783815D01*
X53519463Y-33880506D01*
X53460498Y-33990820D01*
X53424188Y-34110518D01*
X53411928Y-34235000D01*
X52222000Y-34235000D01*
X52222000Y-33147000D01*
X57023000Y-33147000D01*
X57023000Y-46863000D01*
%TA.AperFunction,Conductor*%
D21*
G36*
X57023000Y-46863000D02*
G01*
X56947784Y-46863000D01*
X56945000Y-46408250D01*
X56786250Y-46249500D01*
X54737000Y-46249500D01*
X54737000Y-46269500D01*
X54483000Y-46269500D01*
X54483000Y-46249500D01*
X52433750Y-46249500D01*
X52275000Y-46408250D01*
X52272216Y-46863000D01*
X52222000Y-46863000D01*
X52222000Y-45335000D01*
X52271928Y-45335000D01*
X52275000Y-45836750D01*
X52433750Y-45995500D01*
X54483000Y-45995500D01*
X54483000Y-44858750D01*
X54737000Y-44858750D01*
X54737000Y-45995500D01*
X56786250Y-45995500D01*
X56945000Y-45836750D01*
X56948072Y-45335000D01*
X56935812Y-45210518D01*
X56899502Y-45090820D01*
X56840537Y-44980506D01*
X56761185Y-44883815D01*
X56664494Y-44804463D01*
X56554180Y-44745498D01*
X56434482Y-44709188D01*
X56310000Y-44696928D01*
X54895750Y-44700000D01*
X54737000Y-44858750D01*
X54483000Y-44858750D01*
X54324250Y-44700000D01*
X52910000Y-44696928D01*
X52785518Y-44709188D01*
X52665820Y-44745498D01*
X52555506Y-44804463D01*
X52458815Y-44883815D01*
X52379463Y-44980506D01*
X52320498Y-45090820D01*
X52284188Y-45210518D01*
X52271928Y-45335000D01*
X52222000Y-45335000D01*
X52222000Y-41965000D01*
X53411928Y-41965000D01*
X53424188Y-42089482D01*
X53460498Y-42209180D01*
X53519463Y-42319494D01*
X53598815Y-42416185D01*
X53695506Y-42495537D01*
X53805820Y-42554502D01*
X53925518Y-42590812D01*
X54050000Y-42603072D01*
X54464250Y-42600000D01*
X54623000Y-42441250D01*
X54623000Y-40767000D01*
X54877000Y-40767000D01*
X54877000Y-42441250D01*
X55035750Y-42600000D01*
X55450000Y-42603072D01*
X55574482Y-42590812D01*
X55694180Y-42554502D01*
X55804494Y-42495537D01*
X55901185Y-42416185D01*
X55980537Y-42319494D01*
X56039502Y-42209180D01*
X56075812Y-42089482D01*
X56088072Y-41965000D01*
X56085000Y-40925750D01*
X55926250Y-40767000D01*
X54877000Y-40767000D01*
X54623000Y-40767000D01*
X53573750Y-40767000D01*
X53415000Y-40925750D01*
X53411928Y-41965000D01*
X52222000Y-41965000D01*
X52222000Y-39315000D01*
X53411928Y-39315000D01*
X53415000Y-40354250D01*
X53573750Y-40513000D01*
X54623000Y-40513000D01*
X54623000Y-38838750D01*
X54877000Y-38838750D01*
X54877000Y-40513000D01*
X55926250Y-40513000D01*
X56085000Y-40354250D01*
X56088072Y-39315000D01*
X56075812Y-39190518D01*
X56039502Y-39070820D01*
X55980537Y-38960506D01*
X55901185Y-38863815D01*
X55804494Y-38784463D01*
X55694180Y-38725498D01*
X55574482Y-38689188D01*
X55450000Y-38676928D01*
X55035750Y-38680000D01*
X54877000Y-38838750D01*
X54623000Y-38838750D01*
X54464250Y-38680000D01*
X54050000Y-38676928D01*
X53925518Y-38689188D01*
X53805820Y-38725498D01*
X53695506Y-38784463D01*
X53598815Y-38863815D01*
X53519463Y-38960506D01*
X53460498Y-39070820D01*
X53424188Y-39190518D01*
X53411928Y-39315000D01*
X52222000Y-39315000D01*
X52222000Y-36885000D01*
X53411928Y-36885000D01*
X53424188Y-37009482D01*
X53460498Y-37129180D01*
X53519463Y-37239494D01*
X53598815Y-37336185D01*
X53695506Y-37415537D01*
X53805820Y-37474502D01*
X53925518Y-37510812D01*
X54050000Y-37523072D01*
X54464250Y-37520000D01*
X54623000Y-37361250D01*
X54623000Y-35687000D01*
X54877000Y-35687000D01*
X54877000Y-37361250D01*
X55035750Y-37520000D01*
X55450000Y-37523072D01*
X55574482Y-37510812D01*
X55694180Y-37474502D01*
X55804494Y-37415537D01*
X55901185Y-37336185D01*
X55980537Y-37239494D01*
X56039502Y-37129180D01*
X56075812Y-37009482D01*
X56088072Y-36885000D01*
X56085000Y-35845750D01*
X55926250Y-35687000D01*
X54877000Y-35687000D01*
X54623000Y-35687000D01*
X53573750Y-35687000D01*
X53415000Y-35845750D01*
X53411928Y-36885000D01*
X52222000Y-36885000D01*
X52222000Y-34235000D01*
X53411928Y-34235000D01*
X53415000Y-35274250D01*
X53573750Y-35433000D01*
X54623000Y-35433000D01*
X54623000Y-33758750D01*
X54877000Y-33758750D01*
X54877000Y-35433000D01*
X55926250Y-35433000D01*
X56085000Y-35274250D01*
X56088072Y-34235000D01*
X56075812Y-34110518D01*
X56039502Y-33990820D01*
X55980537Y-33880506D01*
X55901185Y-33783815D01*
X55804494Y-33704463D01*
X55694180Y-33645498D01*
X55574482Y-33609188D01*
X55450000Y-33596928D01*
X55035750Y-33600000D01*
X54877000Y-33758750D01*
X54623000Y-33758750D01*
X54464250Y-33600000D01*
X54050000Y-33596928D01*
X53925518Y-33609188D01*
X53805820Y-33645498D01*
X53695506Y-33704463D01*
X53598815Y-33783815D01*
X53519463Y-33880506D01*
X53460498Y-33990820D01*
X53424188Y-34110518D01*
X53411928Y-34235000D01*
X52222000Y-34235000D01*
X52222000Y-33147000D01*
X57023000Y-33147000D01*
X57023000Y-46863000D01*
G37*
%TD.AperFunction*%
%TD*%
D20*
%TO.N,GND*%
X148438000Y-111633000D02*
X144181250Y-111633000D01*
X144200000Y-111614250D01*
X144203072Y-111200000D01*
X144190812Y-111075518D01*
X144154502Y-110955820D01*
X144095537Y-110845506D01*
X144016185Y-110748815D01*
X143919494Y-110669463D01*
X143809180Y-110610498D01*
X143689482Y-110574188D01*
X143565000Y-110561928D01*
X142525750Y-110565000D01*
X142367000Y-110723750D01*
X142367000Y-111633000D01*
X142113000Y-111633000D01*
X142113000Y-110723750D01*
X141954250Y-110565000D01*
X140915000Y-110561928D01*
X140790518Y-110574188D01*
X140670820Y-110610498D01*
X140560506Y-110669463D01*
X140463815Y-110748815D01*
X140384463Y-110845506D01*
X140325498Y-110955820D01*
X140289188Y-111075518D01*
X140276928Y-111200000D01*
X140280000Y-111614250D01*
X140298750Y-111633000D01*
X139101250Y-111633000D01*
X139120000Y-111614250D01*
X139123072Y-111200000D01*
X139110812Y-111075518D01*
X139074502Y-110955820D01*
X139015537Y-110845506D01*
X138936185Y-110748815D01*
X138839494Y-110669463D01*
X138729180Y-110610498D01*
X138609482Y-110574188D01*
X138485000Y-110561928D01*
X137445750Y-110565000D01*
X137287000Y-110723750D01*
X137287000Y-111633000D01*
X137033000Y-111633000D01*
X137033000Y-110723750D01*
X136874250Y-110565000D01*
X136017000Y-110562466D01*
X136017000Y-109017784D01*
X136471750Y-109015000D01*
X136630500Y-108856250D01*
X136630500Y-106807000D01*
X136884500Y-106807000D01*
X136884500Y-108856250D01*
X137043250Y-109015000D01*
X137545000Y-109018072D01*
X137669482Y-109005812D01*
X137789180Y-108969502D01*
X137899494Y-108910537D01*
X137996185Y-108831185D01*
X138075537Y-108734494D01*
X138134502Y-108624180D01*
X138170812Y-108504482D01*
X138183072Y-108380000D01*
X138180000Y-106965750D01*
X138021250Y-106807000D01*
X136884500Y-106807000D01*
X136630500Y-106807000D01*
X136610500Y-106807000D01*
X136610500Y-106553000D01*
X136630500Y-106553000D01*
X136630500Y-106533000D01*
X136884500Y-106533000D01*
X136884500Y-106553000D01*
X138021250Y-106553000D01*
X138180000Y-106394250D01*
X138183072Y-104980000D01*
X138180488Y-104953759D01*
X141399999Y-104953759D01*
X141722632Y-104921982D01*
X142032866Y-104827874D01*
X142318779Y-104675050D01*
X142569384Y-104469384D01*
X142775050Y-104218779D01*
X142927874Y-103932866D01*
X143021982Y-103622632D01*
X143053759Y-103299999D01*
X143053759Y-99900001D01*
X143021982Y-99577368D01*
X142927874Y-99267134D01*
X142885041Y-99187000D01*
X148438000Y-99187000D01*
X148438000Y-111633000D01*
%TA.AperFunction,Conductor*%
D21*
G36*
X148438000Y-111633000D02*
G01*
X144181250Y-111633000D01*
X144200000Y-111614250D01*
X144203072Y-111200000D01*
X144190812Y-111075518D01*
X144154502Y-110955820D01*
X144095537Y-110845506D01*
X144016185Y-110748815D01*
X143919494Y-110669463D01*
X143809180Y-110610498D01*
X143689482Y-110574188D01*
X143565000Y-110561928D01*
X142525750Y-110565000D01*
X142367000Y-110723750D01*
X142367000Y-111633000D01*
X142113000Y-111633000D01*
X142113000Y-110723750D01*
X141954250Y-110565000D01*
X140915000Y-110561928D01*
X140790518Y-110574188D01*
X140670820Y-110610498D01*
X140560506Y-110669463D01*
X140463815Y-110748815D01*
X140384463Y-110845506D01*
X140325498Y-110955820D01*
X140289188Y-111075518D01*
X140276928Y-111200000D01*
X140280000Y-111614250D01*
X140298750Y-111633000D01*
X139101250Y-111633000D01*
X139120000Y-111614250D01*
X139123072Y-111200000D01*
X139110812Y-111075518D01*
X139074502Y-110955820D01*
X139015537Y-110845506D01*
X138936185Y-110748815D01*
X138839494Y-110669463D01*
X138729180Y-110610498D01*
X138609482Y-110574188D01*
X138485000Y-110561928D01*
X137445750Y-110565000D01*
X137287000Y-110723750D01*
X137287000Y-111633000D01*
X137033000Y-111633000D01*
X137033000Y-110723750D01*
X136874250Y-110565000D01*
X136017000Y-110562466D01*
X136017000Y-109017784D01*
X136471750Y-109015000D01*
X136630500Y-108856250D01*
X136630500Y-106807000D01*
X136884500Y-106807000D01*
X136884500Y-108856250D01*
X137043250Y-109015000D01*
X137545000Y-109018072D01*
X137669482Y-109005812D01*
X137789180Y-108969502D01*
X137899494Y-108910537D01*
X137996185Y-108831185D01*
X138075537Y-108734494D01*
X138134502Y-108624180D01*
X138170812Y-108504482D01*
X138183072Y-108380000D01*
X138180000Y-106965750D01*
X138021250Y-106807000D01*
X136884500Y-106807000D01*
X136630500Y-106807000D01*
X136610500Y-106807000D01*
X136610500Y-106553000D01*
X136630500Y-106553000D01*
X136630500Y-106533000D01*
X136884500Y-106533000D01*
X136884500Y-106553000D01*
X138021250Y-106553000D01*
X138180000Y-106394250D01*
X138183072Y-104980000D01*
X138180488Y-104953759D01*
X141399999Y-104953759D01*
X141722632Y-104921982D01*
X142032866Y-104827874D01*
X142318779Y-104675050D01*
X142569384Y-104469384D01*
X142775050Y-104218779D01*
X142927874Y-103932866D01*
X143021982Y-103622632D01*
X143053759Y-103299999D01*
X143053759Y-99900001D01*
X143021982Y-99577368D01*
X142927874Y-99267134D01*
X142885041Y-99187000D01*
X148438000Y-99187000D01*
X148438000Y-111633000D01*
G37*
%TD.AperFunction*%
%TD*%
M02*
