%TF.GenerationSoftware,KiCad,Pcbnew,(5.1.12)-1*%
%TF.CreationDate,2021-12-02T17:45:38+10:30*%
%TF.ProjectId,SWR_02,5357525f-3032-42e6-9b69-6361645f7063,2*%
%TF.SameCoordinates,Original*%
%TF.FileFunction,Soldermask,Top*%
%TF.FilePolarity,Negative*%
%FSLAX46Y46*%
G04 Gerber Fmt 4.6, Leading zero omitted, Abs format (unit mm)*
G04 Created by KiCad (PCBNEW (5.1.12)-1) date 2021-12-02 17:45:38*
%MOMM*%
%LPD*%
G01*
G04 APERTURE LIST*
%ADD10R,2.032000X2.159000*%
%ADD11R,2.159000X2.032000*%
%ADD12R,4.572000X2.184400*%
%ADD13C,5.000000*%
%ADD14C,2.900000*%
%ADD15R,0.900000X1.200000*%
%ADD16R,1.200000X0.900000*%
G04 APERTURE END LIST*
D10*
%TO.C,L1A1*%
X63500000Y-30480000D03*
%TD*%
%TO.C,L1A2*%
X120650000Y-43180000D03*
%TD*%
D11*
%TO.C,L2A1*%
X88900000Y-63500000D03*
%TD*%
D10*
%TO.C,L2A2*%
X98425000Y-86360000D03*
%TD*%
D12*
%TO.C,J2*%
X147320000Y-76200000D03*
%TD*%
%TO.C,J1*%
X53340000Y-30480000D03*
%TD*%
D13*
%TO.C,H2*%
X54610000Y-111760000D03*
D14*
X54610000Y-111760000D03*
%TD*%
D13*
%TO.C,H1*%
X146050000Y-29210000D03*
D14*
X146050000Y-29210000D03*
%TD*%
%TO.C,C1*%
G36*
G01*
X53159998Y-52150000D02*
X56060002Y-52150000D01*
G75*
G02*
X56310000Y-52399998I0J-249998D01*
G01*
X56310000Y-53475002D01*
G75*
G02*
X56060002Y-53725000I-249998J0D01*
G01*
X53159998Y-53725000D01*
G75*
G02*
X52910000Y-53475002I0J249998D01*
G01*
X52910000Y-52399998D01*
G75*
G02*
X53159998Y-52150000I249998J0D01*
G01*
G37*
G36*
G01*
X53159998Y-47875000D02*
X56060002Y-47875000D01*
G75*
G02*
X56310000Y-48124998I0J-249998D01*
G01*
X56310000Y-49200002D01*
G75*
G02*
X56060002Y-49450000I-249998J0D01*
G01*
X53159998Y-49450000D01*
G75*
G02*
X52910000Y-49200002I0J249998D01*
G01*
X52910000Y-48124998D01*
G75*
G02*
X53159998Y-47875000I249998J0D01*
G01*
G37*
%TD*%
%TO.C,R1*%
G36*
G01*
X60250000Y-34484999D02*
X60250000Y-36635001D01*
G75*
G02*
X60000001Y-36885000I-249999J0D01*
G01*
X59099999Y-36885000D01*
G75*
G02*
X58850000Y-36635001I0J249999D01*
G01*
X58850000Y-34484999D01*
G75*
G02*
X59099999Y-34235000I249999J0D01*
G01*
X60000001Y-34235000D01*
G75*
G02*
X60250000Y-34484999I0J-249999D01*
G01*
G37*
G36*
G01*
X55450000Y-34484999D02*
X55450000Y-36635001D01*
G75*
G02*
X55200001Y-36885000I-249999J0D01*
G01*
X54299999Y-36885000D01*
G75*
G02*
X54050000Y-36635001I0J249999D01*
G01*
X54050000Y-34484999D01*
G75*
G02*
X54299999Y-34235000I249999J0D01*
G01*
X55200001Y-34235000D01*
G75*
G02*
X55450000Y-34484999I0J-249999D01*
G01*
G37*
%TD*%
%TO.C,R2*%
G36*
G01*
X55450000Y-40834999D02*
X55450000Y-42985001D01*
G75*
G02*
X55200001Y-43235000I-249999J0D01*
G01*
X54299999Y-43235000D01*
G75*
G02*
X54050000Y-42985001I0J249999D01*
G01*
X54050000Y-40834999D01*
G75*
G02*
X54299999Y-40585000I249999J0D01*
G01*
X55200001Y-40585000D01*
G75*
G02*
X55450000Y-40834999I0J-249999D01*
G01*
G37*
G36*
G01*
X60250000Y-40834999D02*
X60250000Y-42985001D01*
G75*
G02*
X60000001Y-43235000I-249999J0D01*
G01*
X59099999Y-43235000D01*
G75*
G02*
X58850000Y-42985001I0J249999D01*
G01*
X58850000Y-40834999D01*
G75*
G02*
X59099999Y-40585000I249999J0D01*
G01*
X60000001Y-40585000D01*
G75*
G02*
X60250000Y-40834999I0J-249999D01*
G01*
G37*
%TD*%
%TO.C,R3*%
G36*
G01*
X138235001Y-91010000D02*
X136084999Y-91010000D01*
G75*
G02*
X135835000Y-90760001I0J249999D01*
G01*
X135835000Y-89859999D01*
G75*
G02*
X136084999Y-89610000I249999J0D01*
G01*
X138235001Y-89610000D01*
G75*
G02*
X138485000Y-89859999I0J-249999D01*
G01*
X138485000Y-90760001D01*
G75*
G02*
X138235001Y-91010000I-249999J0D01*
G01*
G37*
G36*
G01*
X138235001Y-95810000D02*
X136084999Y-95810000D01*
G75*
G02*
X135835000Y-95560001I0J249999D01*
G01*
X135835000Y-94659999D01*
G75*
G02*
X136084999Y-94410000I249999J0D01*
G01*
X138235001Y-94410000D01*
G75*
G02*
X138485000Y-94659999I0J-249999D01*
G01*
X138485000Y-95560001D01*
G75*
G02*
X138235001Y-95810000I-249999J0D01*
G01*
G37*
%TD*%
%TO.C,R4*%
G36*
G01*
X144585001Y-95810000D02*
X142434999Y-95810000D01*
G75*
G02*
X142185000Y-95560001I0J249999D01*
G01*
X142185000Y-94659999D01*
G75*
G02*
X142434999Y-94410000I249999J0D01*
G01*
X144585001Y-94410000D01*
G75*
G02*
X144835000Y-94659999I0J-249999D01*
G01*
X144835000Y-95560001D01*
G75*
G02*
X144585001Y-95810000I-249999J0D01*
G01*
G37*
G36*
G01*
X144585001Y-91010000D02*
X142434999Y-91010000D01*
G75*
G02*
X142185000Y-90760001I0J249999D01*
G01*
X142185000Y-89859999D01*
G75*
G02*
X142434999Y-89610000I249999J0D01*
G01*
X144585001Y-89610000D01*
G75*
G02*
X144835000Y-89859999I0J-249999D01*
G01*
X144835000Y-90760001D01*
G75*
G02*
X144585001Y-91010000I-249999J0D01*
G01*
G37*
%TD*%
%TO.C,J3*%
G36*
G01*
X53335000Y-59445001D02*
X53335000Y-57394999D01*
G75*
G02*
X53584999Y-57145000I249999J0D01*
G01*
X55635001Y-57145000D01*
G75*
G02*
X55885000Y-57394999I0J-249999D01*
G01*
X55885000Y-59445001D01*
G75*
G02*
X55635001Y-59695000I-249999J0D01*
G01*
X53584999Y-59695000D01*
G75*
G02*
X53335000Y-59445001I0J249999D01*
G01*
G37*
%TD*%
%TO.C,J4*%
G36*
G01*
X135885000Y-110245001D02*
X135885000Y-108194999D01*
G75*
G02*
X136134999Y-107945000I249999J0D01*
G01*
X138185001Y-107945000D01*
G75*
G02*
X138435000Y-108194999I0J-249999D01*
G01*
X138435000Y-110245001D01*
G75*
G02*
X138185001Y-110495000I-249999J0D01*
G01*
X136134999Y-110495000D01*
G75*
G02*
X135885000Y-110245001I0J249999D01*
G01*
G37*
%TD*%
%TO.C,C2*%
G36*
G01*
X141855000Y-104320001D02*
X141855000Y-101419999D01*
G75*
G02*
X142104999Y-101170000I249999J0D01*
G01*
X143180001Y-101170000D01*
G75*
G02*
X143430000Y-101419999I0J-249999D01*
G01*
X143430000Y-104320001D01*
G75*
G02*
X143180001Y-104570000I-249999J0D01*
G01*
X142104999Y-104570000D01*
G75*
G02*
X141855000Y-104320001I0J249999D01*
G01*
G37*
G36*
G01*
X146130000Y-104320001D02*
X146130000Y-101419999D01*
G75*
G02*
X146379999Y-101170000I249999J0D01*
G01*
X147455001Y-101170000D01*
G75*
G02*
X147705000Y-101419999I0J-249999D01*
G01*
X147705000Y-104320001D01*
G75*
G02*
X147455001Y-104570000I-249999J0D01*
G01*
X146379999Y-104570000D01*
G75*
G02*
X146130000Y-104320001I0J249999D01*
G01*
G37*
%TD*%
D15*
%TO.C,D1*%
X59310000Y-50800000D03*
X62610000Y-50800000D03*
%TD*%
D16*
%TO.C,D2*%
X137160000Y-99950000D03*
X137160000Y-103250000D03*
%TD*%
D14*
%TO.C,H3*%
X146050000Y-111760000D03*
D13*
X146050000Y-111760000D03*
%TD*%
M02*
