%FSLAX45Y45*%
G04 Gerber Fmt 4.5, Leading zero omitted, Abs format (unit mm)*
G04 Created by KiCad (PCBNEW (5.1.12)-1) date 2021-11-29 17:29:29*
%MOMM*%
%LPD*%
G01*
G04 APERTURE LIST*
%TA.AperFunction,Profile*%
%ADD10C,0.050000*%
%TD*%
%ADD11C,0.200000*%
%ADD12C,0.300000*%
G04 APERTURE END LIST*
D10*
X14986000Y-12192000D02*
X14986000Y-2540000D01*
X5080000Y-12192000D02*
X14986000Y-12192000D01*
X15036800Y-2540000D02*
X15240000Y-2540000D01*
X15036800Y-2540000D02*
X5080000Y-2540000D01*
X5080000Y-2540000D02*
X5080000Y-12192000D01*
D11*
D12*
X5363928Y-12660214D02*
X5363928Y-12360214D01*
X5435357Y-12360214D01*
X5478214Y-12374500D01*
X5506786Y-12403071D01*
X5521071Y-12431643D01*
X5535357Y-12488786D01*
X5535357Y-12531643D01*
X5521071Y-12588786D01*
X5506786Y-12617357D01*
X5478214Y-12645929D01*
X5435357Y-12660214D01*
X5363928Y-12660214D01*
X5663928Y-12660214D02*
X5663928Y-12460214D01*
X5663928Y-12517357D02*
X5678214Y-12488786D01*
X5692500Y-12474500D01*
X5721071Y-12460214D01*
X5749643Y-12460214D01*
X5849643Y-12660214D02*
X5849643Y-12460214D01*
X5849643Y-12360214D02*
X5835357Y-12374500D01*
X5849643Y-12388786D01*
X5863928Y-12374500D01*
X5849643Y-12360214D01*
X5849643Y-12388786D01*
X6035357Y-12660214D02*
X6006786Y-12645929D01*
X5992500Y-12617357D01*
X5992500Y-12360214D01*
X6192500Y-12660214D02*
X6163928Y-12645929D01*
X6149643Y-12617357D01*
X6149643Y-12360214D01*
X6535357Y-12660214D02*
X6535357Y-12360214D01*
X6635357Y-12574500D01*
X6735357Y-12360214D01*
X6735357Y-12660214D01*
X7006786Y-12660214D02*
X7006786Y-12503071D01*
X6992500Y-12474500D01*
X6963928Y-12460214D01*
X6906786Y-12460214D01*
X6878214Y-12474500D01*
X7006786Y-12645929D02*
X6978214Y-12660214D01*
X6906786Y-12660214D01*
X6878214Y-12645929D01*
X6863928Y-12617357D01*
X6863928Y-12588786D01*
X6878214Y-12560214D01*
X6906786Y-12545929D01*
X6978214Y-12545929D01*
X7006786Y-12531643D01*
X7149643Y-12460214D02*
X7149643Y-12760214D01*
X7149643Y-12474500D02*
X7178214Y-12460214D01*
X7235357Y-12460214D01*
X7263928Y-12474500D01*
X7278214Y-12488786D01*
X7292500Y-12517357D01*
X7292500Y-12603071D01*
X7278214Y-12631643D01*
X7263928Y-12645929D01*
X7235357Y-12660214D01*
X7178214Y-12660214D01*
X7149643Y-12645929D01*
X7421071Y-12631643D02*
X7435357Y-12645929D01*
X7421071Y-12660214D01*
X7406786Y-12645929D01*
X7421071Y-12631643D01*
X7421071Y-12660214D01*
X7421071Y-12474500D02*
X7435357Y-12488786D01*
X7421071Y-12503071D01*
X7406786Y-12488786D01*
X7421071Y-12474500D01*
X7421071Y-12503071D01*
M02*
