%TF.GenerationSoftware,KiCad,Pcbnew,(5.1.12)-1*%
%TF.CreationDate,2021-11-29T17:29:34+10:30*%
%TF.ProjectId,SWR_02,5357525f-3032-42e6-9b69-6361645f7063,1*%
%TF.SameCoordinates,Original*%
%TF.FileFunction,Legend,Top*%
%TF.FilePolarity,Positive*%
%FSLAX46Y46*%
G04 Gerber Fmt 4.6, Leading zero omitted, Abs format (unit mm)*
G04 Created by KiCad (PCBNEW (5.1.12)-1) date 2021-11-29 17:29:34*
%MOMM*%
%LPD*%
G01*
G04 APERTURE LIST*
%ADD10C,0.120000*%
%ADD11C,0.049530*%
%ADD12C,0.150000*%
G04 APERTURE END LIST*
D10*
%TO.C,J2*%
X145034000Y-106934000D02*
X149860000Y-106950000D01*
X145034000Y-115570000D02*
X145034000Y-106934000D01*
X149860000Y-115570000D02*
X145034000Y-115570000D01*
X149860000Y-106934000D02*
X149860000Y-115570000D01*
%TO.C,J1*%
X55626000Y-37846000D02*
X50800000Y-37830000D01*
X55626000Y-29210000D02*
X55626000Y-37846000D01*
X50800000Y-29210000D02*
X55626000Y-29210000D01*
X50800000Y-37846000D02*
X50800000Y-29210000D01*
%TO.C,D2*%
X134040000Y-116550000D02*
X134040000Y-111165000D01*
X134040000Y-111165000D02*
X130120000Y-111165000D01*
X130120000Y-111165000D02*
X130120000Y-116550000D01*
%TO.C,D1*%
X63210000Y-48840000D02*
X57825000Y-48840000D01*
X57825000Y-48840000D02*
X57825000Y-52760000D01*
X57825000Y-52760000D02*
X63210000Y-52760000D01*
%TO.C,C1*%
X56320000Y-47098748D02*
X56320000Y-49421252D01*
X52900000Y-47098748D02*
X52900000Y-49421252D01*
%TO.C,C2*%
X133458748Y-104970000D02*
X135781252Y-104970000D01*
X133458748Y-108390000D02*
X135781252Y-108390000D01*
D11*
%TO.C,L1A1*%
X59690000Y-31623000D02*
X64770000Y-31623000D01*
X64770000Y-29337000D02*
X64770000Y-31623000D01*
X59690000Y-29337000D02*
X64770000Y-29337000D01*
X59690000Y-31623000D02*
X59690000Y-29337000D01*
%TO.C,L1A2*%
X109220000Y-52197000D02*
X104140000Y-52197000D01*
X104140000Y-54483000D02*
X104140000Y-52197000D01*
X109220000Y-54483000D02*
X104140000Y-54483000D01*
X109220000Y-52197000D02*
X109220000Y-54483000D01*
%TO.C,L2A1*%
X73660000Y-69977000D02*
X68580000Y-69977000D01*
X68580000Y-72263000D02*
X68580000Y-69977000D01*
X73660000Y-72263000D02*
X68580000Y-72263000D01*
X73660000Y-69977000D02*
X73660000Y-72263000D01*
%TO.C,L2A2*%
X93980000Y-95123000D02*
X99060000Y-95123000D01*
X99060000Y-92837000D02*
X99060000Y-95123000D01*
X93980000Y-92837000D02*
X99060000Y-92837000D01*
X93980000Y-95123000D02*
X93980000Y-92837000D01*
D10*
%TO.C,R1*%
X58677064Y-34200000D02*
X55622936Y-34200000D01*
X58677064Y-36920000D02*
X55622936Y-36920000D01*
%TO.C,R2*%
X58677064Y-42000000D02*
X55622936Y-42000000D01*
X58677064Y-39280000D02*
X55622936Y-39280000D01*
%TO.C,R3*%
X135800000Y-115827064D02*
X135800000Y-112772936D01*
X138520000Y-115827064D02*
X138520000Y-112772936D01*
%TO.C,R4*%
X143600000Y-115827064D02*
X143600000Y-112772936D01*
X140880000Y-115827064D02*
X140880000Y-112772936D01*
%TO.C,FID1*%
D12*
X146248571Y-74414071D02*
X145915238Y-74414071D01*
X145915238Y-74937880D02*
X145915238Y-73937880D01*
X146391428Y-73937880D01*
X146772380Y-74937880D02*
X146772380Y-73937880D01*
X147248571Y-74937880D02*
X147248571Y-73937880D01*
X147486666Y-73937880D01*
X147629523Y-73985500D01*
X147724761Y-74080738D01*
X147772380Y-74175976D01*
X147820000Y-74366452D01*
X147820000Y-74509309D01*
X147772380Y-74699785D01*
X147724761Y-74795023D01*
X147629523Y-74890261D01*
X147486666Y-74937880D01*
X147248571Y-74937880D01*
X148772380Y-74937880D02*
X148200952Y-74937880D01*
X148486666Y-74937880D02*
X148486666Y-73937880D01*
X148391428Y-74080738D01*
X148296190Y-74175976D01*
X148200952Y-74223595D01*
%TO.C,J2*%
X143152380Y-114633333D02*
X143866666Y-114633333D01*
X144009523Y-114680952D01*
X144104761Y-114776190D01*
X144152380Y-114919047D01*
X144152380Y-115014285D01*
X143247619Y-114204761D02*
X143200000Y-114157142D01*
X143152380Y-114061904D01*
X143152380Y-113823809D01*
X143200000Y-113728571D01*
X143247619Y-113680952D01*
X143342857Y-113633333D01*
X143438095Y-113633333D01*
X143580952Y-113680952D01*
X144152380Y-114252380D01*
X144152380Y-113633333D01*
%TO.C,J1*%
X53006666Y-27392380D02*
X53006666Y-28106666D01*
X52959047Y-28249523D01*
X52863809Y-28344761D01*
X52720952Y-28392380D01*
X52625714Y-28392380D01*
X54006666Y-28392380D02*
X53435238Y-28392380D01*
X53720952Y-28392380D02*
X53720952Y-27392380D01*
X53625714Y-27535238D01*
X53530476Y-27630476D01*
X53435238Y-27678095D01*
%TO.C,H2*%
X53848095Y-115062380D02*
X53848095Y-114062380D01*
X53848095Y-114538571D02*
X54419523Y-114538571D01*
X54419523Y-115062380D02*
X54419523Y-114062380D01*
X54848095Y-114157619D02*
X54895714Y-114110000D01*
X54990952Y-114062380D01*
X55229047Y-114062380D01*
X55324285Y-114110000D01*
X55371904Y-114157619D01*
X55419523Y-114252857D01*
X55419523Y-114348095D01*
X55371904Y-114490952D01*
X54800476Y-115062380D01*
X55419523Y-115062380D01*
%TO.C,H1*%
X145288095Y-26162380D02*
X145288095Y-25162380D01*
X145288095Y-25638571D02*
X145859523Y-25638571D01*
X145859523Y-26162380D02*
X145859523Y-25162380D01*
X146859523Y-26162380D02*
X146288095Y-26162380D01*
X146573809Y-26162380D02*
X146573809Y-25162380D01*
X146478571Y-25305238D01*
X146383333Y-25400476D01*
X146288095Y-25448095D01*
%TO.C,D2*%
X131341904Y-109672380D02*
X131341904Y-108672380D01*
X131580000Y-108672380D01*
X131722857Y-108720000D01*
X131818095Y-108815238D01*
X131865714Y-108910476D01*
X131913333Y-109100952D01*
X131913333Y-109243809D01*
X131865714Y-109434285D01*
X131818095Y-109529523D01*
X131722857Y-109624761D01*
X131580000Y-109672380D01*
X131341904Y-109672380D01*
X132294285Y-108767619D02*
X132341904Y-108720000D01*
X132437142Y-108672380D01*
X132675238Y-108672380D01*
X132770476Y-108720000D01*
X132818095Y-108767619D01*
X132865714Y-108862857D01*
X132865714Y-108958095D01*
X132818095Y-109100952D01*
X132246666Y-109672380D01*
X132865714Y-109672380D01*
%TO.C,D1*%
X65222380Y-51538095D02*
X64222380Y-51538095D01*
X64222380Y-51300000D01*
X64270000Y-51157142D01*
X64365238Y-51061904D01*
X64460476Y-51014285D01*
X64650952Y-50966666D01*
X64793809Y-50966666D01*
X64984285Y-51014285D01*
X65079523Y-51061904D01*
X65174761Y-51157142D01*
X65222380Y-51300000D01*
X65222380Y-51538095D01*
X65222380Y-50014285D02*
X65222380Y-50585714D01*
X65222380Y-50300000D02*
X64222380Y-50300000D01*
X64365238Y-50395238D01*
X64460476Y-50490476D01*
X64508095Y-50585714D01*
%TO.C,C1*%
X54443333Y-53697142D02*
X54395714Y-53744761D01*
X54252857Y-53792380D01*
X54157619Y-53792380D01*
X54014761Y-53744761D01*
X53919523Y-53649523D01*
X53871904Y-53554285D01*
X53824285Y-53363809D01*
X53824285Y-53220952D01*
X53871904Y-53030476D01*
X53919523Y-52935238D01*
X54014761Y-52840000D01*
X54157619Y-52792380D01*
X54252857Y-52792380D01*
X54395714Y-52840000D01*
X54443333Y-52887619D01*
X55395714Y-53792380D02*
X54824285Y-53792380D01*
X55110000Y-53792380D02*
X55110000Y-52792380D01*
X55014761Y-52935238D01*
X54919523Y-53030476D01*
X54824285Y-53078095D01*
%TO.C,C2*%
X134453333Y-104387142D02*
X134405714Y-104434761D01*
X134262857Y-104482380D01*
X134167619Y-104482380D01*
X134024761Y-104434761D01*
X133929523Y-104339523D01*
X133881904Y-104244285D01*
X133834285Y-104053809D01*
X133834285Y-103910952D01*
X133881904Y-103720476D01*
X133929523Y-103625238D01*
X134024761Y-103530000D01*
X134167619Y-103482380D01*
X134262857Y-103482380D01*
X134405714Y-103530000D01*
X134453333Y-103577619D01*
X134834285Y-103577619D02*
X134881904Y-103530000D01*
X134977142Y-103482380D01*
X135215238Y-103482380D01*
X135310476Y-103530000D01*
X135358095Y-103577619D01*
X135405714Y-103672857D01*
X135405714Y-103768095D01*
X135358095Y-103910952D01*
X134786666Y-104482380D01*
X135405714Y-104482380D01*
%TO.C,L1A1*%
X61412571Y-28646380D02*
X60936380Y-28646380D01*
X60936380Y-27646380D01*
X62269714Y-28646380D02*
X61698285Y-28646380D01*
X61984000Y-28646380D02*
X61984000Y-27646380D01*
X61888761Y-27789238D01*
X61793523Y-27884476D01*
X61698285Y-27932095D01*
X62650666Y-28360666D02*
X63126857Y-28360666D01*
X62555428Y-28646380D02*
X62888761Y-27646380D01*
X63222095Y-28646380D01*
X64079238Y-28646380D02*
X63507809Y-28646380D01*
X63793523Y-28646380D02*
X63793523Y-27646380D01*
X63698285Y-27789238D01*
X63603047Y-27884476D01*
X63507809Y-27932095D01*
%TO.C,L1A2*%
X105354571Y-56078380D02*
X104878380Y-56078380D01*
X104878380Y-55078380D01*
X106211714Y-56078380D02*
X105640285Y-56078380D01*
X105926000Y-56078380D02*
X105926000Y-55078380D01*
X105830761Y-55221238D01*
X105735523Y-55316476D01*
X105640285Y-55364095D01*
X106592666Y-55792666D02*
X107068857Y-55792666D01*
X106497428Y-56078380D02*
X106830761Y-55078380D01*
X107164095Y-56078380D01*
X107449809Y-55173619D02*
X107497428Y-55126000D01*
X107592666Y-55078380D01*
X107830761Y-55078380D01*
X107926000Y-55126000D01*
X107973619Y-55173619D01*
X108021238Y-55268857D01*
X108021238Y-55364095D01*
X107973619Y-55506952D01*
X107402190Y-56078380D01*
X108021238Y-56078380D01*
%TO.C,L2A1*%
X69794571Y-73858380D02*
X69318380Y-73858380D01*
X69318380Y-72858380D01*
X70080285Y-72953619D02*
X70127904Y-72906000D01*
X70223142Y-72858380D01*
X70461238Y-72858380D01*
X70556476Y-72906000D01*
X70604095Y-72953619D01*
X70651714Y-73048857D01*
X70651714Y-73144095D01*
X70604095Y-73286952D01*
X70032666Y-73858380D01*
X70651714Y-73858380D01*
X71032666Y-73572666D02*
X71508857Y-73572666D01*
X70937428Y-73858380D02*
X71270761Y-72858380D01*
X71604095Y-73858380D01*
X72461238Y-73858380D02*
X71889809Y-73858380D01*
X72175523Y-73858380D02*
X72175523Y-72858380D01*
X72080285Y-73001238D01*
X71985047Y-73096476D01*
X71889809Y-73144095D01*
%TO.C,L2A2*%
X95702571Y-92146380D02*
X95226380Y-92146380D01*
X95226380Y-91146380D01*
X95988285Y-91241619D02*
X96035904Y-91194000D01*
X96131142Y-91146380D01*
X96369238Y-91146380D01*
X96464476Y-91194000D01*
X96512095Y-91241619D01*
X96559714Y-91336857D01*
X96559714Y-91432095D01*
X96512095Y-91574952D01*
X95940666Y-92146380D01*
X96559714Y-92146380D01*
X96940666Y-91860666D02*
X97416857Y-91860666D01*
X96845428Y-92146380D02*
X97178761Y-91146380D01*
X97512095Y-92146380D01*
X97797809Y-91241619D02*
X97845428Y-91194000D01*
X97940666Y-91146380D01*
X98178761Y-91146380D01*
X98274000Y-91194000D01*
X98321619Y-91241619D01*
X98369238Y-91336857D01*
X98369238Y-91432095D01*
X98321619Y-91574952D01*
X97750190Y-92146380D01*
X98369238Y-92146380D01*
%TO.C,J4*%
X139366666Y-97242380D02*
X139366666Y-97956666D01*
X139319047Y-98099523D01*
X139223809Y-98194761D01*
X139080952Y-98242380D01*
X138985714Y-98242380D01*
X140271428Y-97575714D02*
X140271428Y-98242380D01*
X140033333Y-97194761D02*
X139795238Y-97909047D01*
X140414285Y-97909047D01*
%TO.C,J3*%
X53006666Y-58888380D02*
X53006666Y-59602666D01*
X52959047Y-59745523D01*
X52863809Y-59840761D01*
X52720952Y-59888380D01*
X52625714Y-59888380D01*
X53387619Y-58888380D02*
X54006666Y-58888380D01*
X53673333Y-59269333D01*
X53816190Y-59269333D01*
X53911428Y-59316952D01*
X53959047Y-59364571D01*
X54006666Y-59459809D01*
X54006666Y-59697904D01*
X53959047Y-59793142D01*
X53911428Y-59840761D01*
X53816190Y-59888380D01*
X53530476Y-59888380D01*
X53435238Y-59840761D01*
X53387619Y-59793142D01*
%TO.C,R1*%
X56983333Y-33472380D02*
X56650000Y-32996190D01*
X56411904Y-33472380D02*
X56411904Y-32472380D01*
X56792857Y-32472380D01*
X56888095Y-32520000D01*
X56935714Y-32567619D01*
X56983333Y-32662857D01*
X56983333Y-32805714D01*
X56935714Y-32900952D01*
X56888095Y-32948571D01*
X56792857Y-32996190D01*
X56411904Y-32996190D01*
X57935714Y-33472380D02*
X57364285Y-33472380D01*
X57650000Y-33472380D02*
X57650000Y-32472380D01*
X57554761Y-32615238D01*
X57459523Y-32710476D01*
X57364285Y-32758095D01*
%TO.C,R2*%
X56983333Y-43372380D02*
X56650000Y-42896190D01*
X56411904Y-43372380D02*
X56411904Y-42372380D01*
X56792857Y-42372380D01*
X56888095Y-42420000D01*
X56935714Y-42467619D01*
X56983333Y-42562857D01*
X56983333Y-42705714D01*
X56935714Y-42800952D01*
X56888095Y-42848571D01*
X56792857Y-42896190D01*
X56411904Y-42896190D01*
X57364285Y-42467619D02*
X57411904Y-42420000D01*
X57507142Y-42372380D01*
X57745238Y-42372380D01*
X57840476Y-42420000D01*
X57888095Y-42467619D01*
X57935714Y-42562857D01*
X57935714Y-42658095D01*
X57888095Y-42800952D01*
X57316666Y-43372380D01*
X57935714Y-43372380D01*
%TO.C,R3*%
X136993333Y-109672380D02*
X136660000Y-109196190D01*
X136421904Y-109672380D02*
X136421904Y-108672380D01*
X136802857Y-108672380D01*
X136898095Y-108720000D01*
X136945714Y-108767619D01*
X136993333Y-108862857D01*
X136993333Y-109005714D01*
X136945714Y-109100952D01*
X136898095Y-109148571D01*
X136802857Y-109196190D01*
X136421904Y-109196190D01*
X137326666Y-108672380D02*
X137945714Y-108672380D01*
X137612380Y-109053333D01*
X137755238Y-109053333D01*
X137850476Y-109100952D01*
X137898095Y-109148571D01*
X137945714Y-109243809D01*
X137945714Y-109481904D01*
X137898095Y-109577142D01*
X137850476Y-109624761D01*
X137755238Y-109672380D01*
X137469523Y-109672380D01*
X137374285Y-109624761D01*
X137326666Y-109577142D01*
%TO.C,R4*%
X142073333Y-109672380D02*
X141740000Y-109196190D01*
X141501904Y-109672380D02*
X141501904Y-108672380D01*
X141882857Y-108672380D01*
X141978095Y-108720000D01*
X142025714Y-108767619D01*
X142073333Y-108862857D01*
X142073333Y-109005714D01*
X142025714Y-109100952D01*
X141978095Y-109148571D01*
X141882857Y-109196190D01*
X141501904Y-109196190D01*
X142930476Y-109005714D02*
X142930476Y-109672380D01*
X142692380Y-108624761D02*
X142454285Y-109339047D01*
X143073333Y-109339047D01*
%TD*%
M02*
