%TF.GenerationSoftware,KiCad,Pcbnew,(5.1.12)-1*%
%TF.CreationDate,2021-12-02T17:45:38+10:30*%
%TF.ProjectId,SWR_02,5357525f-3032-42e6-9b69-6361645f7063,2*%
%TF.SameCoordinates,Original*%
%TF.FileFunction,Soldermask,Bot*%
%TF.FilePolarity,Negative*%
%FSLAX46Y46*%
G04 Gerber Fmt 4.6, Leading zero omitted, Abs format (unit mm)*
G04 Created by KiCad (PCBNEW (5.1.12)-1) date 2021-12-02 17:45:38*
%MOMM*%
%LPD*%
G01*
G04 APERTURE LIST*
%ADD10C,5.000000*%
%ADD11C,2.900000*%
G04 APERTURE END LIST*
%TO.C,J2*%
G36*
G01*
X145986500Y-69215000D02*
X148653500Y-69215000D01*
G75*
G02*
X149606000Y-70167500I0J-952500D01*
G01*
X149606000Y-72072500D01*
G75*
G02*
X148653500Y-73025000I-952500J0D01*
G01*
X145986500Y-73025000D01*
G75*
G02*
X145034000Y-72072500I0J952500D01*
G01*
X145034000Y-70167500D01*
G75*
G02*
X145986500Y-69215000I952500J0D01*
G01*
G37*
%TD*%
%TO.C,J1*%
G36*
G01*
X54673500Y-37465000D02*
X52006500Y-37465000D01*
G75*
G02*
X51054000Y-36512500I0J952500D01*
G01*
X51054000Y-34607500D01*
G75*
G02*
X52006500Y-33655000I952500J0D01*
G01*
X54673500Y-33655000D01*
G75*
G02*
X55626000Y-34607500I0J-952500D01*
G01*
X55626000Y-36512500D01*
G75*
G02*
X54673500Y-37465000I-952500J0D01*
G01*
G37*
%TD*%
D10*
%TO.C,H2*%
X54610000Y-111760000D03*
D11*
X54610000Y-111760000D03*
%TD*%
D10*
%TO.C,H1*%
X146050000Y-29210000D03*
D11*
X146050000Y-29210000D03*
%TD*%
%TO.C,J3*%
G36*
G01*
X53335000Y-59445001D02*
X53335000Y-57394999D01*
G75*
G02*
X53584999Y-57145000I249999J0D01*
G01*
X55635001Y-57145000D01*
G75*
G02*
X55885000Y-57394999I0J-249999D01*
G01*
X55885000Y-59445001D01*
G75*
G02*
X55635001Y-59695000I-249999J0D01*
G01*
X53584999Y-59695000D01*
G75*
G02*
X53335000Y-59445001I0J249999D01*
G01*
G37*
%TD*%
%TO.C,J4*%
G36*
G01*
X135885000Y-110245001D02*
X135885000Y-108194999D01*
G75*
G02*
X136134999Y-107945000I249999J0D01*
G01*
X138185001Y-107945000D01*
G75*
G02*
X138435000Y-108194999I0J-249999D01*
G01*
X138435000Y-110245001D01*
G75*
G02*
X138185001Y-110495000I-249999J0D01*
G01*
X136134999Y-110495000D01*
G75*
G02*
X135885000Y-110245001I0J249999D01*
G01*
G37*
%TD*%
%TO.C,H3*%
X146050000Y-111760000D03*
D10*
X146050000Y-111760000D03*
%TD*%
M02*
